<svg xmlns="http://www.w3.org/2000/svg" xmlns:xlink="http://www.w3.org/1999/xlink" width="286" zoomAndPan="magnify" viewBox="0 0 214.5 135.000003" height="180" preserveAspectRatio="xMidYMid meet" version="1.0"><defs><clipPath id="3cb2a5e1ca"><path d="M 0.539062 0 L 213.464844 0 L 213.464844 134.007812 L 0.539062 134.007812 Z M 0.539062 0 " clip-rule="nonzero"/></clipPath><clipPath id="d3f526b1ed"><path d="M 203.683594 118.273438 L 209.101562 118.273438 L 209.101562 123.839844 L 203.683594 123.839844 Z M 203.683594 118.273438 " clip-rule="nonzero"/></clipPath><clipPath id="eb4cc7894f"><path d="M 197.160156 119 L 203 119 L 203 123 L 197.160156 123 Z M 197.160156 119 " clip-rule="nonzero"/></clipPath><clipPath id="957718d9f9"><path d="M 197.160156 125 L 203 125 L 203 130.957031 L 197.160156 130.957031 Z M 197.160156 125 " clip-rule="nonzero"/></clipPath><clipPath id="37da3d159b"><path d="M 203.683594 126.910156 L 209.101562 126.910156 L 209.101562 129.191406 L 203.683594 129.191406 Z M 203.683594 126.910156 " clip-rule="nonzero"/></clipPath><clipPath id="36c890fe45"><path d="M 205.519531 129.121094 L 207.3125 129.121094 L 207.3125 130.957031 L 205.519531 130.957031 Z M 205.519531 129.121094 " clip-rule="nonzero"/></clipPath><clipPath id="0d223aac93"><path d="M 51.589844 29.808594 L 159.792969 29.808594 L 159.792969 104.429688 L 51.589844 104.429688 Z M 51.589844 29.808594 " clip-rule="nonzero"/></clipPath></defs><g clip-path="url(#3cb2a5e1ca)"><path fill="#ffffff" d="M 0.539062 0 L 213.960938 0 L 213.960938 141.78125 L 0.539062 141.78125 Z M 0.539062 0 " fill-opacity="1" fill-rule="nonzero"/><path fill="#ffffff" d="M 0.539062 0 L 213.960938 0 L 213.960938 134.320312 L 0.539062 134.320312 Z M 0.539062 0 " fill-opacity="1" fill-rule="nonzero"/><path fill="#a6a6a6" d="M 0.539062 0 L 213.960938 0 L 213.960938 134.320312 L 0.539062 134.320312 Z M 0.539062 0 " fill-opacity="1" fill-rule="nonzero"/></g><g clip-path="url(#d3f526b1ed)"><path fill="#ffffff" d="M 206.929688 123.253906 L 206.929688 121.800781 C 206.929688 121.695312 207.015625 121.609375 207.117188 121.609375 L 208.53125 121.609375 L 208.53125 120.503906 L 207.136719 120.503906 C 207.042969 120.503906 206.960938 120.429688 206.949219 120.332031 C 206.921875 120.066406 206.925781 119.769531 206.929688 119.484375 C 206.933594 119.273438 206.9375 119.054688 206.925781 118.859375 L 205.855469 118.859375 L 205.855469 120.292969 C 205.855469 120.390625 205.78125 120.476562 205.683594 120.484375 C 205.507812 120.5 205.3125 120.507812 205.050781 120.507812 C 204.925781 120.507812 204.804688 120.503906 204.683594 120.503906 C 204.5625 120.503906 204.441406 120.5 204.320312 120.5 C 204.296875 120.5 204.277344 120.5 204.257812 120.5 L 204.257812 121.609375 L 205.667969 121.609375 C 205.773438 121.609375 205.855469 121.695312 205.855469 121.800781 L 205.855469 123.253906 Z M 206.394531 123.839844 C 206.074219 123.839844 205.761719 123.832031 205.488281 123.816406 C 205.394531 123.808594 205.320312 123.734375 205.3125 123.640625 C 205.285156 123.316406 205.289062 122.960938 205.292969 122.621094 C 205.292969 122.476562 205.296875 122.328125 205.292969 122.1875 C 205.273438 122.1875 205.253906 122.1875 205.230469 122.1875 C 205.113281 122.1875 204.992188 122.1875 204.875 122.191406 C 204.753906 122.191406 204.632812 122.191406 204.511719 122.191406 C 204.25 122.191406 204.058594 122.183594 203.882812 122.167969 C 203.789062 122.160156 203.714844 122.082031 203.710938 121.988281 C 203.679688 121.414062 203.679688 120.699219 203.710938 120.125 C 203.714844 120.03125 203.785156 119.953125 203.875 119.945312 C 204.015625 119.925781 204.175781 119.917969 204.378906 119.917969 C 204.484375 119.917969 204.589844 119.921875 204.691406 119.921875 C 204.792969 119.925781 204.898438 119.925781 204.996094 119.925781 C 205.109375 119.925781 205.207031 119.925781 205.292969 119.917969 C 205.296875 119.773438 205.292969 119.625 205.292969 119.480469 C 205.289062 119.140625 205.285156 118.789062 205.3125 118.472656 C 205.320312 118.378906 205.390625 118.304688 205.484375 118.296875 C 205.679688 118.28125 205.894531 118.273438 206.179688 118.273438 C 206.3125 118.273438 206.449219 118.273438 206.578125 118.277344 L 206.582031 118.277344 C 206.710938 118.277344 206.847656 118.28125 206.976562 118.28125 C 207.074219 118.28125 207.164062 118.277344 207.246094 118.277344 C 207.246094 118.277344 207.25 118.277344 207.25 118.277344 C 207.273438 118.277344 207.296875 118.28125 207.320312 118.289062 C 207.394531 118.320312 207.453125 118.378906 207.484375 118.457031 C 207.492188 118.480469 207.496094 118.503906 207.496094 118.527344 L 207.496094 119.925781 C 207.515625 119.925781 207.535156 119.925781 207.554688 119.925781 C 207.675781 119.925781 207.796875 119.925781 207.914062 119.921875 C 208.035156 119.921875 208.15625 119.917969 208.277344 119.917969 C 208.535156 119.917969 208.730469 119.925781 208.90625 119.941406 C 209 119.953125 209.070312 120.027344 209.078125 120.125 C 209.109375 120.699219 209.109375 121.414062 209.078125 121.988281 C 209.070312 122.082031 209.003906 122.15625 208.910156 122.167969 C 208.773438 122.183594 208.613281 122.191406 208.40625 122.191406 C 208.304688 122.191406 208.199219 122.191406 208.09375 122.1875 C 207.996094 122.1875 207.890625 122.1875 207.789062 122.1875 C 207.675781 122.1875 207.578125 122.1875 207.492188 122.191406 C 207.492188 122.339844 207.492188 122.488281 207.496094 122.632812 C 207.5 122.972656 207.503906 123.320312 207.476562 123.640625 C 207.46875 123.734375 207.390625 123.8125 207.300781 123.816406 C 207.023438 123.832031 206.710938 123.839844 206.394531 123.839844 " fill-opacity="1" fill-rule="evenodd"/></g><g clip-path="url(#eb4cc7894f)"><path fill="#ffffff" d="M 202.015625 121.609375 L 202.015625 120.503906 L 197.738281 120.503906 L 197.738281 121.609375 Z M 199.875 122.195312 C 199.027344 122.195312 198.183594 122.1875 197.378906 122.167969 C 197.277344 122.167969 197.199219 122.089844 197.191406 121.988281 C 197.160156 121.414062 197.160156 120.699219 197.191406 120.125 C 197.199219 120.023438 197.277344 119.945312 197.375 119.941406 C 197.9375 119.925781 198.539062 119.917969 199.328125 119.917969 C 199.695312 119.917969 200.074219 119.921875 200.4375 119.921875 L 200.441406 119.921875 C 200.808594 119.925781 201.183594 119.925781 201.554688 119.925781 C 201.839844 119.925781 202.09375 119.925781 202.332031 119.921875 C 202.332031 119.921875 202.335938 119.921875 202.335938 119.921875 C 202.359375 119.921875 202.382812 119.925781 202.402344 119.9375 C 202.480469 119.964844 202.539062 120.027344 202.566406 120.105469 C 202.574219 120.128906 202.578125 120.152344 202.578125 120.179688 C 202.574219 120.402344 202.578125 120.636719 202.578125 120.867188 C 202.582031 121.242188 202.589844 121.636719 202.558594 121.992188 C 202.550781 122.089844 202.472656 122.167969 202.375 122.167969 C 201.570312 122.1875 200.726562 122.195312 199.875 122.195312 " fill-opacity="1" fill-rule="evenodd"/></g><path fill="#ffffff" d="M 206.398438 125.785156 C 206.316406 125.785156 206.253906 125.808594 206.203125 125.859375 C 206.148438 125.917969 206.117188 126.007812 206.121094 126.105469 C 206.121094 126.136719 206.132812 126.429688 206.421875 126.429688 C 206.636719 126.429688 206.710938 126.234375 206.71875 126.121094 C 206.722656 126.074219 206.726562 125.828125 206.46875 125.789062 C 206.445312 125.785156 206.421875 125.785156 206.398438 125.785156 Z M 206.441406 127.027344 C 205.996094 127.027344 205.609375 126.71875 205.539062 126.308594 C 205.484375 125.996094 205.550781 125.707031 205.722656 125.5 C 205.882812 125.300781 206.125 125.191406 206.402344 125.191406 C 206.476562 125.191406 206.550781 125.199219 206.628906 125.214844 C 207.039062 125.296875 207.3125 125.65625 207.308594 126.105469 C 207.304688 126.566406 207.023438 126.9375 206.625 127.007812 C 206.5625 127.019531 206.503906 127.027344 206.441406 127.027344 " fill-opacity="1" fill-rule="evenodd"/><g clip-path="url(#957718d9f9)"><path fill="#ffffff" d="M 199.8125 128.890625 C 199.855469 128.890625 199.902344 128.90625 199.9375 128.941406 C 200.117188 129.105469 200.285156 129.285156 200.449219 129.457031 C 200.609375 129.625 200.773438 129.800781 200.945312 129.957031 C 201.050781 129.84375 201.164062 129.730469 201.273438 129.625 C 201.421875 129.472656 201.566406 129.328125 201.699219 129.175781 C 201.550781 129.03125 201.40625 128.882812 201.269531 128.738281 C 201.089844 128.550781 200.90625 128.359375 200.71875 128.179688 C 200.644531 128.113281 200.636719 127.996094 200.699219 127.917969 C 200.875 127.691406 201.078125 127.492188 201.273438 127.300781 C 201.421875 127.148438 201.566406 127.003906 201.699219 126.851562 C 201.445312 126.597656 201.191406 126.339844 200.949219 126.078125 C 200.773438 126.238281 200.609375 126.410156 200.449219 126.582031 C 200.285156 126.753906 200.117188 126.933594 199.9375 127.097656 C 199.902344 127.132812 199.855469 127.148438 199.8125 127.148438 C 199.765625 127.148438 199.71875 127.128906 199.679688 127.09375 C 199.34375 126.761719 199.011719 126.421875 198.6875 126.078125 C 198.421875 126.328125 198.167969 126.589844 197.925781 126.863281 C 198.070312 127.007812 198.214844 127.15625 198.351562 127.300781 C 198.53125 127.488281 198.714844 127.679688 198.902344 127.859375 C 198.972656 127.925781 198.984375 128.039062 198.925781 128.117188 C 198.757812 128.339844 198.566406 128.527344 198.378906 128.710938 C 198.214844 128.871094 198.054688 129.027344 197.917969 129.195312 C 198.175781 129.441406 198.429688 129.699219 198.671875 129.96875 C 198.820312 129.824219 198.960938 129.675781 199.101562 129.53125 C 199.289062 129.335938 199.484375 129.132812 199.683594 128.941406 C 199.71875 128.910156 199.765625 128.890625 199.8125 128.890625 Z M 198.644531 130.671875 C 198.59375 130.671875 198.542969 130.652344 198.507812 130.613281 C 198.34375 130.441406 198.175781 130.273438 197.996094 130.097656 C 197.855469 129.957031 197.710938 129.816406 197.566406 129.667969 C 197.558594 129.660156 197.550781 129.648438 197.539062 129.636719 C 197.316406 129.414062 197.226562 129.304688 197.230469 129.175781 C 197.234375 129.039062 197.339844 128.9375 197.492188 128.804688 C 197.515625 128.785156 197.539062 128.765625 197.550781 128.753906 L 197.617188 128.683594 C 197.84375 128.453125 198.058594 128.230469 198.253906 128.007812 C 198.175781 127.929688 198.097656 127.855469 198.019531 127.777344 C 197.761719 127.523438 197.496094 127.261719 197.269531 126.953125 C 197.210938 126.878906 197.21875 126.769531 197.285156 126.703125 C 197.394531 126.589844 197.503906 126.472656 197.609375 126.363281 C 197.910156 126.042969 198.222656 125.714844 198.558594 125.414062 C 198.59375 125.382812 198.636719 125.367188 198.679688 125.367188 C 198.722656 125.367188 198.761719 125.378906 198.796875 125.40625 C 198.996094 125.566406 199.191406 125.773438 199.378906 125.972656 C 199.519531 126.125 199.667969 126.28125 199.816406 126.417969 C 199.871094 126.363281 199.925781 126.304688 199.980469 126.25 C 200.246094 125.964844 200.519531 125.675781 200.820312 125.410156 C 200.855469 125.382812 200.898438 125.367188 200.941406 125.367188 C 200.964844 125.367188 200.988281 125.371094 201.011719 125.378906 C 201.039062 125.390625 201.0625 125.410156 201.082031 125.429688 C 201.082031 125.433594 201.082031 125.433594 201.085938 125.433594 C 201.492188 125.804688 201.953125 126.277344 202.34375 126.726562 C 202.40625 126.800781 202.40625 126.90625 202.347656 126.980469 C 202.15625 127.222656 201.9375 127.441406 201.726562 127.652344 C 201.605469 127.769531 201.484375 127.894531 201.367188 128.019531 C 201.484375 128.144531 201.605469 128.269531 201.726562 128.386719 C 201.9375 128.597656 202.15625 128.816406 202.347656 129.058594 C 202.40625 129.132812 202.40625 129.238281 202.34375 129.3125 C 201.945312 129.769531 201.515625 130.210938 201.066406 130.625 C 201.03125 130.65625 200.984375 130.671875 200.941406 130.671875 C 200.898438 130.671875 200.859375 130.660156 200.824219 130.632812 C 200.605469 130.453125 200.414062 130.25 200.230469 130.050781 C 200.089844 129.898438 199.953125 129.753906 199.804688 129.621094 C 199.796875 129.632812 199.785156 129.644531 199.773438 129.65625 C 199.644531 129.792969 199.511719 129.9375 199.378906 130.074219 C 199.34375 130.109375 199.308594 130.144531 199.273438 130.183594 C 199.113281 130.355469 198.945312 130.535156 198.730469 130.652344 C 198.703125 130.664062 198.671875 130.671875 198.644531 130.671875 " fill-opacity="1" fill-rule="evenodd"/></g><g clip-path="url(#37da3d159b)"><path fill="#ffffff" d="M 208.53125 128.601562 L 208.53125 127.496094 L 204.257812 127.496094 L 204.257812 128.601562 Z M 206.394531 129.1875 C 205.542969 129.1875 204.703125 129.179688 203.894531 129.164062 C 203.796875 129.160156 203.714844 129.082031 203.710938 128.980469 C 203.679688 128.40625 203.679688 127.691406 203.710938 127.117188 C 203.714844 127.015625 203.796875 126.9375 203.894531 126.933594 C 204.453125 126.917969 205.054688 126.914062 205.84375 126.914062 C 206.214844 126.914062 206.59375 126.914062 206.957031 126.914062 C 207.320312 126.917969 207.699219 126.917969 208.070312 126.917969 C 208.355469 126.917969 208.613281 126.917969 208.851562 126.914062 C 208.875 126.914062 208.898438 126.917969 208.921875 126.929688 C 208.996094 126.960938 209.054688 127.019531 209.082031 127.097656 C 209.09375 127.121094 209.097656 127.144531 209.097656 127.171875 C 209.09375 127.394531 209.09375 127.628906 209.097656 127.859375 C 209.101562 128.234375 209.105469 128.628906 209.078125 128.984375 C 209.070312 129.082031 208.988281 129.160156 208.894531 129.164062 C 208.085938 129.179688 207.246094 129.1875 206.394531 129.1875 " fill-opacity="1" fill-rule="evenodd"/></g><g clip-path="url(#36c890fe45)"><path fill="#ffffff" d="M 206.398438 129.714844 C 206.128906 129.714844 206.121094 129.996094 206.121094 130.027344 C 206.121094 130.152344 206.183594 130.363281 206.421875 130.363281 C 206.636719 130.363281 206.710938 130.167969 206.71875 130.050781 C 206.722656 130.003906 206.726562 129.761719 206.46875 129.722656 C 206.445312 129.71875 206.421875 129.714844 206.398438 129.714844 Z M 206.441406 130.957031 C 205.996094 130.957031 205.609375 130.648438 205.539062 130.242188 C 205.484375 129.929688 205.550781 129.640625 205.722656 129.429688 C 205.882812 129.234375 206.125 129.125 206.402344 129.125 C 206.476562 129.125 206.550781 129.132812 206.628906 129.144531 C 207.039062 129.226562 207.3125 129.585938 207.308594 130.039062 C 207.304688 130.5 207.023438 130.871094 206.625 130.941406 C 206.5625 130.953125 206.503906 130.957031 206.441406 130.957031 " fill-opacity="1" fill-rule="evenodd"/></g><g clip-path="url(#0d223aac93)"><path fill="#000000" d="M 57.898438 31.839844 C 57.785156 31.628906 57.867188 31.367188 58.078125 31.253906 C 58.289062 31.144531 58.550781 31.226562 58.660156 31.433594 C 59.484375 32.992188 60.746094 34.316406 62.257812 35.222656 C 62.460938 34.050781 62.5 32.851562 62.359375 31.671875 C 62.332031 31.433594 62.5 31.21875 62.738281 31.191406 C 62.980469 31.160156 63.191406 31.332031 63.21875 31.570312 C 63.386719 32.96875 63.316406 34.390625 63.035156 35.769531 C 63.078125 35.882812 63.074219 36.007812 63.015625 36.125 C 62.992188 36.171875 62.960938 36.207031 62.925781 36.242188 C 62.523438 37.890625 61.816406 39.46875 60.820312 40.84375 C 60.738281 40.960938 60.605469 41.023438 60.472656 41.023438 C 60.386719 41.023438 60.296875 40.996094 60.21875 40.941406 C 60.027344 40.800781 59.984375 40.53125 60.121094 40.335938 C 61.035156 39.074219 61.691406 37.628906 62.070312 36.113281 C 60.3125 35.128906 58.839844 33.621094 57.898438 31.839844 Z M 156.085938 96.355469 C 156.015625 96.515625 155.855469 96.613281 155.691406 96.613281 C 155.632812 96.613281 155.574219 96.601562 155.519531 96.578125 C 154.746094 96.242188 154.007812 95.816406 153.320312 95.320312 L 151.777344 97.675781 C 151.695312 97.800781 151.554688 97.871094 151.414062 97.871094 C 151.335938 97.871094 151.253906 97.847656 151.179688 97.800781 C 150.980469 97.671875 150.925781 97.402344 151.054688 97.203125 L 152.632812 94.789062 C 151.640625 93.960938 150.777344 92.976562 150.097656 91.878906 C 149.972656 91.675781 150.035156 91.40625 150.238281 91.285156 C 150.441406 91.15625 150.707031 91.21875 150.832031 91.421875 C 151.445312 92.414062 152.21875 93.304688 153.109375 94.0625 L 154.605469 91.777344 C 154.734375 91.578125 155.003906 91.519531 155.203125 91.652344 C 155.402344 91.78125 155.457031 92.050781 155.328125 92.25 L 153.792969 94.597656 C 154.4375 95.066406 155.132812 95.46875 155.863281 95.785156 C 156.082031 95.882812 156.183594 96.136719 156.085938 96.355469 Z M 72.320312 92.628906 C 72.210938 93.101562 72.089844 93.472656 71.851562 93.738281 C 71.664062 93.949219 71.320312 94.105469 71.074219 93.992188 C 70.847656 93.886719 70.695312 93.582031 70.597656 93.058594 C 70.367188 91.777344 70.34375 90.203125 70.839844 89.773438 C 70.875 89.742188 70.964844 89.664062 71.164062 89.664062 C 71.265625 89.664062 71.394531 89.683594 71.558594 89.738281 C 71.980469 89.882812 72.328125 90.328125 72.441406 90.878906 C 72.5625 91.460938 72.449219 92.089844 72.320312 92.628906 Z M 71.835938 88.917969 C 71.046875 88.652344 70.550781 88.878906 70.273438 89.117188 C 69.285156 89.972656 69.578125 92.265625 69.75 93.214844 C 69.804688 93.515625 69.96875 94.433594 70.714844 94.777344 C 70.886719 94.855469 71.074219 94.894531 71.265625 94.894531 C 71.707031 94.894531 72.164062 94.6875 72.5 94.3125 C 72.875 93.886719 73.042969 93.347656 73.164062 92.828125 C 73.3125 92.195312 73.445312 91.449219 73.285156 90.703125 C 73.109375 89.847656 72.550781 89.164062 71.835938 88.917969 Z M 67.996094 55.460938 L 79.320312 55.460938 C 74.90625 64.203125 71.011719 74.3125 67.996094 83.03125 Z M 82.976562 50.527344 C 88.414062 45.085938 94.226562 39.929688 100.277344 35.191406 C 101.566406 35.3125 102.730469 35.644531 103.792969 36.167969 L 82.59375 54.59375 L 80.773438 54.59375 C 81.496094 53.195312 82.234375 51.835938 82.976562 50.527344 Z M 99.222656 35.144531 C 99.363281 35.144531 99.5 35.144531 99.636719 35.148438 C 94.132812 39.480469 88.828125 44.15625 83.828125 49.074219 C 88.699219 40.894531 93.988281 35.144531 99.222656 35.144531 Z M 108.78125 40.835938 L 93.277344 54.59375 L 88.910156 54.59375 L 106.085938 38.316406 C 106.171875 38.234375 106.175781 38.097656 106.09375 38.011719 C 106.011719 37.925781 105.875 37.917969 105.789062 38.003906 L 88.28125 54.59375 L 83.253906 54.59375 L 104.207031 36.382812 C 106.011719 37.375 107.507812 38.917969 108.78125 40.835938 Z M 111.128906 54.59375 L 113.621094 52.25 C 113.855469 53.027344 114.085938 53.808594 114.3125 54.59375 Z M 118.546875 55.460938 L 116.105469 57.761719 C 116.082031 57.683594 116.0625 57.605469 116.039062 57.527344 C 115.847656 56.84375 115.652344 56.152344 115.457031 55.460938 Z M 143.597656 58.910156 L 128.984375 75.246094 C 128.953125 75.28125 128.9375 75.328125 128.933594 75.375 C 128.351562 75.507812 127.761719 75.582031 127.167969 75.582031 C 126.433594 75.582031 125.75 75.449219 125.113281 75.207031 C 131.179688 68.9375 136.992188 62.296875 142.40625 55.460938 L 145.25 55.460938 C 144.726562 56.605469 144.175781 57.757812 143.597656 58.910156 Z M 129.617188 75.1875 L 142.8125 60.4375 C 139.195312 67.292969 134.644531 73.582031 129.617188 75.1875 Z M 122.078125 72.855469 L 137.664062 55.460938 L 141.851562 55.460938 C 136.476562 62.234375 130.707031 68.8125 124.691406 75.023438 C 123.714844 74.558594 122.855469 73.820312 122.078125 72.855469 Z M 137.082031 55.460938 L 121.808594 72.507812 C 121.140625 71.613281 120.535156 70.558594 119.976562 69.371094 L 132.316406 55.460938 Z M 131.738281 55.460938 L 119.78125 68.941406 C 119.257812 67.777344 118.773438 66.503906 118.316406 65.15625 L 127.078125 55.460938 Z M 126.496094 55.460938 L 118.160156 64.683594 C 117.820312 63.667969 117.496094 62.609375 117.179688 61.527344 L 122.574219 55.460938 Z M 119.125 55.460938 L 121.996094 55.460938 L 117.035156 61.035156 C 116.765625 60.113281 116.5 59.175781 116.234375 58.230469 L 119.070312 55.558594 C 119.101562 55.53125 119.117188 55.496094 119.125 55.460938 Z M 113.476562 51.789062 L 110.5 54.59375 L 107.292969 54.59375 L 112.871094 49.886719 C 113.078125 50.515625 113.28125 51.148438 113.476562 51.789062 Z M 112.722656 49.445312 L 106.738281 54.5 C 106.707031 54.527344 106.6875 54.558594 106.675781 54.59375 L 102.699219 54.59375 L 111.796875 46.886719 C 112.117188 47.71875 112.425781 48.574219 112.722656 49.445312 Z M 111.628906 46.460938 L 102.027344 54.59375 L 98.328125 54.59375 L 110.699219 44.300781 C 111.023438 44.996094 111.332031 45.71875 111.628906 46.460938 Z M 110.507812 43.898438 L 97.652344 54.59375 L 93.929688 54.59375 L 109.019531 41.203125 C 109.550781 42.039062 110.046875 42.941406 110.507812 43.898438 Z M 159.6875 86.859375 C 159.691406 86.851562 159.695312 86.84375 159.699219 86.835938 C 159.707031 86.800781 159.710938 86.765625 159.710938 86.730469 C 159.710938 86.691406 159.707031 86.660156 159.699219 86.625 C 159.695312 86.617188 159.691406 86.609375 159.6875 86.597656 C 159.679688 86.574219 159.671875 86.550781 159.660156 86.527344 C 159.65625 86.519531 159.648438 86.511719 159.644531 86.503906 C 159.628906 86.472656 159.605469 86.445312 159.582031 86.421875 C 159.582031 86.417969 159.578125 86.417969 159.574219 86.417969 C 159.550781 86.394531 159.527344 86.375 159.496094 86.359375 C 159.496094 86.355469 159.492188 86.355469 159.488281 86.351562 L 155.027344 83.894531 C 154.820312 83.78125 154.554688 83.855469 154.441406 84.066406 C 154.328125 84.273438 154.402344 84.539062 154.613281 84.652344 L 157.597656 86.296875 L 67.996094 86.296875 L 67.996094 85.847656 C 71.164062 76.496094 75.457031 65.085938 80.332031 55.460938 L 114.558594 55.460938 C 114.777344 56.226562 114.992188 56.996094 115.207031 57.761719 C 117.898438 67.371094 120.441406 76.445312 127.167969 76.445312 C 135.003906 76.445312 141.75 65.421875 146.246094 55.460938 L 153.703125 55.460938 C 153.941406 55.460938 154.132812 55.265625 154.132812 55.027344 C 154.132812 54.789062 153.941406 54.59375 153.703125 54.59375 L 146.632812 54.59375 C 148.769531 49.746094 150.359375 45.242188 151.265625 42.5 L 151.265625 44.609375 C 151.265625 44.847656 151.457031 45.039062 151.695312 45.039062 C 151.933594 45.039062 152.128906 44.847656 152.128906 44.609375 L 152.128906 39.695312 C 152.128906 39.691406 152.125 39.6875 152.125 39.683594 C 152.125 39.644531 152.121094 39.601562 152.105469 39.566406 C 152.09375 39.527344 152.078125 39.496094 152.054688 39.460938 C 152.050781 39.457031 152.046875 39.449219 152.042969 39.441406 C 152.019531 39.410156 151.996094 39.382812 151.964844 39.359375 C 151.960938 39.355469 151.957031 39.355469 151.953125 39.351562 C 151.925781 39.332031 151.894531 39.3125 151.859375 39.300781 C 151.855469 39.296875 151.851562 39.292969 151.847656 39.292969 C 151.84375 39.289062 151.839844 39.289062 151.835938 39.289062 C 151.832031 39.285156 151.824219 39.285156 151.816406 39.28125 C 151.785156 39.273438 151.753906 39.269531 151.722656 39.265625 C 151.714844 39.265625 151.710938 39.265625 151.703125 39.265625 C 151.667969 39.265625 151.636719 39.269531 151.605469 39.277344 C 151.597656 39.277344 151.589844 39.277344 151.578125 39.28125 C 151.542969 39.289062 151.511719 39.304688 151.480469 39.324219 C 151.472656 39.328125 151.464844 39.332031 151.457031 39.339844 C 151.429688 39.355469 151.402344 39.378906 151.382812 39.402344 C 151.378906 39.40625 151.371094 39.410156 151.371094 39.414062 L 148.398438 42.835938 C 148.238281 43.015625 148.257812 43.289062 148.4375 43.445312 C 148.617188 43.601562 148.890625 43.585938 149.046875 43.402344 L 150.652344 41.554688 C 149.78125 44.210938 148.039062 49.21875 145.640625 54.59375 L 115.210938 54.59375 C 112.316406 44.53125 108.609375 34.277344 99.222656 34.277344 C 92.402344 34.277344 85.640625 43.167969 79.761719 54.59375 L 67.996094 54.59375 L 67.996094 31.925781 L 69.644531 34.917969 C 69.757812 35.128906 70.023438 35.203125 70.230469 35.089844 C 70.441406 34.972656 70.515625 34.710938 70.402344 34.5 L 67.941406 30.035156 C 67.9375 30.03125 67.933594 30.027344 67.933594 30.023438 C 67.917969 29.996094 67.898438 29.972656 67.878906 29.949219 C 67.875 29.945312 67.871094 29.945312 67.871094 29.941406 C 67.847656 29.917969 67.820312 29.894531 67.789062 29.878906 C 67.78125 29.875 67.773438 29.871094 67.765625 29.867188 C 67.742188 29.855469 67.71875 29.84375 67.691406 29.835938 C 67.683594 29.832031 67.675781 29.828125 67.667969 29.828125 C 67.632812 29.816406 67.601562 29.8125 67.5625 29.8125 C 67.527344 29.8125 67.492188 29.816406 67.457031 29.828125 C 67.449219 29.828125 67.441406 29.832031 67.429688 29.835938 C 67.40625 29.84375 67.382812 29.855469 67.359375 29.867188 C 67.351562 29.871094 67.34375 29.875 67.335938 29.878906 C 67.304688 29.898438 67.277344 29.917969 67.253906 29.941406 C 67.253906 29.945312 67.25 29.945312 67.25 29.949219 C 67.226562 29.972656 67.207031 30 67.191406 30.027344 C 67.191406 30.03125 67.1875 30.03125 67.183594 30.035156 L 64.730469 34.503906 C 64.617188 34.710938 64.691406 34.976562 64.902344 35.089844 C 64.96875 35.125 65.039062 35.144531 65.109375 35.144531 C 65.261719 35.144531 65.410156 35.0625 65.488281 34.917969 L 67.128906 31.929688 L 67.128906 85.558594 C 67.046875 85.808594 66.964844 86.054688 66.882812 86.296875 L 52.105469 86.296875 C 51.867188 86.296875 51.671875 86.492188 51.671875 86.730469 C 51.671875 86.96875 51.867188 87.164062 52.105469 87.164062 L 66.59375 87.164062 C 63.59375 96.207031 61.734375 103.015625 61.496094 103.882812 C 61.433594 104.113281 61.570312 104.351562 61.800781 104.414062 C 61.839844 104.425781 61.878906 104.429688 61.914062 104.429688 C 62.105469 104.429688 62.277344 104.300781 62.332031 104.109375 C 62.386719 103.898438 64.171875 97.378906 67.128906 88.429688 L 67.128906 102.582031 C 67.128906 102.820312 67.324219 103.015625 67.5625 103.015625 C 67.800781 103.015625 67.996094 102.820312 67.996094 102.582031 L 67.996094 87.164062 L 157.601562 87.164062 L 154.613281 88.8125 C 154.402344 88.929688 154.328125 89.191406 154.441406 89.402344 C 154.519531 89.546875 154.667969 89.625 154.820312 89.625 C 154.890625 89.625 154.964844 89.609375 155.027344 89.570312 L 159.488281 87.109375 C 159.492188 87.105469 159.496094 87.101562 159.5 87.101562 C 159.527344 87.085938 159.550781 87.066406 159.574219 87.046875 C 159.578125 87.042969 159.582031 87.039062 159.582031 87.039062 C 159.605469 87.015625 159.628906 86.988281 159.644531 86.957031 C 159.652344 86.949219 159.65625 86.941406 159.65625 86.933594 C 159.671875 86.910156 159.679688 86.886719 159.6875 86.859375 " fill-opacity="1" fill-rule="nonzero"/></g></svg>