<svg xmlns="http://www.w3.org/2000/svg" xmlns:xlink="http://www.w3.org/1999/xlink" width="286" zoomAndPan="magnify" viewBox="0 0 214.5 135.000003" height="180" preserveAspectRatio="xMidYMid meet" version="1.0"><defs><clipPath id="3e3913f681"><path d="M 0.539062 0 L 213.464844 0 L 213.464844 134.007812 L 0.539062 134.007812 Z M 0.539062 0 " clip-rule="nonzero"/></clipPath><clipPath id="b166f2c86c"><path d="M 0.539062 97 L 213.464844 97 L 213.464844 134.007812 L 0.539062 134.007812 Z M 0.539062 97 " clip-rule="nonzero"/></clipPath><clipPath id="5b04036523"><path d="M 64 37.4375 L 142.3125 37.4375 L 142.3125 91.164062 L 64 91.164062 Z M 64 37.4375 " clip-rule="nonzero"/></clipPath></defs><g clip-path="url(#3e3913f681)"><path fill="#ffffff" d="M 0.539062 0 L 213.960938 0 L 213.960938 141.78125 L 0.539062 141.78125 Z M 0.539062 0 " fill-opacity="1" fill-rule="nonzero"/><path fill="#ffffff" d="M 0.539062 0 L 213.960938 0 L 213.960938 134.320312 L 0.539062 134.320312 Z M 0.539062 0 " fill-opacity="1" fill-rule="nonzero"/><path fill="#1c2c34" d="M 0.539062 0 L 213.960938 0 L 213.960938 134.320312 L 0.539062 134.320312 Z M 0.539062 0 " fill-opacity="1" fill-rule="nonzero"/></g><g clip-path="url(#b166f2c86c)"><path fill="#ff4500" d="M 56.792969 97.039062 C 56.894531 97.027344 56.996094 97.011719 57.097656 97 C 57.101562 98.1875 57.109375 99.375 57.101562 100.5625 C 57.070312 100.984375 57.21875 101.390625 57.222656 101.808594 C 57.097656 102.386719 57.082031 102.976562 57.136719 103.5625 C 57.605469 103.582031 58.058594 103.699219 58.511719 103.804688 C 58.542969 104.042969 58.566406 104.28125 58.59375 104.519531 C 58.804688 104.621094 59.019531 104.71875 59.230469 104.824219 C 59.328125 106.617188 58.960938 124.53125 59.519531 126.246094 C 59.824219 127.082031 59.632812 127.992188 59.664062 128.859375 C 59.796875 128.859375 59.933594 128.859375 60.066406 128.859375 C 60.128906 127.851562 60.378906 128.898438 60.359375 124.890625 C 60.640625 124.863281 60.921875 124.839844 61.203125 124.8125 C 61.222656 124.621094 61.25 124.433594 61.277344 124.246094 C 61.558594 124.25 61.839844 124.25 62.121094 124.25 C 62.199219 124.605469 62.449219 124.847656 62.804688 124.925781 C 62.835938 125.800781 62.785156 126.675781 62.839844 127.550781 C 62.910156 127.546875 63.050781 127.546875 63.125 127.542969 C 63.121094 125.1875 63.125 122.832031 63.144531 120.476562 C 64.296875 120.429688 65.453125 120.4375 66.605469 120.492188 C 66.648438 122.507812 66.410156 122.4375 67.125 122.863281 C 67.289062 110.390625 66.710938 113.160156 67.96875 112.105469 C 68.050781 111.183594 67.90625 110.253906 68.015625 109.332031 C 68.179688 108.957031 68.429688 108.621094 68.578125 108.230469 C 68.691406 108.445312 68.800781 108.660156 68.914062 108.871094 C 69.542969 108.851562 70.167969 108.863281 70.796875 108.875 C 70.8125 109.054688 70.828125 109.230469 70.84375 109.410156 C 70.933594 109.40625 71.023438 109.40625 71.117188 109.40625 C 71.148438 109.21875 71.179688 109.03125 71.214844 108.84375 C 71.363281 108.84375 71.515625 108.839844 71.671875 108.839844 C 71.738281 110.007812 71.632812 115.597656 71.691406 117.917969 C 71.96875 117.921875 72.246094 117.921875 72.523438 117.914062 C 72.535156 119.824219 72.472656 121.734375 72.550781 123.640625 C 72.882812 123.644531 73.214844 123.640625 73.550781 123.632812 C 73.5625 123.976562 73.574219 124.324219 73.585938 124.667969 C 73.875 124.675781 74.164062 124.679688 74.453125 124.683594 C 74.085938 123.515625 74.4375 124.5625 74.253906 118.921875 C 74.40625 116.480469 74.160156 114.035156 74.3125 111.597656 C 75.902344 111.574219 77.488281 111.589844 79.078125 111.578125 C 79.199219 113.054688 79.03125 114.535156 79.089844 116.011719 C 79.535156 116.0625 79.953125 115.910156 80.382812 115.820312 C 82.277344 116.25 81.828125 115.96875 81.839844 118.089844 C 82.601562 118.066406 83.367188 118.074219 84.128906 118.125 C 84.136719 118.285156 84.144531 118.441406 84.152344 118.597656 C 85.128906 119.246094 84.613281 119.074219 85.632812 119.167969 C 85.648438 123.429688 85.511719 123.550781 85.878906 123.609375 C 85.957031 121.511719 85.859375 119.410156 85.90625 117.308594 C 86.660156 117.214844 87.335938 116.796875 88.089844 116.730469 C 88.945312 116.90625 89.824219 116.851562 90.691406 116.863281 C 90.730469 118.621094 90.667969 120.378906 90.726562 122.132812 C 91.320312 122.035156 90.753906 114.421875 91 112.25 C 91.085938 112.230469 93.230469 111.71875 93.488281 111.550781 C 93.601562 111.34375 93.679688 111.121094 93.777344 110.902344 C 93.890625 111.066406 94.003906 111.226562 94.125 111.386719 C 95.425781 111.269531 96.730469 111.367188 98.035156 111.378906 C 98.109375 114.257812 98.003906 117.144531 98.0625 120.023438 C 98.402344 120.035156 98.746094 120.042969 99.085938 120.0625 C 99.109375 120.261719 99.128906 120.464844 99.148438 120.667969 C 99.941406 120.6875 100.734375 120.691406 101.527344 120.667969 C 101.523438 119.957031 101.480469 119.246094 101.53125 118.535156 C 102.042969 118.546875 102.550781 118.554688 103.0625 118.523438 C 103.070312 117.976562 103.015625 117.421875 103.15625 116.886719 C 103.316406 116.277344 103.292969 115.628906 103.496094 115.027344 C 103.722656 114.609375 103.71875 115.039062 104.601562 112.84375 C 104.816406 112.34375 104.714844 111.78125 104.832031 111.257812 C 104.898438 110.960938 104.953125 110.660156 104.996094 110.359375 C 105.164062 110.578125 105.261719 110.835938 105.238281 111.113281 C 105.152344 112.769531 106.109375 114.078125 106.484375 114.867188 C 106.871094 116.148438 106.808594 115.808594 106.796875 122.738281 C 107.011719 122.738281 107.222656 122.738281 107.441406 122.738281 C 107.46875 120.65625 107.46875 118.570312 107.46875 116.484375 C 107.453125 116.058594 107.660156 115.660156 107.671875 115.234375 C 107.683594 114.824219 107.652344 114.402344 107.773438 114 C 107.964844 113.40625 107.875 112.777344 107.917969 112.164062 C 107.910156 111.90625 108.148438 111.746094 108.273438 111.546875 C 108.566406 111.160156 108.453125 110.609375 108.765625 110.238281 C 109.175781 109.753906 109.113281 109.074219 109.273438 108.492188 C 109.496094 107.78125 109.371094 107.03125 109.386719 106.296875 C 109.40625 106.300781 109.449219 106.300781 109.472656 106.304688 C 109.394531 109.984375 109.722656 108.957031 109.070312 110.023438 C 109.394531 110.085938 109.726562 110.132812 110.058594 110.164062 C 110.148438 110.539062 110.238281 110.914062 110.339844 111.289062 C 110.425781 111.605469 110.785156 111.808594 110.757812 112.164062 C 110.757812 112.519531 110.792969 112.878906 110.910156 113.222656 C 111.867188 113.003906 112.867188 113.039062 113.839844 113.113281 C 114.40625 113.992188 115.191406 114.707031 116.011719 115.347656 C 116.015625 115.394531 116.023438 122.6875 116.023438 122.734375 C 116.433594 122.746094 116.867188 122.664062 117.265625 122.816406 C 117.863281 123.046875 118.519531 122.886719 119.144531 122.945312 C 119.300781 122.738281 119.464844 122.539062 119.640625 122.347656 C 119.910156 122.558594 120.203125 122.777344 120.570312 122.75 C 120.601562 115.613281 120.1875 114.414062 122.066406 114.046875 C 122.0625 113.804688 122.0625 113.5625 122.0625 113.320312 C 122.246094 113.203125 122.425781 113.082031 122.628906 112.996094 C 122.902344 113.253906 122.699219 113.679688 122.832031 113.996094 C 122.914062 114.175781 123.023438 114.339844 123.105469 114.519531 C 123.238281 114.785156 123.257812 115.160156 123.617188 115.199219 C 123.734375 115.050781 123.777344 114.769531 124.015625 114.777344 C 125.679688 114.675781 124.636719 114.90625 126.574219 115.199219 C 126.574219 115.738281 126.574219 116.285156 126.578125 116.824219 C 127.003906 116.859375 127.429688 116.871094 127.859375 116.875 C 127.902344 118.398438 127.851562 119.917969 127.882812 121.441406 C 128.089844 121.523438 128.296875 121.609375 128.507812 121.699219 C 128.558594 122.410156 128.539062 123.128906 128.5625 123.84375 C 128.683594 123.84375 128.804688 123.84375 128.925781 123.84375 C 129.460938 121.523438 129.4375 121.902344 131.929688 121.929688 C 132.074219 121.945312 132.277344 121.921875 132.34375 122.09375 C 132.71875 123.011719 133.171875 123.925781 133.1875 124.941406 C 133.179688 125.304688 133.605469 125.507812 133.574219 125.878906 C 133.578125 128.136719 133.535156 130.398438 133.597656 132.660156 C 133.953125 132.671875 134.3125 132.671875 134.671875 132.660156 C 134.691406 131.675781 134.640625 130.6875 134.695312 129.703125 C 135.105469 129.683594 135.515625 129.679688 135.921875 129.671875 C 135.9375 129.335938 135.953125 129.003906 135.980469 128.667969 C 136.445312 128.671875 136.910156 128.671875 137.375 128.675781 C 137.417969 133.808594 137.238281 133.90625 137.640625 133.945312 C 137.722656 132.367188 137.65625 121.8125 137.660156 121.800781 C 137.925781 121.328125 138.53125 121.527344 138.96875 121.417969 C 140.015625 121.074219 141.066406 121.273438 141.386719 121.488281 C 141.628906 121.625 141.769531 121.878906 141.90625 122.109375 C 142.984375 122.039062 144.058594 122.160156 145.136719 122.140625 C 145.296875 122.691406 145.222656 125.621094 145.222656 125.703125 C 145.914062 125.667969 146.613281 125.703125 147.308594 125.675781 C 147.363281 125.332031 147.421875 124.992188 147.503906 124.652344 C 147.855469 125.074219 147.789062 125.707031 148.1875 126.097656 C 148.730469 126.808594 148.527344 125.667969 148.589844 132.246094 C 149.195312 132.3125 149.730469 131.960938 150.328125 131.972656 C 150.382812 130.332031 150.246094 124.28125 150.320312 121.679688 C 150.9375 121.640625 151.558594 121.671875 152.171875 121.75 C 152.378906 121.492188 152.578125 121.226562 152.765625 120.953125 C 153.144531 121.207031 153.589844 121.3125 154.046875 121.300781 C 154.078125 121.4375 154.113281 121.578125 154.148438 121.714844 C 154.613281 121.722656 155.078125 121.746094 155.546875 121.789062 C 155.597656 122.382812 155.59375 122.976562 155.570312 123.570312 C 156.316406 123.574219 156.964844 124.023438 157.707031 124.074219 C 157.847656 124.273438 158.039062 124.429688 158.261719 124.535156 C 158.371094 125.285156 158.3125 126.046875 158.3125 126.804688 C 159.234375 126.761719 160.152344 126.691406 161.074219 126.75 C 161.125 125.304688 161.039062 118.6875 161.097656 115.351562 C 161.71875 115.324219 162.34375 115.332031 162.96875 115.328125 C 162.960938 114.699219 163.039062 114.074219 163.023438 113.449219 C 163.703125 113.421875 164.382812 113.445312 165.066406 113.433594 C 165.320312 112.570312 165.042969 112.71875 166.105469 112.589844 C 166.125 110.890625 166.046875 109.179688 166.226562 107.484375 C 166.457031 107.976562 166.394531 110.886719 166.40625 112.554688 C 166.78125 112.601562 167.089844 112.816406 167.355469 113.074219 C 167.597656 113.3125 168.007812 113.34375 168.210938 113.59375 C 168.304688 114.277344 168.238281 123.542969 168.253906 133.550781 C 168.679688 133.5625 169.105469 133.5625 169.53125 133.554688 C 169.550781 132.5 169.488281 125.3125 169.585938 124.265625 C 169.941406 124.25 170.296875 124.230469 170.65625 124.199219 C 170.675781 123.582031 170.554688 122.929688 170.816406 122.34375 C 171.421875 122.335938 172.03125 122.332031 172.640625 122.359375 C 172.710938 122.953125 172.699219 123.554688 172.667969 124.15625 C 173.449219 124.664062 173.25 123.824219 173.261719 127.800781 C 173.90625 127.785156 174.554688 127.765625 175.199219 127.816406 C 175.277344 128.570312 175.203125 129.324219 175.222656 130.074219 C 175.5625 130.1875 175.921875 130.238281 176.265625 130.339844 C 176.265625 130.824219 176.234375 131.308594 176.265625 131.792969 C 176.703125 131.800781 177.140625 131.800781 177.574219 131.808594 C 177.566406 131.132812 177.503906 124.09375 177.621094 123.414062 C 178.296875 123.4375 178.980469 123.375 179.652344 123.46875 C 180.199219 123.617188 180.738281 123.804688 181.3125 123.820312 C 181.324219 124.023438 181.332031 124.222656 181.34375 124.425781 C 181.652344 124.417969 181.957031 124.410156 182.265625 124.402344 C 182.265625 124.074219 182.265625 123.746094 182.269531 123.417969 C 182.714844 123.347656 183.167969 123.351562 183.621094 123.394531 C 183.644531 123.542969 183.671875 123.691406 183.703125 123.839844 C 184.121094 123.84375 184.542969 123.84375 184.964844 123.84375 C 184.980469 123.628906 184.996094 123.410156 185.011719 123.195312 C 185.46875 123.195312 185.929688 123.179688 186.386719 123.175781 C 186.386719 123.175781 186.460938 130.265625 186.421875 133.761719 C 186.566406 133.757812 186.71875 133.757812 186.867188 133.753906 C 186.933594 132.363281 186.847656 118.757812 186.882812 118.316406 C 187.371094 118.28125 187.859375 118.289062 188.351562 118.304688 C 188.324219 117.230469 188.3125 110.726562 188.355469 109.875 C 189.199219 109.816406 190.042969 109.855469 190.886719 109.886719 C 190.90625 109.519531 190.890625 109.152344 190.894531 108.789062 C 190.878906 108.515625 191.125 108.3125 191.140625 108.046875 C 191.085938 106.855469 191.101562 105.660156 191.070312 104.46875 C 191.097656 104.140625 190.984375 103.734375 191.261719 103.488281 C 192.414062 102.308594 191.746094 103.003906 191.972656 97.867188 C 192.085938 97.78125 192.203125 97.695312 192.320312 97.609375 C 192.347656 99.300781 192.257812 100.992188 192.328125 102.683594 C 192.277344 103.222656 192.992188 103.414062 192.976562 103.933594 C 192.988281 105.273438 193 106.617188 192.917969 107.957031 C 192.875 108.320312 193.359375 108.441406 193.347656 108.789062 C 193.359375 109.386719 193.308594 109.980469 193.3125 110.582031 C 193.5 110.558594 193.683594 110.539062 193.875 110.519531 C 193.882812 110.125 193.847656 109.730469 193.914062 109.34375 C 194.070312 109.007812 194.476562 108.953125 194.78125 108.8125 C 195.253906 108.660156 195.542969 108.191406 196.9375 108.453125 C 197.992188 108.828125 197.046875 108.117188 197.382812 128.867188 C 198.5 128.859375 199.617188 128.84375 200.734375 128.898438 C 200.773438 130.296875 200.703125 131.699219 200.746094 133.097656 C 200.855469 133.113281 200.964844 133.132812 201.078125 133.148438 C 201.054688 132.4375 201.058594 131.71875 201.058594 131.007812 C 201.136719 131.007812 201.292969 131.011719 201.371094 131.011719 C 201.375 131.777344 201.347656 132.539062 201.375 133.300781 C 202.988281 133.382812 202.128906 133.308594 203.351562 133.019531 C 203.496094 130.710938 203.105469 121.34375 203.605469 121.105469 C 204.066406 121.039062 204.535156 121.070312 204.996094 121.039062 C 205.027344 120.917969 205.058594 120.796875 205.089844 120.675781 C 205.441406 120.648438 205.753906 120.488281 205.984375 120.222656 C 206.121094 120.363281 206.253906 120.5 206.390625 120.640625 C 208.382812 120.5 208.371094 120.796875 209.246094 120.441406 C 209.488281 120.539062 209.738281 120.617188 209.988281 120.691406 C 210.054688 120.816406 210.121094 120.945312 210.210938 121.0625 C 210.472656 121.140625 210.507812 120.8125 210.621094 120.652344 C 210.695312 120.648438 210.777344 120.640625 210.859375 120.636719 C 210.890625 120.761719 210.925781 120.886719 210.964844 121.011719 C 211.15625 121.035156 211.347656 121.058594 211.546875 121.082031 C 211.589844 121.878906 211.574219 128.304688 211.558594 129.28125 C 211.695312 129.28125 211.835938 129.277344 211.984375 129.277344 C 212.042969 128.734375 211.804688 128.050781 212.265625 127.632812 C 212.578125 127.277344 213.125 127.101562 213.234375 126.59375 C 213.28125 126.035156 213.332031 125.441406 213.121094 124.90625 C 213.230469 124.769531 213.351562 124.640625 213.441406 124.488281 C 213.503906 124.132812 213.417969 123.757812 213.535156 123.414062 C 213.789062 123.144531 214.164062 123.054688 214.472656 122.867188 C 214.675781 122.195312 214.347656 121.496094 214.527344 120.816406 C 214.640625 120.347656 214.289062 119.96875 214.140625 119.554688 C 214.242188 119.253906 214.378906 118.917969 214.65625 118.734375 C 215.355469 118.71875 215.15625 118.914062 215.160156 135.800781 L -0.949219 135.800781 L -0.949219 116.867188 C -0.789062 117.007812 -0.632812 117.167969 -0.429688 117.238281 C -0.265625 117.171875 -0.113281 117.074219 0.0390625 116.984375 C 0.148438 117.136719 0.253906 117.292969 0.371094 117.4375 C 0.707031 117.390625 0.910156 117.0625 1.164062 116.867188 C 1.539062 117.277344 2.019531 117.554688 2.503906 117.8125 C 2.636719 118.121094 2.566406 118.480469 2.609375 118.8125 C 2.765625 118.773438 2.941406 118.742188 3.007812 118.574219 C 3.371094 117.890625 3.8125 117.207031 3.808594 116.40625 C 3.847656 116.4375 3.933594 116.5 3.976562 116.53125 C 4.09375 117.296875 4.433594 117.996094 4.808594 118.664062 C 6.464844 121.671875 5.847656 120.277344 6 121.652344 C 6.136719 121.683594 6.273438 121.710938 6.40625 121.738281 C 6.472656 122.519531 6.441406 127.007812 6.429688 127.769531 C 6.609375 127.800781 6.789062 127.828125 6.96875 127.855469 C 7.046875 127.972656 7.074219 128.128906 7.199219 128.207031 C 7.589844 128.238281 7.980469 128.222656 8.371094 128.230469 C 8.378906 127.902344 8.367188 127.578125 8.394531 127.25 C 8.429688 126.898438 8.601562 126.566406 8.605469 126.207031 C 8.640625 125.539062 8.488281 124.832031 8.796875 124.203125 C 8.886719 123.90625 9.195312 123.796875 9.445312 123.671875 C 9.289062 121.578125 10.332031 120.613281 10.667969 120.683594 C 11.253906 120.757812 11.730469 121.195312 12.027344 121.6875 C 12.246094 122.085938 12.640625 122.332031 12.914062 122.6875 C 13.003906 123.089844 12.972656 123.503906 13.019531 123.910156 C 13.476562 123.851562 13.886719 123.574219 14.359375 123.609375 C 15.46875 123.597656 16.582031 123.636719 17.6875 123.566406 C 17.757812 122.773438 17.539062 121.890625 17.96875 121.175781 C 18.125 121.09375 18.296875 121.054688 18.464844 121.003906 C 18.527344 119.242188 18.730469 120.71875 18.746094 118.28125 C 18.878906 118.175781 19.011719 118.074219 19.140625 117.96875 C 19.105469 117.34375 19.507812 116.765625 19.300781 116.144531 L 19.570312 116.144531 C 19.367188 116.765625 19.761719 117.347656 19.726562 117.972656 C 19.855469 118.078125 19.984375 118.179688 20.117188 118.285156 C 20.117188 118.800781 20.035156 119.335938 20.21875 119.832031 C 20.328125 120.136719 20.332031 120.46875 20.429688 120.777344 C 20.574219 121.066406 20.757812 121.34375 20.847656 121.65625 C 21.066406 122.25 20.898438 122.894531 20.996094 123.503906 C 21.28125 124.011719 21.167969 123.808594 23.558594 123.804688 C 23.5625 120.921875 23.53125 118.039062 23.570312 115.160156 C 23.769531 115.140625 23.96875 115.121094 24.167969 115.101562 C 24.1875 114.914062 24.210938 114.730469 24.234375 114.542969 C 24.558594 114.457031 24.882812 114.375 25.214844 114.316406 C 25.257812 114.199219 25.296875 114.082031 25.335938 113.964844 C 25.527344 113.839844 25.808594 113.765625 25.855469 113.511719 C 26.191406 112.351562 26.515625 113.058594 27.242188 113.019531 C 27.925781 113 28.625 113.136719 29.289062 112.90625 C 29.734375 112.765625 29.875 113.335938 29.921875 113.660156 C 30.253906 113.683594 30.589844 113.695312 30.925781 113.695312 C 31.210938 114.050781 31.15625 114.507812 31.148438 114.929688 C 31.359375 114.929688 31.570312 114.929688 31.78125 114.929688 C 31.808594 114.796875 31.839844 114.664062 31.871094 114.53125 C 32.421875 114.5625 32.988281 114.476562 33.53125 114.570312 C 33.828125 114.777344 34.121094 115.003906 34.507812 114.988281 C 34.445312 117.660156 34.441406 128.464844 34.484375 129.722656 C 34.667969 129.746094 34.855469 129.769531 35.042969 129.796875 C 35.101562 129.890625 35.160156 129.984375 35.21875 130.078125 C 35.703125 130.21875 36.1875 130.441406 36.707031 130.339844 C 36.699219 126.570312 36.746094 122.796875 36.703125 119.027344 C 37.050781 118.832031 37.386719 118.617188 37.707031 118.375 C 38.050781 118.664062 38.457031 118.851562 38.839844 119.074219 C 38.921875 119.214844 38.875 124.8125 38.875 124.898438 C 39.453125 124.859375 40.03125 124.878906 40.613281 124.886719 C 40.625 125.242188 40.585938 125.605469 40.652344 125.957031 C 40.773438 126.144531 41.015625 126.273438 41.003906 126.515625 C 41.027344 126.953125 41.003906 127.394531 41.03125 127.832031 C 41.710938 127.859375 42.390625 127.875 43.070312 127.863281 C 43.054688 125.820312 43.082031 123.777344 43.054688 121.730469 C 43.460938 121.722656 43.871094 121.722656 44.28125 121.722656 C 44.308594 121.160156 44.246094 120.597656 44.273438 120.03125 C 44.429688 120.003906 44.585938 119.96875 44.742188 119.9375 C 44.601562 110.320312 44.882812 115.800781 44.988281 111.214844 C 45.792969 110.894531 46.742188 110.859375 47.527344 111.242188 C 47.628906 111.828125 47.546875 112.429688 47.582031 113.019531 C 47.597656 113.308594 47.769531 113.5625 47.792969 113.851562 C 47.828125 114.453125 47.78125 115.054688 47.804688 115.65625 C 47.816406 116.121094 48.042969 116.546875 48.050781 117.011719 C 48.089844 118.011719 48.039062 119.011719 48.066406 120.007812 C 48.222656 120.003906 48.382812 120 48.542969 119.992188 C 48.558594 119.523438 48.566406 119.050781 48.566406 118.582031 C 48.832031 118.566406 49.097656 118.554688 49.367188 118.539062 C 49.382812 118.289062 49.375 118.035156 49.433594 117.792969 C 49.953125 116.785156 49.769531 119.257812 49.796875 108.027344 C 50.109375 107.925781 50.414062 107.78125 50.734375 107.699219 C 50.964844 107.691406 51.1875 107.789062 51.417969 107.773438 C 52.039062 107.679688 52.660156 107.847656 53.285156 107.777344 C 53.308594 107.996094 53.339844 108.214844 53.375 108.429688 C 53.472656 108.289062 53.566406 108.140625 53.652344 107.992188 C 53.980469 107.984375 54.308594 107.984375 54.636719 107.980469 C 54.652344 106.863281 54.546875 105.742188 54.648438 104.621094 C 54.855469 104.539062 55.058594 104.457031 55.269531 104.378906 C 55.300781 104.1875 55.335938 103.996094 55.375 103.804688 C 55.820312 103.714844 56.261719 103.59375 56.703125 103.488281 C 56.8125 101.339844 56.691406 99.1875 56.789062 97.039062 Z M 56.792969 97.039062 " fill-opacity="1" fill-rule="nonzero"/></g><g clip-path="url(#5b04036523)"><path fill="#ffffff" d="M 68.523438 38.898438 C 68.441406 38.746094 68.5 38.558594 68.652344 38.480469 C 68.808594 38.398438 68.996094 38.457031 69.078125 38.609375 C 69.671875 39.730469 70.585938 40.683594 71.679688 41.335938 C 71.828125 40.492188 71.859375 39.628906 71.757812 38.777344 C 71.734375 38.609375 71.859375 38.453125 72.03125 38.433594 C 72.203125 38.410156 72.355469 38.535156 72.378906 38.703125 C 72.496094 39.710938 72.449219 40.738281 72.242188 41.730469 C 72.273438 41.808594 72.273438 41.902344 72.230469 41.984375 C 72.214844 42.019531 72.191406 42.042969 72.164062 42.070312 C 71.875 43.257812 71.359375 44.390625 70.640625 45.382812 C 70.582031 45.46875 70.484375 45.511719 70.386719 45.511719 C 70.324219 45.511719 70.261719 45.492188 70.207031 45.453125 C 70.066406 45.351562 70.035156 45.15625 70.132812 45.019531 C 70.792969 44.109375 71.269531 43.066406 71.542969 41.976562 C 70.273438 41.265625 69.207031 40.183594 68.523438 38.898438 Z M 139.628906 85.351562 C 139.578125 85.46875 139.464844 85.539062 139.34375 85.539062 C 139.300781 85.539062 139.257812 85.53125 139.21875 85.511719 C 138.660156 85.269531 138.125 84.960938 137.625 84.605469 L 136.511719 86.300781 C 136.449219 86.394531 136.351562 86.441406 136.25 86.441406 C 136.191406 86.441406 136.128906 86.425781 136.078125 86.390625 C 135.933594 86.296875 135.890625 86.105469 135.988281 85.960938 L 137.128906 84.222656 C 136.410156 83.625 135.785156 82.917969 135.292969 82.128906 C 135.203125 81.980469 135.25 81.789062 135.394531 81.699219 C 135.542969 81.609375 135.734375 81.652344 135.828125 81.800781 C 136.269531 82.511719 136.832031 83.15625 137.476562 83.699219 L 138.558594 82.054688 C 138.652344 81.910156 138.847656 81.871094 138.992188 81.964844 C 139.136719 82.058594 139.175781 82.25 139.082031 82.394531 L 137.96875 84.085938 C 138.4375 84.421875 138.941406 84.710938 139.46875 84.941406 C 139.628906 85.007812 139.699219 85.191406 139.628906 85.351562 Z M 78.96875 82.667969 C 78.890625 83.007812 78.800781 83.273438 78.628906 83.464844 C 78.492188 83.621094 78.242188 83.730469 78.066406 83.648438 C 77.902344 83.574219 77.789062 83.355469 77.722656 82.976562 C 77.554688 82.054688 77.535156 80.921875 77.894531 80.613281 C 77.921875 80.589844 77.988281 80.53125 78.128906 80.53125 C 78.203125 80.53125 78.296875 80.546875 78.417969 80.585938 C 78.722656 80.691406 78.972656 81.011719 79.054688 81.410156 C 79.144531 81.828125 79.0625 82.28125 78.96875 82.667969 Z M 78.617188 79.996094 C 78.046875 79.804688 77.6875 79.96875 77.488281 80.140625 C 76.769531 80.753906 76.980469 82.40625 77.105469 83.089844 C 77.144531 83.308594 77.265625 83.96875 77.804688 84.214844 C 77.929688 84.273438 78.066406 84.300781 78.203125 84.300781 C 78.523438 84.300781 78.855469 84.152344 79.097656 83.878906 C 79.371094 83.574219 79.492188 83.1875 79.578125 82.8125 C 79.6875 82.355469 79.78125 81.820312 79.667969 81.28125 C 79.539062 80.664062 79.136719 80.171875 78.617188 79.996094 Z M 75.835938 55.90625 L 84.039062 55.90625 C 80.839844 62.203125 78.019531 69.480469 75.835938 75.757812 Z M 86.6875 52.355469 C 90.625 48.4375 94.832031 44.726562 99.214844 41.3125 C 100.148438 41.398438 100.992188 41.640625 101.761719 42.015625 L 86.410156 55.285156 L 85.089844 55.285156 C 85.613281 54.273438 86.148438 53.296875 86.6875 52.355469 Z M 98.453125 41.277344 C 98.550781 41.277344 98.652344 41.28125 98.75 41.285156 C 94.765625 44.402344 90.921875 47.765625 87.300781 51.308594 C 90.832031 45.417969 94.660156 41.277344 98.453125 41.277344 Z M 105.371094 45.375 L 94.144531 55.285156 L 90.984375 55.285156 L 103.421875 43.5625 C 103.484375 43.503906 103.484375 43.40625 103.425781 43.34375 C 103.367188 43.28125 103.269531 43.277344 103.207031 43.335938 L 90.527344 55.285156 L 86.886719 55.285156 L 102.0625 42.171875 C 103.367188 42.886719 104.449219 43.996094 105.371094 45.375 Z M 107.074219 55.285156 L 108.875 53.597656 C 109.046875 54.152344 109.214844 54.71875 109.378906 55.285156 Z M 112.445312 55.90625 L 110.675781 57.5625 C 110.660156 57.507812 110.644531 57.453125 110.628906 57.394531 C 110.488281 56.902344 110.351562 56.40625 110.207031 55.90625 Z M 130.585938 58.390625 L 120.003906 70.152344 C 119.980469 70.179688 119.96875 70.210938 119.96875 70.242188 C 119.546875 70.339844 119.121094 70.394531 118.6875 70.394531 C 118.15625 70.394531 117.660156 70.300781 117.199219 70.125 C 121.59375 65.609375 125.804688 60.828125 129.722656 55.90625 L 131.78125 55.90625 C 131.40625 56.730469 131.003906 57.5625 130.585938 58.390625 Z M 120.460938 70.109375 L 130.015625 59.488281 C 127.398438 64.425781 124.101562 68.953125 120.460938 70.109375 Z M 115 68.433594 L 126.289062 55.90625 L 129.320312 55.90625 C 125.429688 60.785156 121.25 65.519531 116.894531 69.992188 C 116.1875 69.65625 115.5625 69.125 115 68.433594 Z M 125.867188 55.90625 L 114.808594 68.183594 C 114.324219 67.539062 113.882812 66.777344 113.480469 65.921875 L 122.414062 55.90625 Z M 121.996094 55.90625 L 113.339844 65.613281 C 112.960938 64.773438 112.609375 63.859375 112.277344 62.886719 L 118.621094 55.90625 Z M 118.199219 55.90625 L 112.164062 62.546875 C 111.921875 61.816406 111.683594 61.054688 111.453125 60.273438 L 115.363281 55.90625 Z M 112.863281 55.90625 L 114.941406 55.90625 L 111.351562 59.921875 C 111.15625 59.257812 110.964844 58.582031 110.769531 57.902344 L 112.824219 55.976562 C 112.847656 55.957031 112.859375 55.933594 112.863281 55.90625 Z M 108.773438 53.265625 L 106.617188 55.285156 L 104.296875 55.285156 L 108.332031 51.894531 C 108.484375 52.34375 108.632812 52.804688 108.773438 53.265625 Z M 108.226562 51.578125 L 103.890625 55.214844 C 103.871094 55.234375 103.855469 55.257812 103.847656 55.285156 L 100.96875 55.285156 L 107.554688 49.734375 C 107.789062 50.332031 108.011719 50.949219 108.226562 51.578125 Z M 107.433594 49.425781 L 100.484375 55.285156 L 97.800781 55.285156 L 106.761719 47.875 C 106.996094 48.375 107.21875 48.894531 107.433594 49.425781 Z M 106.625 47.582031 L 97.3125 55.285156 L 94.617188 55.285156 L 105.546875 45.640625 C 105.929688 46.242188 106.289062 46.894531 106.625 47.582031 Z M 142.238281 78.515625 C 142.242188 78.507812 142.246094 78.503906 142.246094 78.496094 C 142.253906 78.472656 142.257812 78.449219 142.257812 78.421875 C 142.257812 78.421875 142.257812 78.417969 142.257812 78.417969 C 142.257812 78.394531 142.253906 78.371094 142.246094 78.347656 C 142.246094 78.339844 142.242188 78.332031 142.238281 78.324219 C 142.234375 78.308594 142.226562 78.289062 142.21875 78.273438 C 142.214844 78.269531 142.210938 78.261719 142.207031 78.257812 C 142.195312 78.234375 142.179688 78.214844 142.164062 78.199219 C 142.160156 78.199219 142.160156 78.195312 142.15625 78.195312 C 142.140625 78.179688 142.121094 78.164062 142.101562 78.152344 C 142.097656 78.152344 142.097656 78.148438 142.09375 78.148438 L 138.863281 76.378906 C 138.714844 76.296875 138.523438 76.351562 138.441406 76.503906 C 138.355469 76.652344 138.414062 76.84375 138.5625 76.925781 L 140.726562 78.109375 L 75.835938 78.109375 L 75.835938 77.785156 C 78.132812 71.054688 81.238281 62.839844 84.769531 55.90625 L 109.558594 55.90625 C 109.714844 56.457031 109.871094 57.011719 110.027344 57.5625 C 111.976562 64.480469 113.816406 71.015625 118.6875 71.015625 C 124.363281 71.015625 129.246094 63.078125 132.503906 55.90625 L 137.902344 55.90625 C 138.078125 55.90625 138.214844 55.765625 138.214844 55.59375 C 138.214844 55.421875 138.078125 55.285156 137.902344 55.285156 L 132.78125 55.285156 C 134.332031 51.792969 135.484375 48.550781 136.136719 46.574219 L 136.136719 48.09375 C 136.136719 48.265625 136.277344 48.40625 136.449219 48.40625 C 136.625 48.40625 136.765625 48.265625 136.765625 48.09375 L 136.765625 44.554688 C 136.765625 44.554688 136.761719 44.550781 136.761719 44.546875 C 136.761719 44.519531 136.757812 44.488281 136.75 44.464844 C 136.75 44.464844 136.75 44.460938 136.75 44.460938 C 136.742188 44.4375 136.726562 44.410156 136.710938 44.386719 C 136.710938 44.382812 136.707031 44.378906 136.703125 44.371094 C 136.6875 44.351562 136.667969 44.332031 136.644531 44.3125 C 136.644531 44.3125 136.640625 44.308594 136.636719 44.308594 C 136.617188 44.292969 136.59375 44.28125 136.570312 44.269531 C 136.566406 44.269531 136.566406 44.265625 136.5625 44.265625 C 136.558594 44.265625 136.554688 44.265625 136.550781 44.261719 C 136.546875 44.261719 136.542969 44.257812 136.539062 44.257812 C 136.515625 44.25 136.492188 44.25 136.472656 44.246094 C 136.464844 44.246094 136.460938 44.246094 136.457031 44.246094 C 136.433594 44.246094 136.410156 44.25 136.386719 44.253906 C 136.378906 44.253906 136.375 44.253906 136.367188 44.257812 C 136.339844 44.265625 136.316406 44.273438 136.292969 44.289062 C 136.289062 44.292969 136.285156 44.296875 136.277344 44.300781 C 136.257812 44.3125 136.238281 44.328125 136.222656 44.34375 C 136.21875 44.347656 136.21875 44.351562 136.214844 44.351562 L 134.0625 46.816406 C 133.949219 46.945312 133.960938 47.144531 134.09375 47.257812 C 134.222656 47.367188 134.421875 47.355469 134.535156 47.226562 L 135.695312 45.894531 C 135.066406 47.808594 133.800781 51.414062 132.066406 55.285156 L 110.027344 55.285156 C 107.933594 48.035156 105.25 40.65625 98.453125 40.65625 C 93.511719 40.65625 88.613281 47.054688 84.355469 55.285156 L 75.835938 55.285156 L 75.835938 38.960938 L 77.03125 41.117188 C 77.113281 41.269531 77.304688 41.320312 77.457031 41.238281 C 77.605469 41.15625 77.660156 40.96875 77.578125 40.816406 L 75.796875 37.601562 C 75.796875 37.597656 75.792969 37.597656 75.789062 37.59375 C 75.78125 37.574219 75.765625 37.554688 75.75 37.539062 C 75.75 37.535156 75.746094 37.535156 75.746094 37.535156 C 75.726562 37.515625 75.707031 37.5 75.6875 37.488281 C 75.683594 37.484375 75.675781 37.480469 75.671875 37.480469 C 75.65625 37.46875 75.636719 37.460938 75.617188 37.457031 C 75.609375 37.453125 75.605469 37.453125 75.597656 37.449219 C 75.574219 37.445312 75.550781 37.441406 75.523438 37.441406 C 75.496094 37.441406 75.472656 37.445312 75.449219 37.449219 C 75.441406 37.453125 75.433594 37.453125 75.425781 37.457031 C 75.410156 37.460938 75.390625 37.46875 75.375 37.480469 C 75.371094 37.480469 75.363281 37.484375 75.359375 37.488281 C 75.335938 37.5 75.316406 37.515625 75.300781 37.535156 C 75.296875 37.535156 75.296875 37.535156 75.296875 37.539062 C 75.28125 37.554688 75.265625 37.574219 75.253906 37.59375 C 75.253906 37.597656 75.25 37.597656 75.25 37.601562 L 73.472656 40.816406 C 73.390625 40.96875 73.445312 41.15625 73.597656 41.238281 C 73.644531 41.265625 73.695312 41.277344 73.746094 41.277344 C 73.855469 41.277344 73.964844 41.21875 74.019531 41.117188 L 75.210938 38.964844 L 75.210938 77.578125 C 75.152344 77.757812 75.089844 77.933594 75.03125 78.109375 L 64.328125 78.109375 C 64.15625 78.109375 64.015625 78.25 64.015625 78.421875 C 64.015625 78.59375 64.15625 78.730469 64.328125 78.730469 L 74.824219 78.730469 C 72.648438 85.246094 71.300781 90.148438 71.132812 90.769531 C 71.085938 90.9375 71.183594 91.109375 71.351562 91.152344 C 71.378906 91.160156 71.40625 91.164062 71.433594 91.164062 C 71.570312 91.164062 71.695312 91.074219 71.734375 90.933594 C 71.777344 90.78125 73.066406 86.089844 75.210938 79.644531 L 75.210938 89.835938 C 75.210938 90.007812 75.351562 90.144531 75.523438 90.144531 C 75.695312 90.144531 75.835938 90.007812 75.835938 89.835938 L 75.835938 78.730469 L 140.730469 78.730469 L 138.5625 79.921875 C 138.410156 80.003906 138.355469 80.195312 138.441406 80.34375 C 138.496094 80.449219 138.605469 80.503906 138.714844 80.503906 C 138.765625 80.503906 138.816406 80.492188 138.863281 80.46875 L 142.09375 78.695312 C 142.097656 78.691406 142.101562 78.691406 142.101562 78.6875 C 142.121094 78.675781 142.140625 78.664062 142.15625 78.648438 C 142.160156 78.644531 142.160156 78.644531 142.164062 78.644531 C 142.179688 78.625 142.195312 78.605469 142.207031 78.585938 C 142.210938 78.578125 142.214844 78.574219 142.21875 78.570312 C 142.226562 78.550781 142.234375 78.535156 142.238281 78.515625 " fill-opacity="1" fill-rule="nonzero"/></g></svg>