<svg xmlns="http://www.w3.org/2000/svg" xmlns:xlink="http://www.w3.org/1999/xlink" width="300" zoomAndPan="magnify" viewBox="0 0 224.87999 225" height="300" preserveAspectRatio="xMidYMid meet" version="1.0"><defs><clipPath id="1c7c8ca31f"><path d="M 35 44.929688 L 202.390625 44.929688 L 202.390625 179 L 35 179 Z M 35 44.929688 " clip-rule="nonzero"/></clipPath><clipPath id="dbfbacc5f0"><path d="M 22.488281 115 L 28 115 L 28 125 L 22.488281 125 Z M 22.488281 115 " clip-rule="nonzero"/></clipPath><clipPath id="ec5176a26c"><path d="M 100 171 L 107 171 L 107 179.855469 L 100 179.855469 Z M 100 171 " clip-rule="nonzero"/></clipPath><clipPath id="b621aa51cd"><path d="M 107 171 L 113 171 L 113 179.855469 L 107 179.855469 Z M 107 171 " clip-rule="nonzero"/></clipPath><clipPath id="a36076786c"><path d="M 114 171 L 120 171 L 120 179.855469 L 114 179.855469 Z M 114 171 " clip-rule="nonzero"/></clipPath><clipPath id="58a9f50b21"><path d="M 175 171 L 182 171 L 182 179.855469 L 175 179.855469 Z M 175 171 " clip-rule="nonzero"/></clipPath><clipPath id="d0373b27d2"><path d="M 182 171 L 189 171 L 189 179.855469 L 182 179.855469 Z M 182 171 " clip-rule="nonzero"/></clipPath></defs><path fill="#4a4d51" d="M 41.722656 144.847656 L 45.160156 154.410156 L 48.59375 144.847656 L 45.703125 144.847656 L 45.703125 100.425781 L 48.59375 100.425781 L 45.160156 90.863281 L 41.722656 100.425781 L 44.617188 100.425781 L 44.617188 144.847656 L 41.722656 144.847656 " fill-opacity="1" fill-rule="nonzero"/><path fill="#4a4d51" d="M 58.421875 78.917969 L 92.964844 54.234375 L 94.59375 56.5 L 100.390625 48.144531 L 90.59375 50.929688 L 92.332031 53.355469 L 57.796875 78.039062 L 56.109375 75.691406 L 50.320312 84.046875 L 60.109375 81.261719 L 58.421875 78.917969 " fill-opacity="1" fill-rule="nonzero"/><g clip-path="url(#1c7c8ca31f)"><path fill="#4a4d51" d="M 172.738281 167.582031 L 172.738281 164.699219 L 163.695312 167.933594 L 163.695312 155.890625 L 201.3125 155.890625 L 201.3125 167.582031 L 200.34375 167.582031 L 192.265625 164.699219 L 192.265625 167.582031 Z M 144.535156 124.539062 L 133.441406 124.539062 L 133.441406 113.476562 L 144.535156 113.476562 Z M 144.535156 137.449219 L 133.441406 137.449219 L 133.441406 126.386719 L 144.535156 126.386719 Z M 131.589844 137.449219 L 120.496094 137.449219 L 120.496094 113.476562 L 131.589844 113.476562 Z M 201.855469 155.890625 L 201.648438 130.074219 L 197.949219 126.386719 L 194.25 130.074219 L 190.550781 126.386719 L 186.855469 130.074219 L 183.15625 126.386719 L 179.457031 130.074219 L 175.761719 126.386719 L 172.0625 130.074219 L 168.363281 126.386719 L 165.078125 129.664062 L 165.078125 89.5 C 156.304688 83.894531 147.484375 78.347656 138.746094 72.6875 C 132.832031 68.855469 126.996094 64.921875 121.132812 61.023438 C 118.195312 59.074219 112.65625 55.394531 111.484375 54.613281 L 111.566406 54.503906 L 97.890625 44.960938 L 97.269531 45.851562 L 110.402344 55.015625 L 57.425781 89.5 L 57.714844 89.046875 L 43.5 79.957031 L 42.914062 80.867188 L 55.570312 88.960938 L 35.074219 88.960938 L 35.074219 90.042969 L 57.425781 90.042969 L 57.425781 155.351562 L 35.074219 155.351562 L 35.074219 156.433594 L 56.878906 156.433594 L 56.878906 178.179688 L 57.964844 178.179688 L 57.964844 155.890625 L 74.269531 155.890625 L 74.269531 113.476562 L 96.460938 113.476562 L 96.460938 155.890625 L 162.613281 155.890625 L 162.613281 167.933594 L 153.5625 164.699219 L 153.5625 167.582031 L 68.375 167.582031 L 68.375 164.699219 L 58.789062 168.125 L 68.375 171.550781 L 68.375 168.664062 L 153.5625 168.664062 L 153.5625 171.550781 L 162.613281 168.320312 L 162.613281 178.179688 L 163.695312 178.179688 L 163.695312 168.320312 L 172.738281 171.550781 L 172.738281 168.664062 L 192.265625 168.664062 L 192.265625 171.550781 L 200.34375 168.664062 L 201.3125 168.664062 L 201.3125 178.179688 L 202.394531 178.179688 L 202.394531 155.890625 L 201.855469 155.890625 " fill-opacity="1" fill-rule="nonzero"/></g><g clip-path="url(#dbfbacc5f0)"><path fill="#4a4d51" d="M 24.085938 123.484375 L 24.765625 122.859375 C 26.546875 121.152344 27.675781 119.894531 27.675781 118.335938 C 27.675781 117.132812 26.910156 115.886719 25.089844 115.886719 C 24.113281 115.886719 23.285156 116.25 22.699219 116.742188 L 23.058594 117.546875 C 23.453125 117.222656 24.085938 116.835938 24.855469 116.835938 C 26.117188 116.835938 26.535156 117.625 26.535156 118.480469 C 26.515625 119.75 25.546875 120.84375 23.386719 122.890625 L 22.492188 123.757812 L 22.492188 124.457031 L 27.886719 124.457031 L 27.886719 123.507812 L 24.085938 123.507812 L 24.085938 123.484375 " fill-opacity="1" fill-rule="nonzero"/></g><path fill="#4a4d51" d="M 30.761719 123.484375 L 31.4375 122.859375 C 33.21875 121.152344 34.347656 119.894531 34.347656 118.335938 C 34.347656 117.132812 33.582031 115.886719 31.761719 115.886719 C 30.789062 115.886719 29.957031 116.25 29.367188 116.742188 L 29.734375 117.546875 C 30.125 117.222656 30.761719 116.835938 31.527344 116.835938 C 32.789062 116.835938 33.207031 117.625 33.207031 118.480469 C 33.191406 119.75 32.214844 120.84375 30.054688 122.890625 L 29.160156 123.757812 L 29.160156 124.457031 L 34.558594 124.457031 L 34.558594 123.507812 L 30.761719 123.507812 L 30.761719 123.484375 " fill-opacity="1" fill-rule="nonzero"/><path fill="#4a4d51" d="M 36.859375 120.28125 C 36.859375 117.992188 37.589844 116.765625 38.589844 116.765625 C 39.773438 116.765625 40.304688 118.132812 40.304688 120.207031 C 40.304688 122.355469 39.746094 123.71875 38.578125 123.71875 C 37.535156 123.71875 36.859375 122.476562 36.859375 120.28125 Z M 41.449219 120.15625 C 41.449219 117.46875 40.433594 115.886719 38.652344 115.886719 C 36.9375 115.886719 35.71875 117.445312 35.71875 120.269531 C 35.742188 123.058594 36.859375 124.597656 38.507812 124.597656 C 40.382812 124.597656 41.449219 123.015625 41.449219 120.15625 " fill-opacity="1" fill-rule="nonzero"/><path fill="#4a4d51" d="M 62.285156 63.515625 L 62.308594 63.496094 L 66.421875 69.613281 L 67.34375 69 L 62.632812 62 L 61.820312 62.542969 L 60.839844 64.386719 L 61.507812 64.984375 L 62.285156 63.515625 " fill-opacity="1" fill-rule="nonzero"/><path fill="#4a4d51" d="M 68.742188 59.230469 L 68.773438 59.214844 C 69 59.59375 69.238281 59.96875 69.480469 60.332031 L 71.058594 62.667969 L 68.757812 64.207031 L 68.742188 64.183594 L 68.859375 60.65625 C 68.832031 60.207031 68.804688 59.789062 68.742188 59.230469 Z M 71.554688 63.414062 L 72.839844 65.316406 L 73.734375 64.714844 L 72.453125 62.8125 L 73.433594 62.152344 L 72.933594 61.410156 L 71.953125 62.066406 L 69.027344 57.71875 L 67.996094 58.402344 L 67.875 64.972656 L 68.296875 65.59375 L 71.554688 63.414062 " fill-opacity="1" fill-rule="nonzero"/><path fill="#4a4d51" d="M 73.429688 55.65625 C 74.414062 55 75.617188 55.832031 76.777344 57.554688 C 77.976562 59.339844 78.277344 60.785156 77.304688 61.433594 C 76.441406 62.007812 75.183594 61.351562 73.960938 59.535156 C 72.675781 57.632812 72.601562 56.214844 73.429688 55.65625 Z M 77.742188 62.203125 C 79.296875 61.160156 79.296875 59.253906 77.699219 56.875 C 76.199219 54.648438 74.46875 53.898438 72.992188 54.890625 C 71.566406 55.839844 71.425781 57.816406 73 60.160156 C 74.582031 62.460938 76.375 63.117188 77.742188 62.203125 " fill-opacity="1" fill-rule="nonzero"/><g clip-path="url(#ec5176a26c)"><path fill="#4a4d51" d="M 104.167969 175.132812 L 104.167969 175.101562 C 105.210938 174.730469 105.726562 173.988281 105.726562 173.121094 C 105.726562 172.09375 104.972656 171.109375 103.308594 171.109375 C 102.402344 171.109375 101.542969 171.429688 101.101562 171.757812 L 101.402344 172.585938 C 101.765625 172.328125 102.414062 172.027344 103.089844 172.027344 C 104.144531 172.027344 104.570312 172.625 104.570312 173.296875 C 104.570312 174.296875 103.519531 174.730469 102.691406 174.730469 L 102.050781 174.730469 L 102.050781 175.582031 L 102.691406 175.582031 C 103.789062 175.582031 104.855469 176.085938 104.871094 177.265625 C 104.886719 177.96875 104.425781 178.902344 102.960938 178.902344 C 102.167969 178.902344 101.410156 178.578125 101.085938 178.367188 L 100.777344 179.253906 C 101.195312 179.527344 102.027344 179.824219 102.972656 179.824219 C 105 179.824219 106.050781 178.644531 106.050781 177.292969 C 106.050781 176.113281 105.210938 175.335938 104.167969 175.132812 " fill-opacity="1" fill-rule="nonzero"/></g><g clip-path="url(#b621aa51cd)"><path fill="#4a4d51" d="M 107.640625 172.199219 L 111.777344 172.199219 L 111.777344 172.226562 L 108.109375 179.679688 L 109.292969 179.679688 L 112.972656 172.003906 L 112.972656 171.253906 L 107.640625 171.253906 L 107.640625 172.199219 " fill-opacity="1" fill-rule="nonzero"/></g><g clip-path="url(#a36076786c)"><path fill="#4a4d51" d="M 116.902344 178.941406 C 115.859375 178.941406 115.1875 177.695312 115.1875 175.503906 C 115.1875 173.210938 115.914062 171.992188 116.914062 171.992188 C 118.097656 171.992188 118.628906 173.351562 118.628906 175.429688 C 118.628906 177.578125 118.070312 178.941406 116.902344 178.941406 Z M 116.980469 171.109375 C 115.265625 171.109375 114.039062 172.664062 114.039062 175.492188 C 114.070312 178.277344 115.1875 179.824219 116.835938 179.824219 C 118.710938 179.824219 119.773438 178.238281 119.773438 175.375 C 119.773438 172.6875 118.761719 171.109375 116.980469 171.109375 " fill-opacity="1" fill-rule="nonzero"/></g><g clip-path="url(#58a9f50b21)"><path fill="#4a4d51" d="M 178.585938 178.941406 C 177.390625 178.941406 176.753906 177.917969 176.726562 176.53125 C 176.726562 176.320312 176.78125 176.152344 176.859375 176.023438 C 177.171875 175.414062 177.808594 174.984375 178.496094 174.984375 C 179.550781 174.984375 180.238281 175.710938 180.238281 176.917969 C 180.238281 178.121094 179.574219 178.941406 178.585938 178.941406 Z M 178.847656 174.128906 C 177.910156 174.128906 177.207031 174.570312 176.808594 175.101562 L 176.769531 175.101562 C 176.960938 173.714844 177.910156 172.402344 179.703125 172.109375 C 180.03125 172.054688 180.332031 172.042969 180.5625 172.054688 L 180.5625 171.121094 C 180.355469 171.121094 180.070312 171.136719 179.730469 171.1875 C 178.667969 171.316406 177.726562 171.746094 177.03125 172.433594 C 176.195312 173.261719 175.597656 174.570312 175.597656 176.234375 C 175.597656 178.421875 176.78125 179.824219 178.585938 179.824219 C 180.34375 179.824219 181.394531 178.394531 181.394531 176.855469 C 181.394531 175.207031 180.34375 174.128906 178.847656 174.128906 " fill-opacity="1" fill-rule="nonzero"/></g><g clip-path="url(#d0373b27d2)"><path fill="#4a4d51" d="M 185.152344 178.941406 C 184.113281 178.941406 183.4375 177.695312 183.4375 175.503906 C 183.4375 173.210938 184.167969 171.992188 185.167969 171.992188 C 186.351562 171.992188 186.882812 173.351562 186.882812 175.429688 C 186.882812 177.578125 186.324219 178.941406 185.152344 178.941406 Z M 185.230469 171.109375 C 183.515625 171.109375 182.292969 172.664062 182.292969 175.492188 C 182.320312 178.277344 183.4375 179.824219 185.089844 179.824219 C 186.960938 179.824219 188.027344 178.238281 188.027344 175.375 C 188.027344 172.6875 187.015625 171.109375 185.230469 171.109375 " fill-opacity="1" fill-rule="nonzero"/></g></svg>