<svg xmlns="http://www.w3.org/2000/svg" xmlns:xlink="http://www.w3.org/1999/xlink" width="40" zoomAndPan="magnify" viewBox="0 0 30 30.000001" height="40" preserveAspectRatio="xMidYMid meet" version="1.0"><defs><clipPath id="d215c13560"><path d="M 3.742188 3.257812 L 26.242188 3.257812 L 26.242188 25.757812 L 3.742188 25.757812 Z M 3.742188 3.257812 " clip-rule="nonzero"/></clipPath></defs><g clip-path="url(#d215c13560)"><path fill="#545454" d="M 14.996094 3.257812 C 21.210938 3.257812 26.246094 8.296875 26.246094 14.511719 C 26.246094 20.722656 21.207031 25.761719 14.996094 25.761719 C 8.78125 25.761719 3.742188 20.722656 3.742188 14.511719 C 3.742188 8.296875 8.78125 3.257812 14.996094 3.257812 Z M 15.851562 7.40625 C 16.910156 7.40625 17.769531 8.265625 17.769531 9.320312 C 17.769531 10.378906 16.910156 11.238281 15.851562 11.238281 C 14.796875 11.238281 13.9375 10.378906 13.9375 9.320312 C 13.9375 8.265625 14.796875 7.40625 15.851562 7.40625 Z M 12.605469 12.304688 C 12.605469 12.304688 15.972656 12.304688 16.605469 12.304688 C 17.238281 12.304688 17.417969 12.847656 17.296875 13.261719 C 17.179688 13.679688 16.050781 19.65625 16.445312 20.328125 C 16.84375 21 17.761719 19.886719 18.078125 19.867188 C 18.394531 19.847656 18.632812 20.136719 18.460938 20.597656 C 18.289062 21.058594 17.277344 22.078125 15.152344 22.078125 C 13.027344 22.078125 12.300781 20.308594 12.65625 18.484375 C 13.011719 16.664062 13.496094 14.40625 13.523438 14.09375 C 13.546875 13.785156 13.503906 13.382812 12.996094 13.382812 C 12.8125 13.386719 12.636719 13.378906 12.480469 13.351562 C 11.746094 13.214844 11.941406 12.285156 12.605469 12.304688 Z M 12.605469 12.304688 " fill-opacity="1" fill-rule="evenodd"/></g></svg>