<svg xmlns="http://www.w3.org/2000/svg" xmlns:xlink="http://www.w3.org/1999/xlink" width="286" zoomAndPan="magnify" viewBox="0 0 214.5 135.000003" height="180" preserveAspectRatio="xMidYMid meet" version="1.0"><defs><clipPath id="2dad45b77c"><path d="M 0.539062 0 L 213.464844 0 L 213.464844 134.007812 L 0.539062 134.007812 Z M 0.539062 0 " clip-rule="nonzero"/></clipPath><clipPath id="07881757b0"><path d="M 122 23.726562 L 149.664062 23.726562 L 149.664062 110.289062 L 122 110.289062 Z M 122 23.726562 " clip-rule="nonzero"/></clipPath><clipPath id="788f5fc044"><path d="M 59.371094 23.726562 L 87 23.726562 L 87 110.289062 L 59.371094 110.289062 Z M 59.371094 23.726562 " clip-rule="nonzero"/></clipPath><clipPath id="0ad60585e4"><path d="M 203.683594 118.273438 L 209.101562 118.273438 L 209.101562 123.839844 L 203.683594 123.839844 Z M 203.683594 118.273438 " clip-rule="nonzero"/></clipPath><clipPath id="0346014c97"><path d="M 197.160156 119 L 203 119 L 203 123 L 197.160156 123 Z M 197.160156 119 " clip-rule="nonzero"/></clipPath><clipPath id="5dc0b89267"><path d="M 197.160156 125 L 203 125 L 203 130.957031 L 197.160156 130.957031 Z M 197.160156 125 " clip-rule="nonzero"/></clipPath><clipPath id="b98ad72520"><path d="M 203.683594 126.910156 L 209.101562 126.910156 L 209.101562 129.191406 L 203.683594 129.191406 Z M 203.683594 126.910156 " clip-rule="nonzero"/></clipPath><clipPath id="f020a1af41"><path d="M 205.519531 129.121094 L 207.3125 129.121094 L 207.3125 130.957031 L 205.519531 130.957031 Z M 205.519531 129.121094 " clip-rule="nonzero"/></clipPath></defs><g clip-path="url(#2dad45b77c)"><path fill="#ffffff" d="M 0.539062 0 L 213.960938 0 L 213.960938 141.78125 L 0.539062 141.78125 Z M 0.539062 0 " fill-opacity="1" fill-rule="nonzero"/><path fill="#ffffff" d="M 0.539062 0 L 213.960938 0 L 213.960938 134.320312 L 0.539062 134.320312 Z M 0.539062 0 " fill-opacity="1" fill-rule="nonzero"/><path fill="#f5c05d" d="M 0.539062 0 L 213.960938 0 L 213.960938 134.320312 L 0.539062 134.320312 Z M 0.539062 0 " fill-opacity="1" fill-rule="nonzero"/></g><g clip-path="url(#07881757b0)"><path fill="#ffffff" d="M 147.414062 63.832031 L 141.425781 60.847656 L 141.425781 33.699219 C 141.421875 33.042969 141.355469 32.390625 141.226562 31.746094 C 141.097656 31.101562 140.90625 30.476562 140.652344 29.871094 C 140.398438 29.261719 140.085938 28.6875 139.71875 28.140625 C 139.351562 27.59375 138.933594 27.089844 138.464844 26.625 C 137.996094 26.160156 137.488281 25.746094 136.941406 25.378906 C 136.390625 25.015625 135.808594 24.707031 135.199219 24.457031 C 134.589844 24.203125 133.960938 24.015625 133.3125 23.886719 C 132.664062 23.757812 132.007812 23.691406 131.347656 23.691406 L 125.3125 23.691406 C 125.003906 23.695312 124.703125 23.757812 124.417969 23.878906 C 124.132812 24 123.882812 24.171875 123.664062 24.390625 C 123.449219 24.609375 123.28125 24.863281 123.164062 25.148438 C 123.042969 25.433594 122.984375 25.730469 122.984375 26.039062 C 122.984375 26.347656 123.042969 26.644531 123.164062 26.929688 C 123.28125 27.214844 123.449219 27.464844 123.664062 27.683594 C 123.882812 27.90625 124.132812 28.074219 124.421875 28.195312 C 124.707031 28.316406 125.003906 28.378906 125.3125 28.382812 L 131.347656 28.382812 C 131.699219 28.382812 132.046875 28.417969 132.390625 28.484375 C 132.738281 28.554688 133.070312 28.65625 133.394531 28.789062 C 133.71875 28.921875 134.027344 29.085938 134.320312 29.28125 C 134.613281 29.472656 134.882812 29.695312 135.132812 29.941406 C 135.382812 30.1875 135.601562 30.457031 135.800781 30.746094 C 135.996094 31.035156 136.160156 31.34375 136.296875 31.664062 C 136.429688 31.988281 136.53125 32.320312 136.601562 32.664062 C 136.671875 33.003906 136.707031 33.351562 136.707031 33.699219 L 136.707031 62.300781 C 136.703125 62.746094 136.816406 63.15625 137.050781 63.535156 C 137.28125 63.910156 137.597656 64.199219 137.996094 64.398438 L 143.074219 66.929688 L 137.996094 69.449219 C 137.601562 69.648438 137.285156 69.933594 137.054688 70.3125 C 136.820312 70.691406 136.707031 71.101562 136.707031 71.542969 L 136.707031 100.144531 C 136.707031 100.496094 136.671875 100.839844 136.605469 101.183594 C 136.535156 101.527344 136.433594 101.859375 136.296875 102.179688 C 136.164062 102.503906 135.996094 102.8125 135.800781 103.101562 C 135.605469 103.390625 135.382812 103.660156 135.136719 103.90625 C 134.886719 104.152344 134.617188 104.375 134.324219 104.566406 C 134.03125 104.761719 133.722656 104.925781 133.398438 105.058594 C 133.074219 105.191406 132.738281 105.292969 132.394531 105.359375 C 132.046875 105.429688 131.699219 105.460938 131.347656 105.460938 L 125.3125 105.460938 C 125.003906 105.464844 124.703125 105.527344 124.417969 105.648438 C 124.132812 105.769531 123.882812 105.9375 123.664062 106.160156 C 123.445312 106.378906 123.277344 106.628906 123.160156 106.917969 C 123.042969 107.203125 122.984375 107.5 122.984375 107.808594 C 122.984375 108.117188 123.042969 108.414062 123.160156 108.699219 C 123.277344 108.984375 123.445312 109.234375 123.664062 109.457031 C 123.882812 109.675781 124.132812 109.84375 124.417969 109.964844 C 124.703125 110.085938 125.003906 110.148438 125.3125 110.152344 L 131.347656 110.152344 C 132.007812 110.152344 132.664062 110.085938 133.3125 109.960938 C 133.960938 109.832031 134.589844 109.640625 135.199219 109.390625 C 135.808594 109.136719 136.390625 108.828125 136.941406 108.464844 C 137.488281 108.101562 137.996094 107.683594 138.464844 107.21875 C 138.933594 106.757812 139.351562 106.25 139.71875 105.703125 C 140.085938 105.160156 140.398438 104.582031 140.652344 103.976562 C 140.90625 103.367188 141.097656 102.742188 141.226562 102.097656 C 141.355469 101.453125 141.421875 100.800781 141.425781 100.144531 L 141.425781 72.996094 L 147.414062 70.011719 C 147.992188 69.710938 148.453125 69.285156 148.792969 68.730469 C 149.132812 68.175781 149.304688 67.574219 149.304688 66.921875 C 149.304688 66.273438 149.132812 65.667969 148.792969 65.113281 C 148.453125 64.558594 147.992188 64.132812 147.414062 63.832031 Z M 147.414062 63.832031 " fill-opacity="1" fill-rule="nonzero"/></g><g clip-path="url(#788f5fc044)"><path fill="#ffffff" d="M 83.753906 105.632812 L 77.714844 105.632812 C 77.363281 105.632812 77.015625 105.597656 76.671875 105.53125 C 76.328125 105.460938 75.992188 105.363281 75.667969 105.226562 C 75.34375 105.09375 75.035156 104.929688 74.742188 104.738281 C 74.453125 104.542969 74.179688 104.324219 73.933594 104.078125 C 73.683594 103.828125 73.460938 103.5625 73.265625 103.269531 C 73.070312 102.980469 72.90625 102.675781 72.769531 102.351562 C 72.632812 102.03125 72.53125 101.695312 72.460938 101.355469 C 72.394531 101.011719 72.355469 100.667969 72.355469 100.316406 L 72.355469 71.714844 C 72.359375 71.273438 72.246094 70.863281 72.015625 70.484375 C 71.78125 70.105469 71.464844 69.816406 71.066406 69.621094 L 65.988281 67.085938 L 71.066406 64.570312 C 71.464844 64.371094 71.78125 64.082031 72.011719 63.703125 C 72.242188 63.328125 72.359375 62.917969 72.355469 62.472656 L 72.355469 33.871094 C 72.355469 33.523438 72.390625 33.175781 72.460938 32.832031 C 72.53125 32.492188 72.632812 32.15625 72.765625 31.835938 C 72.902344 31.511719 73.066406 31.207031 73.261719 30.914062 C 73.457031 30.625 73.679688 30.355469 73.929688 30.109375 C 74.179688 29.863281 74.449219 29.640625 74.742188 29.449219 C 75.035156 29.253906 75.34375 29.089844 75.667969 28.957031 C 75.992188 28.824219 76.328125 28.722656 76.671875 28.65625 C 77.015625 28.589844 77.363281 28.554688 77.714844 28.554688 L 83.753906 28.554688 C 84.066406 28.554688 84.367188 28.496094 84.652344 28.375 C 84.941406 28.257812 85.199219 28.085938 85.417969 27.867188 C 85.640625 27.648438 85.808594 27.394531 85.929688 27.105469 C 86.050781 26.820312 86.109375 26.519531 86.109375 26.210938 C 86.109375 25.898438 86.050781 25.597656 85.929688 25.3125 C 85.808594 25.023438 85.640625 24.769531 85.417969 24.550781 C 85.199219 24.332031 84.941406 24.160156 84.652344 24.042969 C 84.367188 23.921875 84.066406 23.863281 83.753906 23.863281 L 77.714844 23.863281 C 77.054688 23.863281 76.402344 23.929688 75.753906 24.058594 C 75.105469 24.1875 74.476562 24.375 73.863281 24.628906 C 73.253906 24.878906 72.675781 25.1875 72.125 25.550781 C 71.574219 25.917969 71.066406 26.332031 70.597656 26.796875 C 70.132812 27.261719 69.714844 27.765625 69.347656 28.3125 C 68.976562 28.859375 68.667969 29.433594 68.414062 30.042969 C 68.160156 30.648438 67.96875 31.273438 67.835938 31.917969 C 67.707031 32.5625 67.640625 33.214844 67.640625 33.871094 L 67.640625 61.019531 L 61.652344 64.003906 C 61.0625 64.296875 60.597656 64.722656 60.25 65.277344 C 59.90625 65.835938 59.734375 66.441406 59.734375 67.09375 C 59.734375 67.75 59.90625 68.351562 60.25 68.910156 C 60.597656 69.464844 61.0625 69.890625 61.652344 70.183594 L 67.640625 73.167969 L 67.640625 100.316406 C 67.640625 100.972656 67.707031 101.625 67.835938 102.269531 C 67.96875 102.914062 68.160156 103.539062 68.414062 104.148438 C 68.667969 104.753906 68.976562 105.332031 69.347656 105.875 C 69.714844 106.421875 70.132812 106.929688 70.597656 107.390625 C 71.066406 107.855469 71.574219 108.273438 72.125 108.636719 C 72.675781 109 73.253906 109.308594 73.863281 109.5625 C 74.476562 109.8125 75.105469 110.003906 75.753906 110.132812 C 76.402344 110.261719 77.054688 110.324219 77.714844 110.324219 L 83.753906 110.324219 C 84.0625 110.320312 84.359375 110.257812 84.644531 110.136719 C 84.929688 110.015625 85.179688 109.847656 85.398438 109.625 C 85.617188 109.40625 85.785156 109.15625 85.902344 108.871094 C 86.019531 108.585938 86.078125 108.289062 86.078125 107.980469 C 86.078125 107.671875 86.019531 107.375 85.902344 107.089844 C 85.785156 106.804688 85.617188 106.550781 85.398438 106.332031 C 85.179688 106.113281 84.929688 105.941406 84.644531 105.820312 C 84.359375 105.699219 84.0625 105.636719 83.753906 105.632812 Z M 83.753906 105.632812 " fill-opacity="1" fill-rule="nonzero"/></g><path fill="#ffffff" d="M 83.078125 36.4375 L 83.078125 48.945312 C 83.082031 49.253906 83.144531 49.550781 83.265625 49.832031 C 83.386719 50.117188 83.558594 50.367188 83.78125 50.582031 C 84 50.796875 84.253906 50.964844 84.539062 51.082031 C 84.828125 51.199219 85.125 51.257812 85.433594 51.257812 C 85.742188 51.257812 86.042969 51.199219 86.328125 51.082031 C 86.613281 50.964844 86.867188 50.796875 87.089844 50.582031 C 87.308594 50.367188 87.480469 50.117188 87.601562 49.832031 C 87.722656 49.550781 87.785156 49.253906 87.792969 48.945312 L 87.792969 36.4375 C 87.789062 36.128906 87.722656 35.832031 87.601562 35.550781 C 87.480469 35.265625 87.308594 35.015625 87.089844 34.800781 C 86.867188 34.582031 86.613281 34.417969 86.328125 34.300781 C 86.042969 34.183594 85.742188 34.125 85.433594 34.125 C 85.125 34.125 84.824219 34.183594 84.539062 34.300781 C 84.253906 34.417969 84 34.582031 83.777344 34.800781 C 83.558594 35.015625 83.386719 35.265625 83.265625 35.550781 C 83.144531 35.832031 83.082031 36.128906 83.078125 36.4375 Z M 83.078125 36.4375 " fill-opacity="1" fill-rule="nonzero"/><path fill="#ffffff" d="M 104.816406 34.089844 C 104.449219 34.089844 104.089844 34.125 103.730469 34.199219 C 103.371094 34.269531 103.023438 34.375 102.6875 34.511719 C 102.347656 34.652344 102.027344 34.820312 101.722656 35.023438 C 101.421875 35.226562 101.140625 35.457031 100.878906 35.710938 C 100.621094 35.96875 100.390625 36.25 100.1875 36.550781 C 99.984375 36.855469 99.8125 37.171875 99.675781 37.507812 C 99.535156 37.84375 99.429688 38.191406 99.359375 38.546875 C 99.285156 38.902344 99.25 39.261719 99.25 39.625 L 99.25 45.757812 C 99.253906 46.117188 99.292969 46.476562 99.367188 46.828125 C 99.441406 47.183594 99.546875 47.527344 99.6875 47.859375 C 99.828125 48.191406 100.003906 48.507812 100.207031 48.808594 C 100.410156 49.109375 100.640625 49.386719 100.898438 49.640625 C 101.15625 49.894531 101.4375 50.121094 101.738281 50.320312 C 102.042969 50.519531 102.359375 50.6875 102.695312 50.828125 C 103.03125 50.964844 103.378906 51.070312 103.734375 51.136719 C 104.09375 51.207031 104.453125 51.242188 104.816406 51.242188 C 105.179688 51.242188 105.539062 51.207031 105.894531 51.136719 C 106.25 51.070312 106.597656 50.964844 106.933594 50.828125 C 107.269531 50.6875 107.589844 50.519531 107.890625 50.320312 C 108.195312 50.121094 108.476562 49.894531 108.734375 49.640625 C 108.992188 49.386719 109.222656 49.109375 109.425781 48.808594 C 109.628906 48.507812 109.800781 48.191406 109.941406 47.859375 C 110.082031 47.527344 110.191406 47.183594 110.265625 46.828125 C 110.339844 46.476562 110.375 46.117188 110.378906 45.757812 L 110.378906 39.625 C 110.378906 39.261719 110.34375 38.902344 110.269531 38.546875 C 110.199219 38.191406 110.09375 37.84375 109.953125 37.511719 C 109.8125 37.175781 109.640625 36.855469 109.4375 36.554688 C 109.234375 36.25 109.003906 35.972656 108.746094 35.714844 C 108.488281 35.457031 108.207031 35.230469 107.902344 35.027344 C 107.601562 34.824219 107.28125 34.65625 106.941406 34.515625 C 106.605469 34.375 106.257812 34.269531 105.898438 34.199219 C 105.542969 34.128906 105.179688 34.09375 104.816406 34.089844 Z M 106.449219 45.757812 C 106.445312 45.96875 106.402344 46.175781 106.320312 46.371094 C 106.234375 46.566406 106.117188 46.742188 105.960938 46.890625 C 105.808594 47.039062 105.632812 47.15625 105.433594 47.238281 C 105.238281 47.316406 105.03125 47.359375 104.816406 47.359375 C 104.601562 47.359375 104.394531 47.316406 104.195312 47.238281 C 103.996094 47.15625 103.820312 47.039062 103.667969 46.890625 C 103.515625 46.742188 103.394531 46.566406 103.3125 46.371094 C 103.226562 46.175781 103.183594 45.96875 103.179688 45.757812 L 103.179688 39.625 C 103.183594 39.414062 103.226562 39.207031 103.3125 39.011719 C 103.394531 38.8125 103.515625 38.640625 103.667969 38.492188 C 103.820312 38.339844 103.996094 38.226562 104.195312 38.144531 C 104.394531 38.0625 104.601562 38.023438 104.816406 38.023438 C 105.03125 38.023438 105.238281 38.0625 105.4375 38.144531 C 105.632812 38.226562 105.8125 38.339844 105.964844 38.492188 C 106.117188 38.640625 106.234375 38.8125 106.320312 39.011719 C 106.402344 39.207031 106.445312 39.414062 106.449219 39.625 Z M 106.449219 45.757812 " fill-opacity="1" fill-rule="nonzero"/><path fill="#ffffff" d="M 129.007812 94.25 L 129.007812 88.136719 C 129.003906 87.773438 128.964844 87.414062 128.890625 87.0625 C 128.816406 86.707031 128.710938 86.363281 128.570312 86.03125 C 128.425781 85.699219 128.253906 85.382812 128.050781 85.082031 C 127.847656 84.785156 127.617188 84.507812 127.359375 84.253906 C 127.101562 84 126.820312 83.773438 126.519531 83.570312 C 126.214844 83.371094 125.894531 83.203125 125.558594 83.066406 C 125.222656 82.929688 124.878906 82.824219 124.519531 82.753906 C 124.164062 82.683594 123.804688 82.648438 123.441406 82.648438 C 123.078125 82.648438 122.71875 82.683594 122.363281 82.753906 C 122.007812 82.824219 121.660156 82.929688 121.324219 83.066406 C 120.988281 83.203125 120.667969 83.371094 120.367188 83.570312 C 120.0625 83.773438 119.78125 84 119.523438 84.253906 C 119.265625 84.507812 119.035156 84.785156 118.832031 85.082031 C 118.628906 85.382812 118.457031 85.699219 118.316406 86.03125 C 118.175781 86.363281 118.066406 86.707031 117.992188 87.0625 C 117.917969 87.417969 117.882812 87.773438 117.878906 88.136719 L 117.878906 94.25 C 117.878906 94.613281 117.914062 94.972656 117.988281 95.328125 C 118.058594 95.683594 118.167969 96.027344 118.308594 96.359375 C 118.449219 96.695312 118.621094 97.015625 118.824219 97.316406 C 119.027344 97.617188 119.257812 97.894531 119.515625 98.148438 C 119.773438 98.40625 120.054688 98.632812 120.355469 98.835938 C 120.660156 99.035156 120.980469 99.207031 121.316406 99.34375 C 121.65625 99.484375 122 99.585938 122.359375 99.660156 C 122.714844 99.730469 123.078125 99.765625 123.441406 99.765625 C 123.804688 99.765625 124.167969 99.730469 124.523438 99.660156 C 124.882812 99.585938 125.230469 99.484375 125.566406 99.34375 C 125.902344 99.207031 126.222656 99.035156 126.527344 98.835938 C 126.832031 98.632812 127.109375 98.40625 127.371094 98.148438 C 127.628906 97.894531 127.859375 97.617188 128.0625 97.316406 C 128.265625 97.015625 128.4375 96.695312 128.578125 96.359375 C 128.71875 96.027344 128.824219 95.683594 128.894531 95.328125 C 128.96875 94.972656 129.003906 94.613281 129.007812 94.25 Z M 121.808594 94.25 L 121.808594 88.136719 C 121.808594 87.921875 121.855469 87.714844 121.9375 87.519531 C 122.023438 87.324219 122.140625 87.148438 122.292969 87 C 122.445312 86.847656 122.621094 86.734375 122.820312 86.652344 C 123.019531 86.570312 123.226562 86.53125 123.441406 86.53125 C 123.65625 86.53125 123.863281 86.570312 124.0625 86.652344 C 124.261719 86.734375 124.4375 86.847656 124.589844 87 C 124.742188 87.148438 124.863281 87.324219 124.945312 87.519531 C 125.03125 87.714844 125.074219 87.921875 125.078125 88.136719 L 125.078125 94.25 C 125.078125 94.464844 125.035156 94.671875 124.953125 94.871094 C 124.871094 95.070312 124.75 95.246094 124.597656 95.398438 C 124.445312 95.550781 124.269531 95.667969 124.066406 95.75 C 123.867188 95.835938 123.660156 95.875 123.441406 95.875 C 123.226562 95.875 123.015625 95.835938 122.816406 95.75 C 122.617188 95.667969 122.4375 95.550781 122.285156 95.398438 C 122.132812 95.246094 122.015625 95.070312 121.933594 94.871094 C 121.847656 94.671875 121.808594 94.464844 121.808594 94.25 Z M 121.808594 94.25 " fill-opacity="1" fill-rule="nonzero"/><path fill="#ffffff" d="M 85.433594 58.90625 C 85.121094 58.910156 84.820312 58.96875 84.53125 59.089844 C 84.246094 59.207031 83.988281 59.378906 83.769531 59.597656 C 83.546875 59.816406 83.378906 60.070312 83.257812 60.355469 C 83.136719 60.644531 83.078125 60.941406 83.078125 61.253906 L 83.078125 73.765625 C 83.082031 74.070312 83.144531 74.367188 83.265625 74.652344 C 83.386719 74.933594 83.558594 75.183594 83.777344 75.402344 C 84 75.617188 84.253906 75.785156 84.539062 75.902344 C 84.824219 76.015625 85.125 76.074219 85.433594 76.074219 C 85.742188 76.074219 86.042969 76.015625 86.328125 75.902344 C 86.613281 75.785156 86.867188 75.617188 87.089844 75.402344 C 87.308594 75.183594 87.480469 74.933594 87.601562 74.652344 C 87.722656 74.367188 87.789062 74.070312 87.792969 73.765625 L 87.792969 61.253906 C 87.789062 60.945312 87.726562 60.644531 87.609375 60.359375 C 87.488281 60.074219 87.316406 59.820312 87.097656 59.601562 C 86.875 59.378906 86.621094 59.210938 86.332031 59.089844 C 86.046875 58.972656 85.746094 58.910156 85.433594 58.90625 Z M 85.433594 58.90625 " fill-opacity="1" fill-rule="nonzero"/><path fill="#ffffff" d="M 121.070312 61.253906 L 121.070312 73.765625 C 121.074219 74.070312 121.136719 74.367188 121.257812 74.652344 C 121.378906 74.933594 121.550781 75.183594 121.769531 75.402344 C 121.992188 75.617188 122.246094 75.785156 122.53125 75.898438 C 122.820312 76.015625 123.117188 76.074219 123.425781 76.074219 C 123.734375 76.074219 124.035156 76.015625 124.320312 75.898438 C 124.609375 75.785156 124.859375 75.617188 125.082031 75.402344 C 125.300781 75.183594 125.472656 74.933594 125.59375 74.652344 C 125.714844 74.367188 125.78125 74.070312 125.785156 73.765625 L 125.785156 61.253906 C 125.78125 60.945312 125.714844 60.648438 125.59375 60.367188 C 125.472656 60.085938 125.300781 59.835938 125.082031 59.617188 C 124.859375 59.402344 124.605469 59.234375 124.320312 59.121094 C 124.035156 59.003906 123.734375 58.945312 123.425781 58.945312 C 123.117188 58.945312 122.820312 59.003906 122.53125 59.121094 C 122.246094 59.234375 121.992188 59.402344 121.773438 59.617188 C 121.550781 59.835938 121.378906 60.085938 121.257812 60.367188 C 121.136719 60.648438 121.074219 60.945312 121.070312 61.253906 Z M 121.070312 61.253906 " fill-opacity="1" fill-rule="nonzero"/><path fill="#ffffff" d="M 104.816406 58.9375 C 104.503906 58.9375 104.203125 59 103.914062 59.117188 C 103.625 59.234375 103.367188 59.40625 103.148438 59.625 C 102.925781 59.84375 102.753906 60.097656 102.636719 60.386719 C 102.515625 60.675781 102.457031 60.972656 102.457031 61.285156 L 102.457031 73.796875 C 102.460938 74.101562 102.523438 74.398438 102.648438 74.683594 C 102.769531 74.964844 102.9375 75.214844 103.160156 75.433594 C 103.378906 75.648438 103.632812 75.816406 103.921875 75.933594 C 104.207031 76.050781 104.503906 76.109375 104.816406 76.109375 C 105.125 76.109375 105.421875 76.050781 105.710938 75.933594 C 105.996094 75.816406 106.25 75.648438 106.472656 75.433594 C 106.691406 75.214844 106.863281 74.964844 106.984375 74.683594 C 107.105469 74.398438 107.167969 74.101562 107.171875 73.796875 L 107.171875 61.285156 C 107.171875 60.972656 107.113281 60.675781 106.992188 60.386719 C 106.871094 60.101562 106.703125 59.847656 106.480469 59.628906 C 106.257812 59.410156 106.003906 59.238281 105.714844 59.121094 C 105.429688 59 105.128906 58.941406 104.816406 58.9375 Z M 104.816406 58.9375 " fill-opacity="1" fill-rule="nonzero"/><path fill="#ffffff" d="M 104.816406 82.597656 C 104.503906 82.597656 104.203125 82.65625 103.914062 82.777344 C 103.625 82.894531 103.367188 83.066406 103.148438 83.285156 C 102.925781 83.503906 102.753906 83.757812 102.636719 84.046875 C 102.515625 84.335938 102.457031 84.632812 102.457031 84.945312 L 102.457031 97.453125 C 102.460938 97.761719 102.527344 98.058594 102.648438 98.339844 C 102.769531 98.625 102.941406 98.875 103.160156 99.089844 C 103.382812 99.304688 103.636719 99.472656 103.921875 99.589844 C 104.207031 99.707031 104.503906 99.765625 104.816406 99.765625 C 105.125 99.765625 105.421875 99.707031 105.710938 99.589844 C 105.996094 99.472656 106.25 99.304688 106.46875 99.089844 C 106.691406 98.875 106.863281 98.625 106.984375 98.339844 C 107.105469 98.058594 107.167969 97.761719 107.171875 97.453125 L 107.171875 84.945312 C 107.171875 84.632812 107.113281 84.335938 106.992188 84.046875 C 106.871094 83.761719 106.703125 83.507812 106.480469 83.289062 C 106.257812 83.070312 106.003906 82.898438 105.714844 82.78125 C 105.429688 82.660156 105.128906 82.601562 104.816406 82.597656 Z M 104.816406 82.597656 " fill-opacity="1" fill-rule="nonzero"/><path fill="#ffffff" d="M 123.40625 47.851562 C 123.011719 47.851562 122.660156 47.730469 122.351562 47.488281 C 122.042969 47.25 121.839844 46.941406 121.746094 46.5625 C 121.683594 46.34375 121.585938 46.144531 121.445312 45.964844 C 121.308594 45.789062 121.140625 45.640625 120.941406 45.527344 C 120.746094 45.414062 120.535156 45.34375 120.308594 45.3125 C 120.085938 45.28125 119.863281 45.292969 119.640625 45.351562 C 119.421875 45.40625 119.222656 45.503906 119.039062 45.636719 C 118.855469 45.773438 118.707031 45.9375 118.589844 46.132812 C 118.472656 46.324219 118.398438 46.535156 118.363281 46.757812 C 118.328125 46.980469 118.335938 47.203125 118.390625 47.421875 C 118.488281 47.800781 118.628906 48.164062 118.808594 48.511719 C 118.988281 48.855469 119.207031 49.179688 119.460938 49.476562 C 119.714844 49.773438 120 50.039062 120.316406 50.273438 C 120.632812 50.503906 120.96875 50.699219 121.328125 50.859375 C 121.6875 51.015625 122.0625 51.128906 122.445312 51.203125 C 122.832031 51.273438 123.222656 51.304688 123.613281 51.289062 C 124.007812 51.273438 124.390625 51.214844 124.769531 51.113281 C 125.148438 51.011719 125.511719 50.867188 125.859375 50.683594 C 126.207031 50.496094 126.527344 50.277344 126.824219 50.019531 C 127.117188 49.761719 127.382812 49.476562 127.613281 49.160156 C 127.84375 48.84375 128.035156 48.507812 128.1875 48.148438 C 128.339844 47.785156 128.453125 47.414062 128.519531 47.03125 C 128.589844 46.644531 128.613281 46.257812 128.59375 45.867188 C 128.570312 45.476562 128.507812 45.09375 128.402344 44.71875 C 128.292969 44.34375 128.144531 43.984375 127.953125 43.640625 C 127.765625 43.300781 127.539062 42.984375 127.277344 42.691406 C 127.539062 42.402344 127.761719 42.089844 127.949219 41.75 C 128.140625 41.410156 128.289062 41.054688 128.398438 40.679688 C 128.503906 40.308594 128.570312 39.925781 128.589844 39.539062 C 128.613281 39.152344 128.589844 38.765625 128.527344 38.386719 C 128.460938 38.003906 128.351562 37.632812 128.203125 37.273438 C 128.054688 36.914062 127.867188 36.578125 127.640625 36.261719 C 127.414062 35.945312 127.15625 35.65625 126.863281 35.398438 C 126.574219 35.140625 126.257812 34.917969 125.914062 34.730469 C 125.574219 34.542969 125.214844 34.398438 124.839844 34.289062 C 124.464844 34.183594 124.082031 34.121094 123.695312 34.097656 C 123.304688 34.078125 122.917969 34.101562 122.53125 34.164062 C 122.148438 34.230469 121.777344 34.339844 121.417969 34.488281 C 121.054688 34.636719 120.71875 34.824219 120.398438 35.050781 C 120.082031 35.277344 119.792969 35.535156 119.535156 35.824219 C 119.277344 36.113281 119.054688 36.429688 118.867188 36.769531 C 118.679688 37.109375 118.53125 37.46875 118.425781 37.839844 C 118.363281 38.058594 118.34375 38.28125 118.371094 38.507812 C 118.398438 38.734375 118.46875 38.945312 118.582031 39.144531 C 118.691406 39.34375 118.839844 39.511719 119.019531 39.652344 C 119.199219 39.792969 119.398438 39.894531 119.617188 39.957031 C 119.839844 40.019531 120.0625 40.035156 120.292969 40.007812 C 120.519531 39.984375 120.734375 39.914062 120.933594 39.800781 C 121.136719 39.691406 121.308594 39.546875 121.453125 39.367188 C 121.59375 39.1875 121.699219 38.988281 121.761719 38.769531 C 121.820312 38.5625 121.917969 38.375 122.046875 38.207031 C 122.179688 38.035156 122.335938 37.894531 122.519531 37.785156 C 122.703125 37.671875 122.902344 37.597656 123.113281 37.558594 C 123.324219 37.519531 123.535156 37.523438 123.746094 37.5625 C 123.957031 37.601562 124.15625 37.679688 124.335938 37.792969 C 124.519531 37.90625 124.675781 38.046875 124.804688 38.21875 C 124.933594 38.390625 125.027344 38.578125 125.085938 38.785156 C 125.144531 38.992188 125.164062 39.199219 125.144531 39.414062 C 125.121094 39.628906 125.0625 39.828125 124.96875 40.019531 C 124.871094 40.210938 124.746094 40.378906 124.585938 40.523438 C 124.425781 40.667969 124.246094 40.777344 124.046875 40.855469 C 123.84375 40.933594 123.636719 40.972656 123.421875 40.972656 C 123.191406 40.972656 122.972656 41.015625 122.761719 41.101562 C 122.546875 41.191406 122.359375 41.3125 122.199219 41.476562 C 122.035156 41.636719 121.910156 41.824219 121.824219 42.035156 C 121.738281 42.246094 121.691406 42.464844 121.691406 42.691406 C 121.691406 42.917969 121.738281 43.140625 121.824219 43.351562 C 121.914062 43.5625 122.035156 43.746094 122.199219 43.90625 C 122.363281 44.070312 122.546875 44.195312 122.761719 44.28125 C 122.972656 44.367188 123.191406 44.410156 123.421875 44.410156 C 123.648438 44.414062 123.867188 44.460938 124.078125 44.550781 C 124.289062 44.640625 124.472656 44.765625 124.632812 44.925781 C 124.792969 45.089844 124.914062 45.273438 125 45.484375 C 125.085938 45.695312 125.128906 45.914062 125.125 46.140625 C 125.125 46.367188 125.082031 46.585938 124.992188 46.792969 C 124.90625 47.003906 124.78125 47.1875 124.621094 47.347656 C 124.457031 47.507812 124.273438 47.632812 124.0625 47.71875 C 123.851562 47.808594 123.632812 47.851562 123.40625 47.851562 Z M 123.40625 47.851562 " fill-opacity="1" fill-rule="nonzero"/><path fill="#ffffff" d="M 84.40625 82.597656 C 83.839844 82.601562 83.292969 82.6875 82.757812 82.867188 C 82.222656 83.046875 81.726562 83.304688 81.277344 83.644531 C 80.828125 83.980469 80.441406 84.382812 80.121094 84.84375 C 79.800781 85.308594 79.566406 85.808594 79.410156 86.347656 C 79.347656 86.566406 79.328125 86.789062 79.355469 87.015625 C 79.382812 87.242188 79.453125 87.453125 79.566406 87.652344 C 79.675781 87.851562 79.824219 88.019531 80.003906 88.160156 C 80.183594 88.300781 80.382812 88.402344 80.601562 88.464844 C 80.824219 88.527344 81.046875 88.542969 81.277344 88.515625 C 81.503906 88.492188 81.71875 88.421875 81.921875 88.308594 C 82.121094 88.199219 82.292969 88.054688 82.4375 87.875 C 82.578125 87.695312 82.683594 87.496094 82.746094 87.277344 C 82.808594 87.074219 82.902344 86.882812 83.03125 86.714844 C 83.164062 86.542969 83.320312 86.402344 83.503906 86.292969 C 83.6875 86.179688 83.886719 86.105469 84.097656 86.066406 C 84.308594 86.027344 84.519531 86.03125 84.730469 86.070312 C 84.941406 86.109375 85.140625 86.1875 85.320312 86.300781 C 85.503906 86.414062 85.660156 86.554688 85.789062 86.726562 C 85.917969 86.898438 86.011719 87.085938 86.070312 87.292969 C 86.128906 87.5 86.148438 87.710938 86.128906 87.921875 C 86.105469 88.136719 86.050781 88.335938 85.953125 88.527344 C 85.855469 88.71875 85.730469 88.886719 85.570312 89.03125 C 85.410156 89.175781 85.230469 89.285156 85.03125 89.363281 C 84.828125 89.441406 84.621094 89.480469 84.40625 89.480469 C 84.179688 89.484375 83.960938 89.527344 83.75 89.617188 C 83.542969 89.707031 83.359375 89.832031 83.199219 89.992188 C 83.039062 90.152344 82.917969 90.335938 82.832031 90.546875 C 82.742188 90.757812 82.699219 90.972656 82.699219 91.199219 C 82.699219 91.425781 82.742188 91.644531 82.832031 91.851562 C 82.917969 92.0625 83.039062 92.246094 83.199219 92.40625 C 83.359375 92.570312 83.542969 92.695312 83.75 92.78125 C 83.960938 92.871094 84.179688 92.917969 84.40625 92.921875 C 84.621094 92.921875 84.832031 92.960938 85.035156 93.039062 C 85.234375 93.117188 85.417969 93.230469 85.574219 93.375 C 85.734375 93.523438 85.863281 93.691406 85.957031 93.886719 C 86.050781 94.078125 86.109375 94.28125 86.125 94.496094 C 86.144531 94.710938 86.121094 94.921875 86.0625 95.128906 C 86 95.335938 85.902344 95.523438 85.769531 95.695312 C 85.636719 95.863281 85.476562 96.003906 85.292969 96.117188 C 85.105469 96.226562 84.90625 96.300781 84.691406 96.335938 C 84.480469 96.371094 84.265625 96.367188 84.054688 96.324219 C 83.839844 96.28125 83.644531 96.199219 83.460938 96.082031 C 83.28125 95.964844 83.125 95.820312 83 95.644531 C 82.875 95.46875 82.785156 95.277344 82.730469 95.070312 C 82.667969 94.851562 82.570312 94.652344 82.429688 94.46875 C 82.292969 94.289062 82.125 94.140625 81.925781 94.023438 C 81.730469 93.910156 81.519531 93.835938 81.292969 93.800781 C 81.066406 93.769531 80.84375 93.777344 80.621094 93.832031 C 80.398438 93.890625 80.195312 93.988281 80.011719 94.125 C 79.828125 94.261719 79.679688 94.429688 79.5625 94.625 C 79.445312 94.820312 79.371094 95.03125 79.339844 95.257812 C 79.304688 95.484375 79.316406 95.710938 79.375 95.929688 C 79.53125 96.539062 79.792969 97.097656 80.15625 97.613281 C 80.523438 98.125 80.964844 98.558594 81.488281 98.910156 C 82.011719 99.265625 82.578125 99.511719 83.195312 99.660156 C 83.808594 99.804688 84.429688 99.839844 85.054688 99.761719 C 85.679688 99.679688 86.273438 99.492188 86.832031 99.199219 C 87.390625 98.90625 87.878906 98.523438 88.296875 98.050781 C 88.714844 97.582031 89.035156 97.050781 89.257812 96.464844 C 89.480469 95.875 89.59375 95.269531 89.59375 94.640625 C 89.597656 93.324219 89.152344 92.175781 88.261719 91.199219 C 88.589844 90.828125 88.859375 90.417969 89.070312 89.96875 C 89.28125 89.519531 89.425781 89.046875 89.5 88.558594 C 89.574219 88.066406 89.578125 87.578125 89.511719 87.085938 C 89.445312 86.59375 89.308594 86.121094 89.105469 85.667969 C 88.902344 85.214844 88.640625 84.800781 88.316406 84.421875 C 87.996094 84.046875 87.625 83.722656 87.207031 83.449219 C 86.792969 83.175781 86.34375 82.96875 85.867188 82.824219 C 85.390625 82.679688 84.90625 82.605469 84.40625 82.597656 Z M 84.40625 82.597656 " fill-opacity="1" fill-rule="nonzero"/><g clip-path="url(#0ad60585e4)"><path fill="#ffffff" d="M 206.929688 123.253906 L 206.929688 121.800781 C 206.929688 121.695312 207.015625 121.609375 207.117188 121.609375 L 208.53125 121.609375 L 208.53125 120.503906 L 207.136719 120.503906 C 207.042969 120.503906 206.960938 120.429688 206.949219 120.332031 C 206.921875 120.066406 206.925781 119.769531 206.929688 119.484375 C 206.933594 119.273438 206.9375 119.054688 206.925781 118.859375 L 205.855469 118.859375 L 205.855469 120.292969 C 205.855469 120.390625 205.78125 120.476562 205.683594 120.484375 C 205.507812 120.5 205.3125 120.507812 205.050781 120.507812 C 204.925781 120.507812 204.804688 120.503906 204.683594 120.503906 C 204.5625 120.503906 204.441406 120.5 204.320312 120.5 C 204.296875 120.5 204.277344 120.5 204.257812 120.5 L 204.257812 121.609375 L 205.667969 121.609375 C 205.773438 121.609375 205.855469 121.695312 205.855469 121.800781 L 205.855469 123.253906 Z M 206.394531 123.839844 C 206.074219 123.839844 205.761719 123.832031 205.488281 123.816406 C 205.394531 123.808594 205.320312 123.734375 205.3125 123.640625 C 205.285156 123.316406 205.289062 122.960938 205.292969 122.621094 C 205.292969 122.476562 205.296875 122.328125 205.292969 122.1875 C 205.273438 122.1875 205.253906 122.1875 205.230469 122.1875 C 205.113281 122.1875 204.992188 122.1875 204.875 122.191406 C 204.753906 122.191406 204.632812 122.191406 204.511719 122.191406 C 204.25 122.191406 204.058594 122.183594 203.882812 122.167969 C 203.789062 122.160156 203.714844 122.082031 203.710938 121.988281 C 203.679688 121.414062 203.679688 120.699219 203.710938 120.125 C 203.714844 120.03125 203.785156 119.953125 203.875 119.945312 C 204.015625 119.925781 204.175781 119.917969 204.378906 119.917969 C 204.484375 119.917969 204.589844 119.921875 204.691406 119.921875 C 204.792969 119.925781 204.898438 119.925781 204.996094 119.925781 C 205.109375 119.925781 205.207031 119.925781 205.292969 119.917969 C 205.296875 119.773438 205.292969 119.625 205.292969 119.480469 C 205.289062 119.140625 205.285156 118.789062 205.3125 118.472656 C 205.320312 118.378906 205.390625 118.304688 205.484375 118.296875 C 205.679688 118.28125 205.894531 118.273438 206.179688 118.273438 C 206.3125 118.273438 206.449219 118.273438 206.578125 118.277344 L 206.582031 118.277344 C 206.710938 118.277344 206.847656 118.28125 206.976562 118.28125 C 207.074219 118.28125 207.164062 118.277344 207.246094 118.277344 C 207.246094 118.277344 207.25 118.277344 207.25 118.277344 C 207.273438 118.277344 207.296875 118.28125 207.320312 118.289062 C 207.394531 118.320312 207.453125 118.378906 207.484375 118.457031 C 207.492188 118.480469 207.496094 118.503906 207.496094 118.527344 L 207.496094 119.925781 C 207.515625 119.925781 207.535156 119.925781 207.554688 119.925781 C 207.675781 119.925781 207.796875 119.925781 207.914062 119.921875 C 208.035156 119.921875 208.15625 119.917969 208.277344 119.917969 C 208.535156 119.917969 208.730469 119.925781 208.90625 119.941406 C 209 119.953125 209.070312 120.027344 209.078125 120.125 C 209.109375 120.699219 209.109375 121.414062 209.078125 121.988281 C 209.070312 122.082031 209.003906 122.15625 208.910156 122.167969 C 208.773438 122.183594 208.613281 122.191406 208.40625 122.191406 C 208.304688 122.191406 208.199219 122.191406 208.09375 122.1875 C 207.996094 122.1875 207.890625 122.1875 207.789062 122.1875 C 207.675781 122.1875 207.578125 122.1875 207.492188 122.191406 C 207.492188 122.339844 207.492188 122.488281 207.496094 122.632812 C 207.5 122.972656 207.503906 123.320312 207.476562 123.640625 C 207.46875 123.734375 207.390625 123.8125 207.300781 123.816406 C 207.023438 123.832031 206.710938 123.839844 206.394531 123.839844 " fill-opacity="1" fill-rule="evenodd"/></g><g clip-path="url(#0346014c97)"><path fill="#ffffff" d="M 202.015625 121.609375 L 202.015625 120.503906 L 197.738281 120.503906 L 197.738281 121.609375 Z M 199.875 122.195312 C 199.027344 122.195312 198.183594 122.1875 197.378906 122.167969 C 197.277344 122.167969 197.199219 122.089844 197.191406 121.988281 C 197.160156 121.414062 197.160156 120.699219 197.191406 120.125 C 197.199219 120.023438 197.277344 119.945312 197.375 119.941406 C 197.9375 119.925781 198.539062 119.917969 199.328125 119.917969 C 199.695312 119.917969 200.074219 119.921875 200.4375 119.921875 L 200.441406 119.921875 C 200.808594 119.925781 201.183594 119.925781 201.554688 119.925781 C 201.839844 119.925781 202.09375 119.925781 202.332031 119.921875 C 202.332031 119.921875 202.335938 119.921875 202.335938 119.921875 C 202.359375 119.921875 202.382812 119.925781 202.402344 119.9375 C 202.480469 119.964844 202.539062 120.027344 202.566406 120.105469 C 202.574219 120.128906 202.578125 120.152344 202.578125 120.179688 C 202.574219 120.402344 202.578125 120.636719 202.578125 120.867188 C 202.582031 121.242188 202.589844 121.636719 202.558594 121.992188 C 202.550781 122.089844 202.472656 122.167969 202.375 122.167969 C 201.570312 122.1875 200.726562 122.195312 199.875 122.195312 " fill-opacity="1" fill-rule="evenodd"/></g><path fill="#ffffff" d="M 206.398438 125.785156 C 206.316406 125.785156 206.253906 125.808594 206.203125 125.859375 C 206.148438 125.917969 206.117188 126.007812 206.121094 126.105469 C 206.121094 126.136719 206.132812 126.429688 206.421875 126.429688 C 206.636719 126.429688 206.710938 126.234375 206.71875 126.121094 C 206.722656 126.074219 206.726562 125.828125 206.46875 125.789062 C 206.445312 125.785156 206.421875 125.785156 206.398438 125.785156 Z M 206.441406 127.027344 C 205.996094 127.027344 205.609375 126.71875 205.539062 126.308594 C 205.484375 125.996094 205.550781 125.707031 205.722656 125.5 C 205.882812 125.300781 206.125 125.191406 206.402344 125.191406 C 206.476562 125.191406 206.550781 125.199219 206.628906 125.214844 C 207.039062 125.296875 207.3125 125.65625 207.308594 126.105469 C 207.304688 126.566406 207.023438 126.9375 206.625 127.007812 C 206.5625 127.019531 206.503906 127.027344 206.441406 127.027344 " fill-opacity="1" fill-rule="evenodd"/><g clip-path="url(#5dc0b89267)"><path fill="#ffffff" d="M 199.8125 128.890625 C 199.855469 128.890625 199.902344 128.90625 199.9375 128.941406 C 200.117188 129.105469 200.285156 129.285156 200.449219 129.457031 C 200.609375 129.625 200.773438 129.800781 200.945312 129.957031 C 201.050781 129.84375 201.164062 129.730469 201.273438 129.625 C 201.421875 129.472656 201.566406 129.328125 201.699219 129.175781 C 201.550781 129.03125 201.40625 128.882812 201.269531 128.738281 C 201.089844 128.550781 200.90625 128.359375 200.71875 128.179688 C 200.644531 128.113281 200.636719 127.996094 200.699219 127.917969 C 200.875 127.691406 201.078125 127.492188 201.273438 127.300781 C 201.421875 127.148438 201.566406 127.003906 201.699219 126.851562 C 201.445312 126.597656 201.191406 126.339844 200.949219 126.078125 C 200.773438 126.238281 200.609375 126.410156 200.449219 126.582031 C 200.285156 126.753906 200.117188 126.933594 199.9375 127.097656 C 199.902344 127.132812 199.855469 127.148438 199.8125 127.148438 C 199.765625 127.148438 199.71875 127.128906 199.679688 127.09375 C 199.34375 126.761719 199.011719 126.421875 198.6875 126.078125 C 198.421875 126.328125 198.167969 126.589844 197.925781 126.863281 C 198.070312 127.007812 198.214844 127.15625 198.351562 127.300781 C 198.53125 127.488281 198.714844 127.679688 198.902344 127.859375 C 198.972656 127.925781 198.984375 128.039062 198.925781 128.117188 C 198.757812 128.339844 198.566406 128.527344 198.378906 128.710938 C 198.214844 128.871094 198.054688 129.027344 197.917969 129.195312 C 198.175781 129.441406 198.429688 129.699219 198.671875 129.96875 C 198.820312 129.824219 198.960938 129.675781 199.101562 129.53125 C 199.289062 129.335938 199.484375 129.132812 199.683594 128.941406 C 199.71875 128.910156 199.765625 128.890625 199.8125 128.890625 Z M 198.644531 130.671875 C 198.59375 130.671875 198.542969 130.652344 198.507812 130.613281 C 198.34375 130.441406 198.175781 130.273438 197.996094 130.097656 C 197.855469 129.957031 197.710938 129.816406 197.566406 129.667969 C 197.558594 129.660156 197.550781 129.648438 197.539062 129.636719 C 197.316406 129.414062 197.226562 129.304688 197.230469 129.175781 C 197.234375 129.039062 197.339844 128.9375 197.492188 128.804688 C 197.515625 128.785156 197.539062 128.765625 197.550781 128.753906 L 197.617188 128.683594 C 197.84375 128.453125 198.058594 128.230469 198.253906 128.007812 C 198.175781 127.929688 198.097656 127.855469 198.019531 127.777344 C 197.761719 127.523438 197.496094 127.261719 197.269531 126.953125 C 197.210938 126.878906 197.21875 126.769531 197.285156 126.703125 C 197.394531 126.589844 197.503906 126.472656 197.609375 126.363281 C 197.910156 126.042969 198.222656 125.714844 198.558594 125.414062 C 198.59375 125.382812 198.636719 125.367188 198.679688 125.367188 C 198.722656 125.367188 198.761719 125.378906 198.796875 125.40625 C 198.996094 125.566406 199.191406 125.773438 199.378906 125.972656 C 199.519531 126.125 199.667969 126.28125 199.816406 126.417969 C 199.871094 126.363281 199.925781 126.304688 199.980469 126.25 C 200.246094 125.964844 200.519531 125.675781 200.820312 125.410156 C 200.855469 125.382812 200.898438 125.367188 200.941406 125.367188 C 200.964844 125.367188 200.988281 125.371094 201.011719 125.378906 C 201.039062 125.390625 201.0625 125.410156 201.082031 125.429688 C 201.082031 125.433594 201.082031 125.433594 201.085938 125.433594 C 201.492188 125.804688 201.953125 126.277344 202.34375 126.726562 C 202.40625 126.800781 202.40625 126.90625 202.347656 126.980469 C 202.15625 127.222656 201.9375 127.441406 201.726562 127.652344 C 201.605469 127.769531 201.484375 127.894531 201.367188 128.019531 C 201.484375 128.144531 201.605469 128.269531 201.726562 128.386719 C 201.9375 128.597656 202.15625 128.816406 202.347656 129.058594 C 202.40625 129.132812 202.40625 129.238281 202.34375 129.3125 C 201.945312 129.769531 201.515625 130.210938 201.066406 130.625 C 201.03125 130.65625 200.984375 130.671875 200.941406 130.671875 C 200.898438 130.671875 200.859375 130.660156 200.824219 130.632812 C 200.605469 130.453125 200.414062 130.25 200.230469 130.050781 C 200.089844 129.898438 199.953125 129.753906 199.804688 129.621094 C 199.796875 129.632812 199.785156 129.644531 199.773438 129.65625 C 199.644531 129.792969 199.511719 129.9375 199.378906 130.074219 C 199.34375 130.109375 199.308594 130.144531 199.273438 130.183594 C 199.113281 130.355469 198.945312 130.535156 198.730469 130.652344 C 198.703125 130.664062 198.671875 130.671875 198.644531 130.671875 " fill-opacity="1" fill-rule="evenodd"/></g><g clip-path="url(#b98ad72520)"><path fill="#ffffff" d="M 208.53125 128.601562 L 208.53125 127.496094 L 204.257812 127.496094 L 204.257812 128.601562 Z M 206.394531 129.1875 C 205.542969 129.1875 204.703125 129.179688 203.894531 129.164062 C 203.796875 129.160156 203.714844 129.082031 203.710938 128.980469 C 203.679688 128.40625 203.679688 127.691406 203.710938 127.117188 C 203.714844 127.015625 203.796875 126.9375 203.894531 126.933594 C 204.453125 126.917969 205.054688 126.914062 205.84375 126.914062 C 206.214844 126.914062 206.59375 126.914062 206.957031 126.914062 C 207.320312 126.917969 207.699219 126.917969 208.070312 126.917969 C 208.355469 126.917969 208.613281 126.917969 208.851562 126.914062 C 208.875 126.914062 208.898438 126.917969 208.921875 126.929688 C 208.996094 126.960938 209.054688 127.019531 209.082031 127.097656 C 209.09375 127.121094 209.097656 127.144531 209.097656 127.171875 C 209.09375 127.394531 209.09375 127.628906 209.097656 127.859375 C 209.101562 128.234375 209.105469 128.628906 209.078125 128.984375 C 209.070312 129.082031 208.988281 129.160156 208.894531 129.164062 C 208.085938 129.179688 207.246094 129.1875 206.394531 129.1875 " fill-opacity="1" fill-rule="evenodd"/></g><g clip-path="url(#f020a1af41)"><path fill="#ffffff" d="M 206.398438 129.714844 C 206.128906 129.714844 206.121094 129.996094 206.121094 130.027344 C 206.121094 130.152344 206.183594 130.363281 206.421875 130.363281 C 206.636719 130.363281 206.710938 130.167969 206.71875 130.050781 C 206.722656 130.003906 206.726562 129.761719 206.46875 129.722656 C 206.445312 129.71875 206.421875 129.714844 206.398438 129.714844 Z M 206.441406 130.957031 C 205.996094 130.957031 205.609375 130.648438 205.539062 130.242188 C 205.484375 129.929688 205.550781 129.640625 205.722656 129.429688 C 205.882812 129.234375 206.125 129.125 206.402344 129.125 C 206.476562 129.125 206.550781 129.132812 206.628906 129.144531 C 207.039062 129.226562 207.3125 129.585938 207.308594 130.039062 C 207.304688 130.5 207.023438 130.871094 206.625 130.941406 C 206.5625 130.953125 206.503906 130.957031 206.441406 130.957031 " fill-opacity="1" fill-rule="evenodd"/></g></svg>