<svg xmlns="http://www.w3.org/2000/svg" xmlns:xlink="http://www.w3.org/1999/xlink" width="1920" zoomAndPan="magnify" viewBox="0 0 1440 809.999993" height="1080" preserveAspectRatio="xMidYMid meet" version="1.0"><defs><clipPath id="4f0ad89b0c"><path d="M 1342 735.792969 L 1418.871094 735.792969 L 1418.871094 798 L 1342 798 Z M 1342 735.792969 " clip-rule="nonzero"/></clipPath><clipPath id="fc6bde8f37"><path d="M 1336.371094 768 L 1339 768 L 1339 773 L 1336.371094 773 Z M 1336.371094 768 " clip-rule="nonzero"/></clipPath><clipPath id="ef7ef1f04f"><path d="M 1372 794 L 1375 794 L 1375 798.042969 L 1372 798.042969 Z M 1372 794 " clip-rule="nonzero"/></clipPath><clipPath id="fd6c921314"><path d="M 1378 794 L 1381 794 L 1381 798.042969 L 1378 798.042969 Z M 1378 794 " clip-rule="nonzero"/></clipPath><clipPath id="eaedb0e1dd"><path d="M 1406 794 L 1410 794 L 1410 798.042969 L 1406 798.042969 Z M 1406 794 " clip-rule="nonzero"/></clipPath><clipPath id="08a7968ebd"><path d="M 1409 794 L 1413 794 L 1413 798.042969 L 1409 798.042969 Z M 1409 794 " clip-rule="nonzero"/></clipPath></defs><rect x="-144" width="1728" fill="#ffffff" y="-80.999999" height="971.999992" fill-opacity="1"/><rect x="-144" width="1728" fill="#ffffff" y="-80.999999" height="971.999992" fill-opacity="1"/><rect x="-144" width="1728" fill="#ffffff" y="-80.999999" height="971.999992" fill-opacity="1"/><path fill="#4a4d51" d="M 1345.191406 781.890625 L 1346.769531 786.300781 L 1348.34375 781.890625 L 1347.015625 781.890625 L 1347.015625 761.398438 L 1348.34375 761.398438 L 1346.769531 756.984375 L 1345.191406 761.398438 L 1346.519531 761.398438 L 1346.519531 781.890625 L 1345.191406 781.890625 " fill-opacity="1" fill-rule="nonzero"/><path fill="#4a4d51" d="M 1352.851562 751.472656 L 1368.691406 740.085938 L 1369.4375 741.132812 L 1372.097656 737.277344 L 1367.605469 738.5625 L 1368.402344 739.679688 L 1352.5625 751.066406 L 1351.789062 749.988281 L 1349.132812 753.839844 L 1353.625 752.554688 L 1352.851562 751.472656 " fill-opacity="1" fill-rule="nonzero"/><g clip-path="url(#4f0ad89b0c)"><path fill="#4a4d51" d="M 1405.273438 792.378906 L 1405.273438 791.046875 L 1401.125 792.539062 L 1401.125 786.984375 L 1418.375 786.984375 L 1418.375 792.378906 L 1417.933594 792.378906 L 1414.226562 791.046875 L 1414.226562 792.378906 Z M 1392.339844 772.523438 L 1387.253906 772.523438 L 1387.253906 767.417969 L 1392.339844 767.417969 Z M 1392.339844 778.476562 L 1387.253906 778.476562 L 1387.253906 773.375 L 1392.339844 773.375 Z M 1386.402344 778.476562 L 1381.316406 778.476562 L 1381.316406 767.417969 L 1386.402344 767.417969 Z M 1418.625 786.984375 L 1418.53125 775.074219 L 1416.835938 773.375 L 1415.140625 775.074219 L 1413.441406 773.375 L 1411.746094 775.074219 L 1410.050781 773.375 L 1408.355469 775.074219 L 1406.660156 773.375 L 1404.964844 775.074219 L 1403.269531 773.375 L 1401.761719 774.886719 L 1401.761719 756.355469 C 1397.738281 753.769531 1393.691406 751.210938 1389.683594 748.601562 C 1386.972656 746.832031 1384.296875 745.015625 1381.609375 743.21875 C 1380.261719 742.320312 1377.722656 740.621094 1377.183594 740.261719 L 1377.21875 740.210938 L 1370.949219 735.808594 L 1370.664062 736.21875 L 1376.6875 740.445312 L 1352.394531 756.355469 L 1352.527344 756.148438 L 1346.007812 751.953125 L 1345.738281 752.375 L 1351.542969 756.105469 L 1342.144531 756.105469 L 1342.144531 756.605469 L 1352.394531 756.605469 L 1352.394531 786.738281 L 1342.144531 786.738281 L 1342.144531 787.234375 L 1352.144531 787.234375 L 1352.144531 797.269531 L 1352.640625 797.269531 L 1352.640625 786.984375 L 1360.117188 786.984375 L 1360.117188 767.417969 L 1370.292969 767.417969 L 1370.292969 786.984375 L 1400.628906 786.984375 L 1400.628906 792.539062 L 1396.480469 791.046875 L 1396.480469 792.378906 L 1357.414062 792.378906 L 1357.414062 791.046875 L 1353.019531 792.628906 L 1357.414062 794.210938 L 1357.414062 792.878906 L 1396.480469 792.878906 L 1396.480469 794.210938 L 1400.628906 792.71875 L 1400.628906 797.269531 L 1401.125 797.269531 L 1401.125 792.71875 L 1405.273438 794.210938 L 1405.273438 792.878906 L 1414.226562 792.878906 L 1414.226562 794.210938 L 1417.933594 792.878906 L 1418.375 792.878906 L 1418.375 797.269531 L 1418.875 797.269531 L 1418.875 786.984375 L 1418.625 786.984375 " fill-opacity="1" fill-rule="nonzero"/></g><g clip-path="url(#fc6bde8f37)"><path fill="#4a4d51" d="M 1337.105469 772.035156 L 1337.417969 771.746094 C 1338.234375 770.957031 1338.75 770.378906 1338.75 769.660156 C 1338.75 769.105469 1338.398438 768.53125 1337.566406 768.53125 C 1337.117188 768.53125 1336.738281 768.699219 1336.46875 768.925781 L 1336.632812 769.296875 C 1336.8125 769.144531 1337.105469 768.964844 1337.457031 768.964844 C 1338.035156 768.964844 1338.226562 769.332031 1338.226562 769.726562 C 1338.21875 770.3125 1337.773438 770.816406 1336.785156 771.761719 L 1336.375 772.160156 L 1336.375 772.484375 L 1338.847656 772.484375 L 1338.847656 772.046875 L 1337.105469 772.046875 L 1337.105469 772.035156 " fill-opacity="1" fill-rule="nonzero"/></g><path fill="#4a4d51" d="M 1340.167969 772.035156 L 1340.476562 771.746094 C 1341.292969 770.957031 1341.8125 770.378906 1341.8125 769.660156 C 1341.8125 769.105469 1341.457031 768.53125 1340.625 768.53125 C 1340.179688 768.53125 1339.796875 768.699219 1339.527344 768.925781 L 1339.695312 769.296875 C 1339.875 769.144531 1340.167969 768.964844 1340.515625 768.964844 C 1341.097656 768.964844 1341.285156 769.332031 1341.285156 769.726562 C 1341.28125 770.3125 1340.832031 770.816406 1339.84375 771.761719 L 1339.433594 772.160156 L 1339.433594 772.484375 L 1341.90625 772.484375 L 1341.90625 772.046875 L 1340.167969 772.046875 L 1340.167969 772.035156 " fill-opacity="1" fill-rule="nonzero"/><path fill="#4a4d51" d="M 1342.960938 770.554688 C 1342.960938 769.5 1343.296875 768.933594 1343.753906 768.933594 C 1344.296875 768.933594 1344.542969 769.566406 1344.542969 770.523438 C 1344.542969 771.515625 1344.285156 772.140625 1343.75 772.140625 C 1343.273438 772.140625 1342.960938 771.570312 1342.960938 770.554688 Z M 1345.066406 770.5 C 1345.066406 769.257812 1344.601562 768.53125 1343.785156 768.53125 C 1343 768.53125 1342.4375 769.246094 1342.4375 770.550781 C 1342.449219 771.835938 1342.960938 772.546875 1343.71875 772.546875 C 1344.578125 772.546875 1345.066406 771.820312 1345.066406 770.5 " fill-opacity="1" fill-rule="nonzero"/><path fill="#4a4d51" d="M 1354.621094 744.367188 L 1354.632812 744.359375 L 1356.519531 747.179688 L 1356.941406 746.898438 L 1354.78125 743.671875 L 1354.410156 743.917969 L 1353.957031 744.769531 L 1354.265625 745.046875 L 1354.621094 744.367188 " fill-opacity="1" fill-rule="nonzero"/><path fill="#4a4d51" d="M 1357.582031 742.390625 L 1357.597656 742.386719 C 1357.703125 742.558594 1357.808594 742.730469 1357.921875 742.902344 L 1358.644531 743.976562 L 1357.589844 744.6875 L 1357.582031 744.675781 L 1357.636719 743.050781 C 1357.625 742.839844 1357.613281 742.648438 1357.582031 742.390625 Z M 1358.875 744.320312 L 1359.460938 745.199219 L 1359.871094 744.921875 L 1359.285156 744.042969 L 1359.734375 743.742188 L 1359.503906 743.398438 L 1359.054688 743.699219 L 1357.714844 741.695312 L 1357.242188 742.011719 L 1357.1875 745.039062 L 1357.378906 745.328125 L 1358.875 744.320312 " fill-opacity="1" fill-rule="nonzero"/><path fill="#4a4d51" d="M 1359.730469 740.742188 C 1360.183594 740.441406 1360.738281 740.824219 1361.265625 741.617188 C 1361.820312 742.441406 1361.957031 743.109375 1361.507812 743.40625 C 1361.113281 743.671875 1360.535156 743.371094 1359.976562 742.53125 C 1359.386719 741.652344 1359.351562 741 1359.730469 740.742188 Z M 1361.710938 743.761719 C 1362.425781 743.28125 1362.425781 742.402344 1361.691406 741.304688 C 1361.003906 740.277344 1360.210938 739.929688 1359.53125 740.390625 C 1358.878906 740.828125 1358.8125 741.738281 1359.535156 742.820312 C 1360.261719 743.882812 1361.082031 744.1875 1361.710938 743.761719 " fill-opacity="1" fill-rule="nonzero"/><g clip-path="url(#ef7ef1f04f)"><path fill="#4a4d51" d="M 1373.828125 795.859375 L 1373.828125 795.847656 C 1374.308594 795.675781 1374.542969 795.335938 1374.542969 794.933594 C 1374.542969 794.460938 1374.199219 794.003906 1373.433594 794.003906 C 1373.019531 794.003906 1372.625 794.152344 1372.421875 794.304688 L 1372.558594 794.6875 C 1372.726562 794.566406 1373.023438 794.429688 1373.335938 794.429688 C 1373.816406 794.429688 1374.011719 794.707031 1374.011719 795.015625 C 1374.011719 795.476562 1373.53125 795.675781 1373.152344 795.675781 L 1372.859375 795.675781 L 1372.859375 796.070312 L 1373.152344 796.070312 C 1373.65625 796.070312 1374.144531 796.300781 1374.148438 796.847656 C 1374.15625 797.167969 1373.949219 797.601562 1373.273438 797.601562 C 1372.910156 797.601562 1372.566406 797.453125 1372.417969 797.355469 L 1372.273438 797.761719 C 1372.464844 797.886719 1372.847656 798.027344 1373.28125 798.027344 C 1374.210938 798.027344 1374.691406 797.480469 1374.691406 796.859375 C 1374.691406 796.316406 1374.308594 795.957031 1373.828125 795.859375 " fill-opacity="1" fill-rule="nonzero"/></g><path fill="#4a4d51" d="M 1375.421875 794.507812 L 1377.320312 794.507812 L 1377.320312 794.519531 L 1375.636719 797.960938 L 1376.179688 797.960938 L 1377.867188 794.417969 L 1377.867188 794.074219 L 1375.421875 794.074219 L 1375.421875 794.507812 " fill-opacity="1" fill-rule="nonzero"/><g clip-path="url(#fd6c921314)"><path fill="#4a4d51" d="M 1379.667969 797.617188 C 1379.191406 797.617188 1378.882812 797.042969 1378.882812 796.035156 C 1378.882812 794.976562 1379.214844 794.414062 1379.671875 794.414062 C 1380.214844 794.414062 1380.460938 795.039062 1380.460938 796 C 1380.460938 796.988281 1380.203125 797.617188 1379.667969 797.617188 Z M 1379.703125 794.003906 C 1378.917969 794.003906 1378.355469 794.722656 1378.355469 796.027344 C 1378.367188 797.3125 1378.882812 798.027344 1379.636719 798.027344 C 1380.496094 798.027344 1380.984375 797.296875 1380.984375 795.972656 C 1380.984375 794.734375 1380.519531 794.003906 1379.703125 794.003906 " fill-opacity="1" fill-rule="nonzero"/></g><g clip-path="url(#eaedb0e1dd)"><path fill="#4a4d51" d="M 1407.957031 797.617188 C 1407.40625 797.617188 1407.117188 797.148438 1407.101562 796.507812 C 1407.101562 796.410156 1407.125 796.332031 1407.164062 796.273438 C 1407.304688 795.992188 1407.597656 795.792969 1407.914062 795.792969 C 1408.398438 795.792969 1408.710938 796.128906 1408.710938 796.6875 C 1408.710938 797.242188 1408.40625 797.617188 1407.957031 797.617188 Z M 1408.074219 795.398438 C 1407.644531 795.398438 1407.324219 795.601562 1407.140625 795.847656 L 1407.121094 795.847656 C 1407.210938 795.207031 1407.644531 794.601562 1408.46875 794.46875 C 1408.617188 794.441406 1408.753906 794.4375 1408.859375 794.441406 L 1408.859375 794.011719 C 1408.765625 794.011719 1408.636719 794.019531 1408.480469 794.042969 C 1407.992188 794.101562 1407.5625 794.300781 1407.242188 794.617188 C 1406.859375 795 1406.582031 795.601562 1406.582031 796.371094 C 1406.582031 797.378906 1407.125 798.023438 1407.957031 798.023438 C 1408.761719 798.023438 1409.242188 797.367188 1409.242188 796.65625 C 1409.242188 795.894531 1408.761719 795.398438 1408.074219 795.398438 " fill-opacity="1" fill-rule="nonzero"/></g><g clip-path="url(#08a7968ebd)"><path fill="#4a4d51" d="M 1410.964844 797.617188 C 1410.492188 797.617188 1410.179688 797.042969 1410.179688 796.035156 C 1410.179688 794.976562 1410.515625 794.414062 1410.972656 794.414062 C 1411.515625 794.414062 1411.761719 795.039062 1411.761719 796 C 1411.761719 796.988281 1411.503906 797.617188 1410.964844 797.617188 Z M 1411.003906 794.003906 C 1410.214844 794.003906 1409.65625 794.722656 1409.65625 796.027344 C 1409.667969 797.3125 1410.179688 798.027344 1410.9375 798.027344 C 1411.796875 798.027344 1412.285156 797.296875 1412.285156 795.972656 C 1412.285156 794.734375 1411.820312 794.003906 1411.003906 794.003906 " fill-opacity="1" fill-rule="nonzero"/></g></svg>