<svg xmlns="http://www.w3.org/2000/svg" xmlns:xlink="http://www.w3.org/1999/xlink" width="300" zoomAndPan="magnify" viewBox="0 0 224.87999 225" height="300" preserveAspectRatio="xMidYMid meet" version="1.0"><defs><clipPath id="1c33de8d28"><path d="M 0 0.0585938 L 224.761719 0.0585938 L 224.761719 224.9375 L 0 224.9375 Z M 0 0.0585938 " clip-rule="nonzero"/></clipPath><clipPath id="112f0a79dc"><path d="M 140 41.996094 L 185 41.996094 L 185 188 L 140 188 Z M 140 41.996094 " clip-rule="nonzero"/></clipPath><clipPath id="86d81dab24"><path d="M 33.316406 42 L 79 42 L 79 188.167969 L 33.316406 188.167969 Z M 33.316406 42 " clip-rule="nonzero"/></clipPath></defs><g clip-path="url(#1c33de8d28)"><path fill="#ffffff" d="M 0 0.0585938 L 224.878906 0.0585938 L 224.878906 232.4375 L 0 232.4375 Z M 0 0.0585938 " fill-opacity="1" fill-rule="nonzero"/><path fill="#ffffff" d="M 0 0.0585938 L 224.878906 0.0585938 L 224.878906 224.941406 L 0 224.941406 Z M 0 0.0585938 " fill-opacity="1" fill-rule="nonzero"/><path fill="#e6e6e6" d="M 0 0.0585938 L 224.878906 0.0585938 L 224.878906 224.941406 L 0 224.941406 Z M 0 0.0585938 " fill-opacity="1" fill-rule="nonzero"/></g><g clip-path="url(#112f0a79dc)"><path fill="#000000" d="M 181.699219 109.71875 L 171.605469 104.675781 L 171.605469 58.835938 C 171.605469 58.28125 171.574219 57.730469 171.519531 57.179688 C 171.464844 56.628906 171.382812 56.082031 171.273438 55.539062 C 171.164062 54.996094 171.027344 54.457031 170.863281 53.929688 C 170.703125 53.398438 170.515625 52.878906 170.300781 52.367188 C 170.089844 51.855469 169.851562 51.355469 169.589844 50.867188 C 169.324219 50.378906 169.039062 49.90625 168.730469 49.445312 C 168.421875 48.988281 168.089844 48.542969 167.738281 48.113281 C 167.382812 47.6875 167.011719 47.277344 166.617188 46.886719 C 166.226562 46.496094 165.8125 46.125 165.382812 45.773438 C 164.953125 45.421875 164.507812 45.09375 164.046875 44.785156 C 163.585938 44.476562 163.109375 44.195312 162.617188 43.933594 C 162.128906 43.671875 161.625 43.4375 161.113281 43.222656 C 160.601562 43.011719 160.078125 42.824219 159.546875 42.664062 C 159.015625 42.503906 158.476562 42.371094 157.929688 42.261719 C 157.386719 42.152344 156.839844 42.070312 156.285156 42.015625 C 155.730469 41.960938 155.179688 41.933594 154.621094 41.933594 L 144.449219 41.933594 C 143.925781 41.941406 143.425781 42.046875 142.945312 42.25 C 142.464844 42.457031 142.039062 42.742188 141.671875 43.113281 C 141.304688 43.484375 141.023438 43.910156 140.824219 44.390625 C 140.625 44.875 140.527344 45.375 140.527344 45.894531 C 140.527344 46.417969 140.625 46.917969 140.824219 47.398438 C 141.023438 47.882812 141.304688 48.308594 141.671875 48.679688 C 142.039062 49.050781 142.464844 49.335938 142.945312 49.539062 C 143.425781 49.746094 143.925781 49.851562 144.449219 49.855469 L 154.621094 49.855469 C 155.214844 49.855469 155.800781 49.914062 156.382812 50.03125 C 156.960938 50.144531 157.527344 50.316406 158.074219 50.542969 C 158.621094 50.765625 159.140625 51.042969 159.632812 51.371094 C 160.125 51.699219 160.582031 52.070312 161 52.488281 C 161.417969 52.902344 161.792969 53.355469 162.125 53.847656 C 162.453125 54.335938 162.730469 54.851562 162.960938 55.398438 C 163.1875 55.941406 163.359375 56.503906 163.476562 57.082031 C 163.59375 57.660156 163.65625 58.246094 163.65625 58.835938 L 163.65625 107.132812 C 163.648438 107.882812 163.839844 108.574219 164.234375 109.214844 C 164.625 109.851562 165.15625 110.335938 165.828125 110.671875 L 174.386719 114.949219 L 165.828125 119.199219 C 165.160156 119.535156 164.628906 120.023438 164.238281 120.660156 C 163.847656 121.296875 163.652344 121.992188 163.65625 122.738281 L 163.65625 171.035156 C 163.65625 171.625 163.597656 172.210938 163.480469 172.789062 C 163.363281 173.367188 163.191406 173.929688 162.964844 174.476562 C 162.738281 175.019531 162.457031 175.539062 162.128906 176.027344 C 161.800781 176.519531 161.425781 176.972656 161.003906 177.390625 C 160.585938 177.808594 160.128906 178.179688 159.636719 178.507812 C 159.144531 178.832031 158.621094 179.109375 158.074219 179.335938 C 157.527344 179.558594 156.964844 179.730469 156.382812 179.84375 C 155.800781 179.957031 155.214844 180.015625 154.621094 180.015625 L 144.449219 180.015625 C 143.925781 180.019531 143.425781 180.125 142.941406 180.332031 C 142.460938 180.535156 142.039062 180.820312 141.671875 181.191406 C 141.304688 181.5625 141.019531 181.988281 140.820312 182.472656 C 140.625 182.953125 140.523438 183.453125 140.523438 183.976562 C 140.523438 184.496094 140.625 185 140.820312 185.480469 C 141.019531 185.960938 141.304688 186.386719 141.671875 186.757812 C 142.039062 187.128906 142.460938 187.417969 142.941406 187.621094 C 143.425781 187.824219 143.925781 187.929688 144.449219 187.9375 L 154.621094 187.9375 C 155.179688 187.9375 155.730469 187.910156 156.285156 187.855469 C 156.835938 187.800781 157.386719 187.71875 157.929688 187.609375 C 158.476562 187.5 159.015625 187.367188 159.546875 187.207031 C 160.078125 187.046875 160.601562 186.859375 161.113281 186.648438 C 161.625 186.4375 162.128906 186.199219 162.617188 185.9375 C 163.109375 185.675781 163.585938 185.394531 164.046875 185.085938 C 164.507812 184.777344 164.953125 184.449219 165.382812 184.097656 C 165.8125 183.746094 166.226562 183.375 166.617188 182.984375 C 167.011719 182.59375 167.382812 182.183594 167.738281 181.757812 C 168.089844 181.328125 168.421875 180.886719 168.730469 180.425781 C 169.039062 179.964844 169.324219 179.492188 169.585938 179.003906 C 169.851562 178.515625 170.089844 178.015625 170.300781 177.503906 C 170.515625 176.992188 170.703125 176.472656 170.863281 175.941406 C 171.027344 175.414062 171.164062 174.878906 171.273438 174.335938 C 171.382812 173.792969 171.464844 173.246094 171.519531 172.695312 C 171.574219 172.140625 171.605469 171.589844 171.605469 171.035156 L 171.605469 125.195312 L 181.699219 120.152344 C 182.179688 119.902344 182.617188 119.597656 183.011719 119.230469 C 183.40625 118.863281 183.746094 118.449219 184.027344 117.988281 C 184.308594 117.527344 184.519531 117.039062 184.667969 116.519531 C 184.8125 116.003906 184.886719 115.472656 184.886719 114.9375 C 184.886719 114.398438 184.8125 113.867188 184.667969 113.351562 C 184.519531 112.832031 184.308594 112.34375 184.027344 111.882812 C 183.746094 111.421875 183.40625 111.007812 183.011719 110.640625 C 182.617188 110.273438 182.179688 109.96875 181.699219 109.71875 Z M 181.699219 109.71875 " fill-opacity="1" fill-rule="nonzero"/></g><g clip-path="url(#86d81dab24)"><path fill="#000000" d="M 74.398438 180.304688 L 64.222656 180.304688 C 63.632812 180.304688 63.046875 180.246094 62.464844 180.132812 C 61.882812 180.015625 61.320312 179.847656 60.773438 179.621094 C 60.226562 179.394531 59.707031 179.117188 59.214844 178.792969 C 58.722656 178.464844 58.265625 178.09375 57.847656 177.675781 C 57.425781 177.257812 57.054688 176.804688 56.722656 176.316406 C 56.394531 175.824219 56.113281 175.308594 55.886719 174.765625 C 55.660156 174.21875 55.484375 173.65625 55.367188 173.078125 C 55.25 172.5 55.191406 171.917969 55.1875 171.328125 L 55.1875 123.03125 C 55.199219 122.28125 55.003906 121.585938 54.613281 120.949219 C 54.222656 120.308594 53.6875 119.824219 53.015625 119.492188 L 44.460938 115.214844 L 53.015625 110.960938 C 53.6875 110.625 54.21875 110.136719 54.609375 109.5 C 55 108.863281 55.195312 108.171875 55.1875 107.421875 L 55.1875 59.125 C 55.191406 58.535156 55.25 57.949219 55.367188 57.371094 C 55.480469 56.792969 55.652344 56.230469 55.882812 55.6875 C 56.109375 55.140625 56.386719 54.625 56.71875 54.132812 C 57.046875 53.640625 57.421875 53.1875 57.839844 52.773438 C 58.261719 52.355469 58.71875 51.984375 59.210938 51.65625 C 59.703125 51.328125 60.222656 51.050781 60.769531 50.828125 C 61.320312 50.601562 61.882812 50.433594 62.464844 50.316406 C 63.046875 50.203125 63.632812 50.148438 64.222656 50.148438 L 74.398438 50.148438 C 74.660156 50.148438 74.917969 50.121094 75.171875 50.070312 C 75.429688 50.019531 75.675781 49.945312 75.917969 49.84375 C 76.160156 49.746094 76.386719 49.625 76.605469 49.480469 C 76.820312 49.335938 77.023438 49.171875 77.207031 48.988281 C 77.390625 48.800781 77.554688 48.601562 77.699219 48.386719 C 77.84375 48.171875 77.96875 47.941406 78.066406 47.703125 C 78.167969 47.460938 78.242188 47.214844 78.292969 46.957031 C 78.34375 46.703125 78.371094 46.445312 78.371094 46.1875 C 78.371094 45.925781 78.34375 45.667969 78.292969 45.414062 C 78.242188 45.160156 78.167969 44.910156 78.066406 44.671875 C 77.96875 44.429688 77.84375 44.203125 77.699219 43.984375 C 77.554688 43.769531 77.390625 43.570312 77.207031 43.386719 C 77.023438 43.203125 76.820312 43.039062 76.605469 42.894531 C 76.386719 42.75 76.160156 42.625 75.917969 42.527344 C 75.675781 42.429688 75.429688 42.351562 75.171875 42.300781 C 74.917969 42.25 74.660156 42.226562 74.398438 42.226562 L 64.222656 42.226562 C 63.667969 42.226562 63.113281 42.253906 62.5625 42.308594 C 62.007812 42.363281 61.460938 42.445312 60.914062 42.550781 C 60.371094 42.660156 59.832031 42.792969 59.300781 42.957031 C 58.769531 43.117188 58.246094 43.300781 57.734375 43.515625 C 57.21875 43.726562 56.71875 43.960938 56.226562 44.222656 C 55.738281 44.484375 55.261719 44.769531 54.800781 45.074219 C 54.335938 45.382812 53.890625 45.710938 53.460938 46.0625 C 53.03125 46.414062 52.621094 46.785156 52.226562 47.175781 C 51.835938 47.566406 51.460938 47.976562 51.109375 48.40625 C 50.757812 48.832031 50.425781 49.277344 50.117188 49.738281 C 49.808594 50.195312 49.519531 50.671875 49.257812 51.160156 C 48.996094 51.648438 48.757812 52.148438 48.542969 52.65625 C 48.332031 53.167969 48.144531 53.691406 47.980469 54.21875 C 47.820312 54.75 47.683594 55.285156 47.574219 55.828125 C 47.464844 56.371094 47.382812 56.917969 47.328125 57.46875 C 47.269531 58.019531 47.242188 58.570312 47.242188 59.125 L 47.242188 104.96875 L 37.148438 110.011719 C 36.660156 110.253906 36.21875 110.558594 35.816406 110.921875 C 35.417969 111.289062 35.074219 111.699219 34.789062 112.160156 C 34.503906 112.621094 34.285156 113.113281 34.136719 113.632812 C 33.988281 114.152344 33.914062 114.683594 33.914062 115.226562 C 33.914062 115.765625 33.988281 116.296875 34.136719 116.820312 C 34.285156 117.339844 34.503906 117.832031 34.789062 118.289062 C 35.074219 118.75 35.417969 119.164062 35.816406 119.53125 C 36.21875 119.894531 36.660156 120.199219 37.148438 120.441406 L 47.242188 125.484375 L 47.242188 171.328125 C 47.242188 171.878906 47.269531 172.433594 47.328125 172.984375 C 47.382812 173.535156 47.464844 174.082031 47.574219 174.625 C 47.683594 175.167969 47.820312 175.703125 47.980469 176.234375 C 48.144531 176.761719 48.332031 177.285156 48.542969 177.792969 C 48.757812 178.304688 48.996094 178.804688 49.257812 179.292969 C 49.519531 179.78125 49.808594 180.253906 50.117188 180.714844 C 50.425781 181.175781 50.757812 181.621094 51.109375 182.046875 C 51.460938 182.476562 51.835938 182.882812 52.226562 183.273438 C 52.621094 183.667969 53.03125 184.039062 53.460938 184.390625 C 53.890625 184.738281 54.335938 185.070312 54.800781 185.375 C 55.261719 185.683594 55.738281 185.96875 56.226562 186.230469 C 56.71875 186.488281 57.21875 186.726562 57.734375 186.9375 C 58.246094 187.148438 58.769531 187.335938 59.300781 187.496094 C 59.832031 187.65625 60.371094 187.792969 60.914062 187.902344 C 61.460938 188.007812 62.007812 188.089844 62.5625 188.144531 C 63.113281 188.199219 63.667969 188.226562 64.222656 188.226562 L 74.398438 188.226562 C 74.921875 188.21875 75.421875 188.113281 75.902344 187.910156 C 76.382812 187.707031 76.808594 187.417969 77.171875 187.046875 C 77.539062 186.679688 77.824219 186.25 78.023438 185.769531 C 78.21875 185.289062 78.320312 184.785156 78.320312 184.265625 C 78.320312 183.746094 78.21875 183.246094 78.023438 182.761719 C 77.824219 182.28125 77.539062 181.855469 77.171875 181.484375 C 76.808594 181.113281 76.382812 180.824219 75.902344 180.621094 C 75.421875 180.417969 74.921875 180.3125 74.398438 180.304688 Z M 74.398438 180.304688 " fill-opacity="1" fill-rule="nonzero"/></g><path fill="#000000" d="M 73.257812 63.457031 L 73.257812 84.582031 C 73.265625 85.101562 73.375 85.601562 73.578125 86.078125 C 73.785156 86.558594 74.070312 86.976562 74.445312 87.34375 C 74.816406 87.707031 75.242188 87.988281 75.726562 88.1875 C 76.207031 88.382812 76.710938 88.480469 77.234375 88.480469 C 77.753906 88.480469 78.257812 88.382812 78.738281 88.1875 C 79.222656 87.988281 79.648438 87.707031 80.019531 87.34375 C 80.394531 86.976562 80.679688 86.554688 80.886719 86.078125 C 81.09375 85.601562 81.199219 85.101562 81.207031 84.582031 L 81.207031 63.457031 C 81.199219 62.9375 81.09375 62.4375 80.886719 61.957031 C 80.683594 61.480469 80.394531 61.058594 80.023438 60.691406 C 79.652344 60.328125 79.222656 60.046875 78.742188 59.847656 C 78.257812 59.652344 77.753906 59.550781 77.234375 59.550781 C 76.710938 59.550781 76.207031 59.652344 75.726562 59.847656 C 75.242188 60.046875 74.8125 60.328125 74.441406 60.691406 C 74.070312 61.058594 73.78125 61.480469 73.578125 61.957031 C 73.371094 62.4375 73.265625 62.9375 73.257812 63.457031 Z M 73.257812 63.457031 " fill-opacity="1" fill-rule="nonzero"/><path fill="#000000" d="M 109.898438 59.496094 C 109.285156 59.496094 108.675781 59.554688 108.070312 59.675781 C 107.464844 59.792969 106.878906 59.972656 106.3125 60.207031 C 105.742188 60.441406 105.203125 60.730469 104.691406 61.070312 C 104.175781 61.410156 103.703125 61.800781 103.269531 62.234375 C 102.832031 62.667969 102.445312 63.140625 102.101562 63.648438 C 101.757812 64.160156 101.472656 64.699219 101.234375 65.265625 C 101 65.832031 100.820312 66.417969 100.703125 67.019531 C 100.582031 67.621094 100.519531 68.230469 100.519531 68.84375 L 100.519531 79.195312 C 100.527344 79.804688 100.589844 80.410156 100.714844 81.007812 C 100.839844 81.605469 101.019531 82.183594 101.257812 82.746094 C 101.496094 83.308594 101.789062 83.84375 102.128906 84.347656 C 102.472656 84.855469 102.863281 85.320312 103.296875 85.75 C 103.730469 86.179688 104.203125 86.5625 104.714844 86.902344 C 105.226562 87.238281 105.761719 87.523438 106.328125 87.757812 C 106.894531 87.988281 107.480469 88.164062 108.082031 88.28125 C 108.679688 88.402344 109.289062 88.460938 109.898438 88.460938 C 110.511719 88.460938 111.117188 88.402344 111.71875 88.28125 C 112.320312 88.164062 112.902344 87.988281 113.46875 87.757812 C 114.035156 87.523438 114.574219 87.238281 115.085938 86.902344 C 115.59375 86.5625 116.066406 86.179688 116.503906 85.75 C 116.9375 85.320312 117.328125 84.855469 117.667969 84.347656 C 118.011719 83.84375 118.304688 83.308594 118.542969 82.746094 C 118.78125 82.183594 118.960938 81.605469 119.085938 81.007812 C 119.207031 80.410156 119.273438 79.804688 119.277344 79.195312 L 119.277344 68.84375 C 119.277344 68.230469 119.21875 67.621094 119.097656 67.019531 C 118.976562 66.417969 118.796875 65.835938 118.558594 65.269531 C 118.324219 64.703125 118.035156 64.164062 117.691406 63.652344 C 117.351562 63.144531 116.960938 62.671875 116.527344 62.238281 C 116.089844 61.804688 115.617188 61.417969 115.105469 61.074219 C 114.59375 60.734375 114.054688 60.445312 113.488281 60.210938 C 112.917969 59.976562 112.332031 59.796875 111.730469 59.679688 C 111.125 59.558594 110.515625 59.496094 109.898438 59.496094 Z M 112.65625 79.195312 C 112.648438 79.554688 112.574219 79.902344 112.433594 80.234375 C 112.292969 80.5625 112.089844 80.855469 111.832031 81.109375 C 111.574219 81.363281 111.28125 81.558594 110.945312 81.695312 C 110.609375 81.832031 110.261719 81.898438 109.898438 81.898438 C 109.539062 81.898438 109.191406 81.832031 108.855469 81.695312 C 108.519531 81.558594 108.222656 81.363281 107.964844 81.109375 C 107.707031 80.855469 107.507812 80.5625 107.367188 80.234375 C 107.222656 79.902344 107.148438 79.554688 107.144531 79.195312 L 107.144531 68.84375 C 107.148438 68.480469 107.222656 68.136719 107.363281 67.804688 C 107.507812 67.472656 107.707031 67.179688 107.964844 66.925781 C 108.222656 66.671875 108.519531 66.476562 108.855469 66.339844 C 109.1875 66.203125 109.539062 66.132812 109.898438 66.132812 C 110.261719 66.132812 110.609375 66.203125 110.945312 66.339844 C 111.28125 66.476562 111.578125 66.671875 111.835938 66.925781 C 112.09375 67.179688 112.292969 67.472656 112.433594 67.804688 C 112.578125 68.136719 112.652344 68.480469 112.65625 68.84375 Z M 112.65625 79.195312 " fill-opacity="1" fill-rule="nonzero"/><path fill="#000000" d="M 150.675781 161.082031 L 150.675781 150.757812 C 150.667969 150.144531 150.605469 149.542969 150.480469 148.945312 C 150.355469 148.347656 150.175781 147.765625 149.9375 147.203125 C 149.699219 146.644531 149.40625 146.109375 149.066406 145.605469 C 148.722656 145.097656 148.332031 144.628906 147.898438 144.199219 C 147.460938 143.773438 146.992188 143.386719 146.480469 143.050781 C 145.96875 142.714844 145.429688 142.429688 144.867188 142.195312 C 144.300781 141.964844 143.714844 141.789062 143.113281 141.671875 C 142.515625 141.550781 141.90625 141.492188 141.296875 141.492188 C 140.683594 141.492188 140.078125 141.550781 139.476562 141.671875 C 138.875 141.789062 138.292969 141.964844 137.726562 142.195312 C 137.160156 142.429688 136.621094 142.714844 136.113281 143.050781 C 135.601562 143.386719 135.128906 143.773438 134.695312 144.203125 C 134.257812 144.628906 133.871094 145.097656 133.527344 145.605469 C 133.183594 146.109375 132.894531 146.644531 132.65625 147.207031 C 132.417969 147.765625 132.234375 148.347656 132.113281 148.945312 C 131.988281 149.542969 131.921875 150.144531 131.917969 150.757812 L 131.917969 161.082031 C 131.917969 161.695312 131.980469 162.300781 132.101562 162.898438 C 132.226562 163.5 132.402344 164.082031 132.640625 164.648438 C 132.878906 165.210938 133.167969 165.75 133.507812 166.257812 C 133.851562 166.765625 134.242188 167.234375 134.675781 167.667969 C 135.113281 168.101562 135.585938 168.484375 136.097656 168.824219 C 136.609375 169.164062 137.148438 169.453125 137.714844 169.6875 C 138.28125 169.917969 138.867188 170.097656 139.46875 170.214844 C 140.074219 170.335938 140.679688 170.394531 141.296875 170.394531 C 141.910156 170.394531 142.519531 170.335938 143.121094 170.214844 C 143.722656 170.097656 144.308594 169.917969 144.875 169.6875 C 145.445312 169.453125 145.984375 169.164062 146.496094 168.824219 C 147.007812 168.484375 147.480469 168.101562 147.914062 167.667969 C 148.351562 167.234375 148.738281 166.765625 149.082031 166.257812 C 149.425781 165.75 149.714844 165.210938 149.949219 164.648438 C 150.1875 164.082031 150.367188 163.5 150.488281 162.898438 C 150.609375 162.300781 150.671875 161.695312 150.675781 161.082031 Z M 138.539062 161.082031 L 138.539062 150.757812 C 138.546875 150.394531 138.617188 150.046875 138.761719 149.714844 C 138.902344 149.382812 139.101562 149.089844 139.359375 148.839844 C 139.617188 148.585938 139.914062 148.390625 140.25 148.253906 C 140.585938 148.117188 140.933594 148.046875 141.296875 148.046875 C 141.65625 148.046875 142.007812 148.117188 142.34375 148.253906 C 142.675781 148.390625 142.972656 148.585938 143.230469 148.839844 C 143.488281 149.089844 143.6875 149.382812 143.832031 149.714844 C 143.972656 150.046875 144.046875 150.394531 144.050781 150.757812 L 144.050781 161.082031 C 144.050781 161.445312 143.980469 161.796875 143.839844 162.132812 C 143.703125 162.46875 143.503906 162.765625 143.246094 163.023438 C 142.984375 163.28125 142.6875 163.480469 142.351562 163.617188 C 142.011719 163.757812 141.660156 163.828125 141.296875 163.828125 C 140.929688 163.828125 140.578125 163.757812 140.242188 163.617188 C 139.902344 163.480469 139.605469 163.28125 139.347656 163.023438 C 139.089844 162.765625 138.890625 162.46875 138.75 162.132812 C 138.609375 161.796875 138.539062 161.445312 138.539062 161.082031 Z M 138.539062 161.082031 " fill-opacity="1" fill-rule="nonzero"/><path fill="#000000" d="M 77.234375 101.402344 C 76.707031 101.402344 76.199219 101.503906 75.714844 101.707031 C 75.226562 101.910156 74.796875 102.195312 74.425781 102.566406 C 74.054688 102.9375 73.765625 103.363281 73.5625 103.847656 C 73.363281 104.332031 73.261719 104.839844 73.257812 105.363281 L 73.257812 126.488281 C 73.265625 127.007812 73.371094 127.507812 73.578125 127.988281 C 73.78125 128.464844 74.070312 128.886719 74.441406 129.253906 C 74.8125 129.617188 75.242188 129.898438 75.726562 130.097656 C 76.207031 130.292969 76.710938 130.390625 77.234375 130.390625 C 77.753906 130.390625 78.257812 130.292969 78.742188 130.097656 C 79.222656 129.898438 79.652344 129.617188 80.023438 129.253906 C 80.394531 128.886719 80.683594 128.464844 80.886719 127.988281 C 81.09375 127.507812 81.199219 127.007812 81.207031 126.488281 L 81.207031 105.363281 C 81.203125 104.839844 81.097656 104.335938 80.898438 103.851562 C 80.695312 103.367188 80.40625 102.941406 80.035156 102.570312 C 79.664062 102.199219 79.234375 101.914062 78.75 101.710938 C 78.265625 101.507812 77.757812 101.40625 77.234375 101.402344 Z M 77.234375 101.402344 " fill-opacity="1" fill-rule="nonzero"/><path fill="#000000" d="M 137.296875 105.363281 L 137.296875 126.488281 C 137.304688 127.007812 137.410156 127.507812 137.613281 127.988281 C 137.820312 128.464844 138.109375 128.886719 138.480469 129.253906 C 138.851562 129.617188 139.277344 129.898438 139.761719 130.097656 C 140.246094 130.292969 140.746094 130.390625 141.269531 130.390625 C 141.792969 130.390625 142.292969 130.292969 142.777344 130.097656 C 143.261719 129.898438 143.6875 129.617188 144.058594 129.253906 C 144.429688 128.886719 144.71875 128.464844 144.925781 127.988281 C 145.128906 127.507812 145.234375 127.007812 145.242188 126.488281 L 145.242188 105.363281 C 145.234375 104.84375 145.128906 104.34375 144.921875 103.867188 C 144.71875 103.386719 144.429688 102.964844 144.058594 102.601562 C 143.6875 102.238281 143.257812 101.957031 142.777344 101.757812 C 142.292969 101.5625 141.792969 101.464844 141.269531 101.464844 C 140.746094 101.464844 140.246094 101.5625 139.761719 101.757812 C 139.28125 101.957031 138.851562 102.238281 138.480469 102.601562 C 138.109375 102.964844 137.820312 103.386719 137.613281 103.867188 C 137.410156 104.34375 137.304688 104.84375 137.296875 105.363281 Z M 137.296875 105.363281 " fill-opacity="1" fill-rule="nonzero"/><path fill="#000000" d="M 109.898438 101.453125 C 109.640625 101.453125 109.378906 101.480469 109.125 101.53125 C 108.867188 101.582031 108.621094 101.65625 108.378906 101.753906 C 108.136719 101.855469 107.90625 101.976562 107.691406 102.121094 C 107.472656 102.265625 107.273438 102.429688 107.089844 102.613281 C 106.902344 102.796875 106.738281 102.996094 106.59375 103.214844 C 106.449219 103.429688 106.328125 103.660156 106.226562 103.898438 C 106.128906 104.140625 106.050781 104.386719 106 104.644531 C 105.949219 104.898438 105.925781 105.15625 105.925781 105.417969 L 105.925781 126.542969 C 105.933594 127.0625 106.039062 127.5625 106.246094 128.039062 C 106.449219 128.519531 106.738281 128.941406 107.109375 129.304688 C 107.480469 129.671875 107.910156 129.953125 108.390625 130.148438 C 108.875 130.347656 109.378906 130.445312 109.898438 130.445312 C 110.421875 130.445312 110.925781 130.347656 111.40625 130.148438 C 111.890625 129.953125 112.320312 129.671875 112.691406 129.304688 C 113.0625 128.941406 113.351562 128.519531 113.554688 128.039062 C 113.761719 127.5625 113.867188 127.0625 113.875 126.542969 L 113.875 105.417969 C 113.871094 104.890625 113.769531 104.386719 113.570312 103.902344 C 113.367188 103.417969 113.078125 102.988281 112.707031 102.617188 C 112.335938 102.246094 111.90625 101.960938 111.417969 101.757812 C 110.933594 101.558594 110.425781 101.457031 109.898438 101.453125 Z M 109.898438 101.453125 " fill-opacity="1" fill-rule="nonzero"/><path fill="#000000" d="M 109.898438 141.410156 C 109.640625 141.40625 109.378906 141.433594 109.125 141.484375 C 108.867188 141.535156 108.621094 141.609375 108.378906 141.707031 C 108.136719 141.808594 107.90625 141.929688 107.691406 142.074219 C 107.472656 142.21875 107.273438 142.382812 107.089844 142.566406 C 106.902344 142.75 106.738281 142.949219 106.59375 143.167969 C 106.449219 143.382812 106.328125 143.613281 106.226562 143.851562 C 106.128906 144.09375 106.050781 144.339844 106 144.597656 C 105.949219 144.851562 105.925781 145.109375 105.925781 145.371094 L 105.925781 166.496094 C 105.933594 167.015625 106.039062 167.511719 106.246094 167.992188 C 106.453125 168.46875 106.738281 168.890625 107.113281 169.253906 C 107.484375 169.621094 107.910156 169.902344 108.394531 170.097656 C 108.875 170.296875 109.378906 170.394531 109.898438 170.394531 C 110.421875 170.394531 110.925781 170.296875 111.40625 170.097656 C 111.890625 169.902344 112.316406 169.621094 112.6875 169.253906 C 113.058594 168.890625 113.347656 168.46875 113.554688 167.992188 C 113.757812 167.511719 113.867188 167.015625 113.875 166.496094 L 113.875 145.371094 C 113.871094 144.84375 113.769531 144.339844 113.570312 143.855469 C 113.367188 143.371094 113.078125 142.941406 112.707031 142.570312 C 112.335938 142.199219 111.90625 141.914062 111.417969 141.710938 C 110.933594 141.511719 110.425781 141.410156 109.898438 141.410156 Z M 109.898438 141.410156 " fill-opacity="1" fill-rule="nonzero"/><path fill="#000000" d="M 141.234375 82.734375 C 140.910156 82.730469 140.597656 82.679688 140.292969 82.574219 C 139.992188 82.46875 139.710938 82.316406 139.460938 82.121094 C 139.207031 81.921875 138.992188 81.691406 138.816406 81.421875 C 138.640625 81.15625 138.511719 80.863281 138.433594 80.554688 C 138.332031 80.1875 138.164062 79.851562 137.929688 79.546875 C 137.695312 79.246094 137.414062 79 137.082031 78.808594 C 136.75 78.617188 136.394531 78.496094 136.015625 78.441406 C 135.636719 78.390625 135.261719 78.414062 134.890625 78.507812 C 134.519531 78.605469 134.179688 78.765625 133.875 78.992188 C 133.566406 79.222656 133.316406 79.5 133.117188 79.828125 C 132.917969 80.152344 132.792969 80.507812 132.734375 80.882812 C 132.675781 81.261719 132.691406 81.636719 132.78125 82.007812 C 132.863281 82.324219 132.964844 82.636719 133.082031 82.945312 C 133.199219 83.253906 133.335938 83.550781 133.488281 83.84375 C 133.636719 84.136719 133.804688 84.417969 133.992188 84.691406 C 134.175781 84.964844 134.375 85.226562 134.585938 85.476562 C 134.800781 85.726562 135.027344 85.964844 135.269531 86.1875 C 135.511719 86.414062 135.761719 86.625 136.027344 86.820312 C 136.292969 87.015625 136.566406 87.195312 136.851562 87.363281 C 137.136719 87.527344 137.429688 87.675781 137.734375 87.808594 C 138.035156 87.941406 138.34375 88.054688 138.660156 88.152344 C 138.972656 88.25 139.292969 88.328125 139.617188 88.390625 C 139.941406 88.453125 140.269531 88.492188 140.597656 88.519531 C 140.925781 88.542969 141.257812 88.546875 141.585938 88.535156 C 141.914062 88.523438 142.242188 88.492188 142.570312 88.441406 C 142.894531 88.390625 143.21875 88.324219 143.535156 88.238281 C 143.855469 88.152344 144.167969 88.046875 144.472656 87.925781 C 144.78125 87.804688 145.078125 87.667969 145.371094 87.511719 C 145.660156 87.355469 145.941406 87.1875 146.214844 87 C 146.484375 86.8125 146.746094 86.609375 146.992188 86.394531 C 147.242188 86.179688 147.476562 85.949219 147.699219 85.707031 C 147.921875 85.464844 148.128906 85.207031 148.324219 84.941406 C 148.519531 84.675781 148.695312 84.398438 148.859375 84.113281 C 149.019531 83.828125 149.164062 83.53125 149.292969 83.230469 C 149.421875 82.925781 149.535156 82.617188 149.628906 82.304688 C 149.722656 81.988281 149.796875 81.667969 149.855469 81.34375 C 149.914062 81.019531 149.949219 80.695312 149.972656 80.367188 C 149.992188 80.039062 149.992188 79.710938 149.976562 79.382812 C 149.960938 79.054688 149.925781 78.726562 149.871094 78.402344 C 149.816406 78.078125 149.742188 77.757812 149.652344 77.441406 C 149.5625 77.125 149.453125 76.816406 149.328125 76.511719 C 149.203125 76.207031 149.0625 75.910156 148.902344 75.621094 C 148.742188 75.335938 148.566406 75.058594 148.375 74.789062 C 148.1875 74.519531 147.980469 74.265625 147.761719 74.019531 C 147.980469 73.773438 148.183594 73.519531 148.371094 73.253906 C 148.5625 72.988281 148.738281 72.710938 148.894531 72.425781 C 149.054688 72.140625 149.195312 71.847656 149.320312 71.546875 C 149.449219 71.242188 149.554688 70.9375 149.648438 70.621094 C 149.738281 70.308594 149.808594 69.988281 149.867188 69.667969 C 149.921875 69.347656 149.957031 69.023438 149.976562 68.695312 C 149.992188 68.371094 149.992188 68.042969 149.976562 67.71875 C 149.957031 67.390625 149.921875 67.066406 149.863281 66.746094 C 149.808594 66.421875 149.738281 66.105469 149.644531 65.792969 C 149.554688 65.476562 149.449219 65.171875 149.320312 64.867188 C 149.195312 64.566406 149.054688 64.273438 148.894531 63.988281 C 148.738281 63.703125 148.5625 63.425781 148.371094 63.160156 C 148.183594 62.894531 147.976562 62.640625 147.761719 62.394531 C 147.542969 62.152344 147.308594 61.921875 147.066406 61.703125 C 146.820312 61.488281 146.5625 61.285156 146.296875 61.09375 C 146.03125 60.90625 145.753906 60.734375 145.464844 60.578125 C 145.179688 60.417969 144.882812 60.277344 144.582031 60.152344 C 144.277344 60.027344 143.96875 59.921875 143.652344 59.832031 C 143.339844 59.742188 143.019531 59.667969 142.695312 59.617188 C 142.371094 59.5625 142.046875 59.527344 141.71875 59.507812 C 141.394531 59.492188 141.066406 59.492188 140.738281 59.511719 C 140.410156 59.527344 140.085938 59.566406 139.761719 59.621094 C 139.441406 59.675781 139.121094 59.75 138.808594 59.839844 C 138.492188 59.933594 138.183594 60.042969 137.882812 60.167969 C 137.578125 60.292969 137.285156 60.433594 137 60.59375 C 136.710938 60.753906 136.4375 60.925781 136.167969 61.117188 C 135.902344 61.304688 135.648438 61.511719 135.402344 61.730469 C 135.160156 61.949219 134.929688 62.179688 134.710938 62.421875 C 134.492188 62.667969 134.289062 62.921875 134.101562 63.191406 C 133.914062 63.457031 133.738281 63.734375 133.582031 64.019531 C 133.425781 64.304688 133.285156 64.601562 133.160156 64.902344 C 133.035156 65.203125 132.929688 65.511719 132.839844 65.828125 C 132.734375 66.195312 132.707031 66.574219 132.75 66.953125 C 132.796875 67.335938 132.914062 67.695312 133.101562 68.027344 C 133.289062 68.363281 133.535156 68.648438 133.839844 68.886719 C 134.140625 69.125 134.480469 69.296875 134.851562 69.398438 C 135.222656 69.503906 135.601562 69.535156 135.988281 69.488281 C 136.371094 69.445312 136.734375 69.328125 137.070312 69.140625 C 137.410156 68.953125 137.699219 68.707031 137.941406 68.40625 C 138.183594 68.101562 138.355469 67.765625 138.464844 67.394531 C 138.566406 67.050781 138.726562 66.730469 138.945312 66.445312 C 139.167969 66.15625 139.433594 65.917969 139.742188 65.730469 C 140.050781 65.542969 140.382812 65.417969 140.742188 65.351562 C 141.097656 65.285156 141.453125 65.289062 141.808594 65.355469 C 142.164062 65.425781 142.496094 65.554688 142.804688 65.746094 C 143.113281 65.9375 143.375 66.175781 143.59375 66.464844 C 143.8125 66.753906 143.96875 67.074219 144.066406 67.421875 C 144.164062 67.769531 144.195312 68.125 144.164062 68.484375 C 144.128906 68.84375 144.03125 69.183594 143.867188 69.507812 C 143.707031 69.832031 143.492188 70.113281 143.222656 70.359375 C 142.953125 70.601562 142.652344 70.789062 142.3125 70.917969 C 141.976562 71.046875 141.625 71.113281 141.261719 71.113281 C 140.875 71.113281 140.503906 71.1875 140.144531 71.335938 C 139.789062 71.484375 139.472656 71.691406 139.199219 71.964844 C 138.925781 72.238281 138.71875 72.550781 138.570312 72.90625 C 138.421875 73.261719 138.347656 73.632812 138.347656 74.019531 C 138.347656 74.402344 138.421875 74.773438 138.570312 75.128906 C 138.71875 75.484375 138.925781 75.800781 139.199219 76.074219 C 139.472656 76.34375 139.789062 76.554688 140.144531 76.703125 C 140.503906 76.851562 140.875 76.921875 141.261719 76.921875 C 141.644531 76.929688 142.015625 77.007812 142.367188 77.15625 C 142.71875 77.308594 143.03125 77.519531 143.300781 77.792969 C 143.570312 78.066406 143.777344 78.382812 143.921875 78.734375 C 144.066406 79.089844 144.136719 79.460938 144.132812 79.84375 C 144.132812 80.226562 144.058594 80.59375 143.910156 80.945312 C 143.761719 81.300781 143.550781 81.613281 143.28125 81.882812 C 143.007812 82.152344 142.695312 82.363281 142.339844 82.507812 C 141.984375 82.65625 141.617188 82.730469 141.234375 82.734375 Z M 141.234375 82.734375 " fill-opacity="1" fill-rule="nonzero"/><path fill="#000000" d="M 75.5 141.410156 C 74.546875 141.410156 73.621094 141.558594 72.71875 141.863281 C 71.816406 142.164062 70.988281 142.601562 70.226562 143.171875 C 69.46875 143.742188 68.816406 144.417969 68.277344 145.199219 C 67.742188 145.980469 67.339844 146.828125 67.078125 147.742188 C 66.972656 148.109375 66.945312 148.484375 66.988281 148.867188 C 67.035156 149.25 67.152344 149.605469 67.339844 149.941406 C 67.53125 150.277344 67.773438 150.5625 68.078125 150.800781 C 68.382812 151.039062 68.71875 151.210938 69.089844 151.3125 C 69.460938 151.417969 69.839844 151.445312 70.226562 151.402344 C 70.609375 151.355469 70.972656 151.238281 71.308594 151.050781 C 71.648438 150.863281 71.9375 150.621094 72.179688 150.316406 C 72.421875 150.015625 72.59375 149.679688 72.703125 149.308594 C 72.804688 148.960938 72.964844 148.644531 73.183594 148.359375 C 73.40625 148.070312 73.671875 147.832031 73.980469 147.644531 C 74.289062 147.457031 74.621094 147.328125 74.980469 147.265625 C 75.335938 147.199219 75.691406 147.203125 76.046875 147.269531 C 76.40625 147.335938 76.738281 147.46875 77.042969 147.660156 C 77.351562 147.851562 77.613281 148.089844 77.832031 148.378906 C 78.050781 148.667969 78.207031 148.988281 78.304688 149.335938 C 78.402344 149.683594 78.4375 150.035156 78.402344 150.398438 C 78.367188 150.757812 78.269531 151.097656 78.105469 151.421875 C 77.945312 151.746094 77.730469 152.027344 77.460938 152.269531 C 77.191406 152.515625 76.890625 152.699219 76.550781 152.832031 C 76.214844 152.960938 75.863281 153.027344 75.5 153.027344 C 75.117188 153.03125 74.75 153.109375 74.398438 153.257812 C 74.046875 153.410156 73.734375 153.621094 73.464844 153.890625 C 73.195312 154.164062 72.988281 154.476562 72.84375 154.828125 C 72.699219 155.183594 72.625 155.550781 72.625 155.933594 C 72.625 156.3125 72.699219 156.679688 72.84375 157.035156 C 72.988281 157.386719 73.195312 157.699219 73.464844 157.972656 C 73.734375 158.242188 74.046875 158.453125 74.398438 158.605469 C 74.75 158.753906 75.117188 158.832031 75.5 158.835938 C 75.867188 158.835938 76.21875 158.902344 76.558594 159.035156 C 76.898438 159.167969 77.203125 159.359375 77.472656 159.605469 C 77.738281 159.851562 77.953125 160.140625 78.113281 160.464844 C 78.273438 160.792969 78.371094 161.136719 78.398438 161.5 C 78.429688 161.863281 78.394531 162.21875 78.289062 162.566406 C 78.183594 162.917969 78.023438 163.234375 77.796875 163.523438 C 77.574219 163.808594 77.304688 164.046875 76.992188 164.234375 C 76.679688 164.421875 76.34375 164.542969 75.980469 164.605469 C 75.621094 164.667969 75.261719 164.660156 74.90625 164.585938 C 74.546875 164.511719 74.214844 164.375 73.910156 164.179688 C 73.605469 163.980469 73.34375 163.734375 73.128906 163.4375 C 72.917969 163.144531 72.765625 162.820312 72.671875 162.46875 C 72.570312 162.097656 72.402344 161.757812 72.171875 161.453125 C 71.9375 161.148438 71.652344 160.898438 71.320312 160.703125 C 70.988281 160.507812 70.632812 160.382812 70.25 160.324219 C 69.871094 160.269531 69.492188 160.285156 69.117188 160.375 C 68.742188 160.472656 68.402344 160.636719 68.09375 160.871094 C 67.785156 161.101562 67.53125 161.382812 67.335938 161.714844 C 67.136719 162.046875 67.011719 162.40625 66.957031 162.785156 C 66.902344 163.167969 66.921875 163.546875 67.019531 163.917969 C 67.152344 164.429688 67.328125 164.921875 67.550781 165.398438 C 67.773438 165.878906 68.035156 166.332031 68.339844 166.761719 C 68.644531 167.191406 68.984375 167.589844 69.363281 167.957031 C 69.738281 168.328125 70.144531 168.660156 70.582031 168.953125 C 71.019531 169.25 71.480469 169.503906 71.960938 169.714844 C 72.445312 169.925781 72.945312 170.09375 73.457031 170.214844 C 73.96875 170.339844 74.492188 170.414062 75.015625 170.441406 C 75.542969 170.472656 76.070312 170.453125 76.59375 170.386719 C 77.117188 170.320312 77.628906 170.207031 78.132812 170.050781 C 78.636719 169.890625 79.121094 169.6875 79.589844 169.441406 C 80.054688 169.195312 80.496094 168.910156 80.910156 168.582031 C 81.324219 168.257812 81.707031 167.898438 82.054688 167.503906 C 82.40625 167.109375 82.714844 166.6875 82.988281 166.234375 C 83.261719 165.785156 83.488281 165.3125 83.675781 164.820312 C 83.863281 164.328125 84.003906 163.824219 84.101562 163.308594 C 84.195312 162.789062 84.242188 162.265625 84.242188 161.742188 C 84.246094 160.667969 84.054688 159.628906 83.667969 158.628906 C 83.28125 157.625 82.722656 156.726562 82 155.933594 C 82.554688 155.304688 83.007812 154.609375 83.363281 153.851562 C 83.71875 153.089844 83.957031 152.296875 84.085938 151.46875 C 84.210938 150.640625 84.21875 149.8125 84.105469 148.984375 C 83.992188 148.15625 83.765625 147.359375 83.421875 146.59375 C 83.082031 145.828125 82.636719 145.128906 82.09375 144.488281 C 81.550781 143.851562 80.925781 143.304688 80.222656 142.84375 C 79.523438 142.382812 78.769531 142.03125 77.964844 141.789062 C 77.160156 141.542969 76.339844 141.417969 75.5 141.410156 Z M 75.5 141.410156 " fill-opacity="1" fill-rule="nonzero"/></svg>