<svg xmlns="http://www.w3.org/2000/svg" xmlns:xlink="http://www.w3.org/1999/xlink" width="286" zoomAndPan="magnify" viewBox="0 0 214.5 135.000003" height="180" preserveAspectRatio="xMidYMid meet" version="1.0"><defs><clipPath id="c55e947085"><path d="M 0.539062 0 L 213.464844 0 L 213.464844 134.007812 L 0.539062 134.007812 Z M 0.539062 0 " clip-rule="nonzero"/></clipPath><clipPath id="80a7a11459"><path d="M 72.925781 31.269531 L 80 31.269531 L 80 84.484375 L 72.925781 84.484375 Z M 72.925781 31.269531 " clip-rule="nonzero"/></clipPath><clipPath id="7afbb2d038"><path d="M 124 31.269531 L 131.875 31.269531 L 131.875 84.484375 L 124 84.484375 Z M 124 31.269531 " clip-rule="nonzero"/></clipPath><clipPath id="4593576739"><path d="M 0.539062 97 L 213.464844 97 L 213.464844 134.007812 L 0.539062 134.007812 Z M 0.539062 97 " clip-rule="nonzero"/></clipPath></defs><g clip-path="url(#c55e947085)"><path fill="#ffffff" d="M 0.539062 0 L 213.960938 0 L 213.960938 141.78125 L 0.539062 141.78125 Z M 0.539062 0 " fill-opacity="1" fill-rule="nonzero"/><path fill="#ffffff" d="M 0.539062 0 L 213.960938 0 L 213.960938 134.320312 L 0.539062 134.320312 Z M 0.539062 0 " fill-opacity="1" fill-rule="nonzero"/><path fill="#1c2c34" d="M 0.539062 0 L 213.960938 0 L 213.960938 134.320312 L 0.539062 134.320312 Z M 0.539062 0 " fill-opacity="1" fill-rule="nonzero"/></g><g clip-path="url(#80a7a11459)"><path fill="#ffffff" d="M 79.289062 84.484375 C 77.367188 84.484375 75.828125 83.910156 74.714844 82.773438 C 72.914062 80.933594 72.925781 78.292969 72.925781 78.105469 L 72.925781 37.652344 C 72.925781 31.476562 79.214844 31.269531 79.277344 31.269531 C 79.609375 31.265625 79.882812 31.527344 79.890625 31.863281 C 79.898438 32.195312 79.636719 32.464844 79.300781 32.476562 C 79.074219 32.484375 74.125 32.671875 74.125 37.652344 L 74.125 78.121094 C 74.125 78.140625 74.101562 80.433594 75.578125 81.933594 C 76.457031 82.828125 77.703125 83.285156 79.289062 83.285156 C 79.621094 83.285156 79.890625 83.550781 79.890625 83.882812 C 79.890625 84.21875 79.621094 84.484375 79.289062 84.484375 " fill-opacity="1" fill-rule="nonzero"/></g><g clip-path="url(#7afbb2d038)"><path fill="#ffffff" d="M 125.511719 84.484375 C 125.183594 84.492188 124.910156 84.222656 124.90625 83.894531 C 124.902344 83.558594 125.167969 83.289062 125.496094 83.285156 C 125.726562 83.277344 130.671875 83.089844 130.671875 78.105469 L 130.671875 37.640625 C 130.671875 37.621094 130.695312 35.320312 129.222656 33.820312 C 128.34375 32.929688 127.097656 32.476562 125.511719 32.476562 C 125.183594 32.476562 124.910156 32.203125 124.910156 31.875 C 124.910156 31.542969 125.183594 31.269531 125.511719 31.269531 C 127.433594 31.269531 128.976562 31.847656 130.085938 32.984375 C 131.886719 34.828125 131.875 37.46875 131.875 37.652344 L 131.875 78.105469 C 131.875 84.28125 125.585938 84.484375 125.527344 84.484375 L 125.511719 84.484375 " fill-opacity="1" fill-rule="nonzero"/></g><path fill="#ffffff" d="M 89.011719 42.226562 C 88.683594 42.226562 88.410156 41.957031 88.410156 41.625 L 88.410156 35.847656 C 88.410156 35.515625 88.683594 35.242188 89.011719 35.242188 C 89.34375 35.242188 89.617188 35.515625 89.617188 35.847656 L 89.617188 41.625 C 89.617188 41.78125 89.550781 41.941406 89.4375 42.050781 C 89.328125 42.164062 89.171875 42.226562 89.011719 42.226562 " fill-opacity="1" fill-rule="nonzero"/><path fill="#ffffff" d="M 81.210938 51.859375 C 80.878906 51.859375 80.609375 51.589844 80.609375 51.253906 L 80.609375 45.476562 C 80.609375 45.144531 80.878906 44.875 81.210938 44.875 C 81.539062 44.875 81.8125 45.144531 81.8125 45.476562 L 81.8125 51.253906 C 81.8125 51.417969 81.75 51.570312 81.632812 51.679688 C 81.523438 51.796875 81.367188 51.859375 81.210938 51.859375 " fill-opacity="1" fill-rule="nonzero"/><path fill="#ffffff" d="M 96.695312 51.859375 C 96.367188 51.859375 96.09375 51.589844 96.09375 51.253906 L 96.09375 45.476562 C 96.09375 45.144531 96.367188 44.875 96.695312 44.875 C 97.03125 44.875 97.296875 45.144531 97.296875 45.476562 L 97.296875 51.253906 C 97.296875 51.417969 97.234375 51.570312 97.121094 51.679688 C 97.011719 51.796875 96.859375 51.859375 96.695312 51.859375 " fill-opacity="1" fill-rule="nonzero"/><path fill="#ffffff" d="M 96.695312 61.609375 C 96.367188 61.609375 96.09375 61.339844 96.09375 61.011719 L 96.09375 55.234375 C 96.09375 54.898438 96.367188 54.628906 96.695312 54.628906 C 97.03125 54.628906 97.296875 54.898438 97.296875 55.234375 L 97.296875 61.011719 C 97.296875 61.167969 97.234375 61.320312 97.121094 61.4375 C 97.011719 61.546875 96.859375 61.609375 96.695312 61.609375 " fill-opacity="1" fill-rule="nonzero"/><path fill="#ffffff" d="M 88.894531 80.632812 C 88.5625 80.632812 88.292969 80.367188 88.292969 80.03125 L 88.292969 74.253906 C 88.292969 73.921875 88.5625 73.648438 88.894531 73.648438 C 89.222656 73.648438 89.496094 73.921875 89.496094 74.253906 L 89.496094 80.03125 C 89.496094 80.191406 89.433594 80.34375 89.316406 80.457031 C 89.207031 80.570312 89.050781 80.632812 88.894531 80.632812 " fill-opacity="1" fill-rule="nonzero"/><path fill="#ffffff" d="M 81.332031 36.328125 C 80.730469 36.328125 80.332031 36.542969 80.09375 36.992188 C 79.976562 37.230469 79.902344 37.5 79.890625 37.773438 L 79.890625 39.820312 C 79.902344 40.09375 79.976562 40.359375 80.09375 40.601562 C 80.332031 41.046875 80.730469 41.261719 81.332031 41.261719 C 81.925781 41.261719 82.332031 41.046875 82.566406 40.601562 C 82.6875 40.359375 82.753906 40.09375 82.769531 39.820312 L 82.769531 37.773438 C 82.753906 37.5 82.6875 37.230469 82.566406 36.992188 C 82.332031 36.542969 81.925781 36.328125 81.332031 36.328125 Z M 81.332031 42.46875 C 79.390625 42.46875 78.6875 40.882812 78.6875 39.820312 L 78.6875 37.773438 C 78.6875 36.707031 79.390625 35.121094 81.332031 35.121094 C 83.265625 35.121094 83.96875 36.707031 83.96875 37.773438 L 83.96875 39.820312 C 83.96875 40.882812 83.265625 42.46875 81.332031 42.46875 " fill-opacity="1" fill-rule="nonzero"/><path fill="#ffffff" d="M 96.695312 36.328125 C 96.09375 36.328125 95.695312 36.542969 95.464844 36.992188 C 95.339844 37.230469 95.273438 37.5 95.257812 37.773438 L 95.257812 39.820312 C 95.273438 40.09375 95.339844 40.359375 95.464844 40.601562 C 95.695312 41.046875 96.09375 41.261719 96.695312 41.261719 C 97.296875 41.261719 97.695312 41.046875 97.929688 40.601562 C 98.058594 40.359375 98.125 40.09375 98.140625 39.820312 L 98.140625 37.773438 C 98.125 37.5 98.058594 37.230469 97.929688 36.992188 C 97.695312 36.542969 97.296875 36.328125 96.695312 36.328125 Z M 96.695312 42.46875 C 94.761719 42.46875 94.058594 40.882812 94.058594 39.820312 L 94.058594 37.773438 C 94.058594 36.707031 94.761719 35.121094 96.695312 35.121094 C 98.636719 35.121094 99.339844 36.707031 99.339844 37.773438 L 99.339844 39.820312 C 99.339844 40.882812 98.636719 42.46875 96.695312 42.46875 " fill-opacity="1" fill-rule="nonzero"/><path fill="#ffffff" d="M 123.472656 51.859375 C 123.140625 51.859375 122.875 51.589844 122.875 51.253906 L 122.875 45.476562 C 122.875 45.144531 123.140625 44.875 123.472656 44.875 C 123.800781 44.875 124.074219 45.144531 124.074219 45.476562 L 124.074219 51.253906 C 124.074219 51.417969 124.011719 51.570312 123.894531 51.679688 C 123.785156 51.796875 123.628906 51.859375 123.472656 51.859375 " fill-opacity="1" fill-rule="nonzero"/><path fill="#ffffff" d="M 123.472656 80.632812 C 123.140625 80.632812 122.875 80.367188 122.875 80.03125 L 122.875 74.253906 C 122.875 73.921875 123.140625 73.648438 123.472656 73.648438 C 123.800781 73.648438 124.074219 73.921875 124.074219 74.253906 L 124.074219 80.03125 C 124.074219 80.191406 124.011719 80.34375 123.894531 80.457031 C 123.785156 80.570312 123.628906 80.632812 123.472656 80.632812 " fill-opacity="1" fill-rule="nonzero"/><path fill="#ffffff" d="M 123.472656 36.328125 C 122.875 36.328125 122.472656 36.542969 122.238281 36.992188 C 122.117188 37.230469 122.042969 37.5 122.03125 37.773438 L 122.03125 39.820312 C 122.042969 40.09375 122.117188 40.359375 122.238281 40.601562 C 122.472656 41.046875 122.875 41.261719 123.472656 41.261719 C 124.074219 41.261719 124.472656 41.046875 124.707031 40.601562 C 124.828125 40.359375 124.902344 40.09375 124.910156 39.820312 L 124.910156 37.773438 C 124.902344 37.5 124.828125 37.230469 124.707031 36.992188 C 124.472656 36.542969 124.074219 36.328125 123.472656 36.328125 Z M 123.472656 42.46875 C 121.535156 42.46875 120.832031 40.882812 120.832031 39.820312 L 120.832031 37.773438 C 120.832031 36.707031 121.535156 35.121094 123.472656 35.121094 C 125.40625 35.121094 126.113281 36.707031 126.113281 37.773438 L 126.113281 39.820312 C 126.113281 40.882812 125.40625 42.46875 123.472656 42.46875 " fill-opacity="1" fill-rule="nonzero"/><path fill="#ffffff" d="M 123.472656 55.347656 C 122.875 55.347656 122.472656 55.570312 122.238281 56.007812 C 122.117188 56.257812 122.042969 56.523438 122.03125 56.796875 L 122.03125 58.84375 C 122.042969 59.117188 122.117188 59.378906 122.238281 59.625 C 122.472656 60.070312 122.875 60.285156 123.472656 60.285156 C 124.074219 60.285156 124.472656 60.070312 124.707031 59.625 C 124.828125 59.378906 124.902344 59.117188 124.910156 58.84375 L 124.910156 56.796875 C 124.902344 56.523438 124.828125 56.257812 124.707031 56.007812 C 124.472656 55.570312 124.074219 55.347656 123.472656 55.347656 Z M 123.472656 61.488281 C 121.535156 61.488281 120.832031 59.902344 120.832031 58.84375 L 120.832031 56.796875 C 120.832031 55.730469 121.535156 54.148438 123.472656 54.148438 C 125.40625 54.148438 126.113281 55.730469 126.113281 56.796875 L 126.113281 58.84375 C 126.113281 59.902344 125.40625 61.488281 123.472656 61.488281 " fill-opacity="1" fill-rule="nonzero"/><path fill="#ffffff" d="M 88.894531 45.71875 C 88.292969 45.71875 87.894531 45.933594 87.65625 46.378906 C 87.539062 46.625 87.464844 46.886719 87.453125 47.160156 L 87.453125 49.207031 C 87.464844 49.480469 87.539062 49.75 87.65625 49.996094 C 87.894531 50.4375 88.292969 50.65625 88.894531 50.65625 C 89.496094 50.65625 89.894531 50.4375 90.128906 49.996094 C 90.25 49.75 90.320312 49.480469 90.332031 49.207031 L 90.332031 47.160156 C 90.320312 46.886719 90.25 46.625 90.128906 46.378906 C 89.894531 45.933594 89.496094 45.71875 88.894531 45.71875 Z M 88.894531 51.859375 C 86.957031 51.859375 86.253906 50.273438 86.253906 49.207031 L 86.253906 47.160156 C 86.253906 46.101562 86.957031 44.515625 88.894531 44.515625 C 90.828125 44.515625 91.535156 46.101562 91.535156 47.160156 L 91.535156 49.207031 C 91.535156 50.273438 90.828125 51.859375 88.894531 51.859375 " fill-opacity="1" fill-rule="nonzero"/><path fill="#ffffff" d="M 88.894531 55.46875 C 88.292969 55.46875 87.894531 55.691406 87.65625 56.128906 C 87.539062 56.378906 87.464844 56.644531 87.453125 56.917969 L 87.453125 58.964844 C 87.464844 59.238281 87.539062 59.503906 87.65625 59.746094 C 87.894531 60.191406 88.292969 60.40625 88.894531 60.40625 C 89.496094 60.40625 89.894531 60.191406 90.128906 59.746094 C 90.25 59.503906 90.320312 59.238281 90.332031 58.964844 L 90.332031 56.917969 C 90.320312 56.644531 90.25 56.378906 90.128906 56.128906 C 89.894531 55.691406 89.496094 55.46875 88.894531 55.46875 Z M 88.894531 61.609375 C 86.957031 61.609375 86.253906 60.023438 86.253906 58.964844 L 86.253906 56.917969 C 86.253906 55.851562 86.957031 54.265625 88.894531 54.265625 C 90.828125 54.265625 91.535156 55.851562 91.535156 56.917969 L 91.535156 58.964844 C 91.535156 60.03125 90.828125 61.609375 88.894531 61.609375 " fill-opacity="1" fill-rule="nonzero"/><path fill="#ffffff" d="M 81.332031 55.46875 C 80.730469 55.46875 80.332031 55.691406 80.09375 56.128906 C 79.976562 56.378906 79.902344 56.644531 79.890625 56.917969 L 79.890625 58.964844 C 79.902344 59.238281 79.976562 59.503906 80.09375 59.746094 C 80.332031 60.191406 80.730469 60.40625 81.332031 60.40625 C 81.925781 60.40625 82.332031 60.191406 82.566406 59.746094 C 82.6875 59.503906 82.753906 59.238281 82.769531 58.964844 L 82.769531 56.917969 C 82.753906 56.644531 82.6875 56.378906 82.566406 56.128906 C 82.332031 55.691406 81.925781 55.46875 81.332031 55.46875 Z M 81.332031 61.609375 C 79.390625 61.609375 78.6875 60.023438 78.6875 58.964844 L 78.6875 56.917969 C 78.6875 55.851562 79.390625 54.265625 81.332031 54.265625 C 83.265625 54.265625 83.96875 55.851562 83.96875 56.917969 L 83.96875 58.964844 C 83.96875 60.03125 83.265625 61.609375 81.332031 61.609375 " fill-opacity="1" fill-rule="nonzero"/><path fill="#ffffff" d="M 96.695312 74.613281 C 96.09375 74.613281 95.695312 74.828125 95.464844 75.277344 C 95.339844 75.515625 95.273438 75.785156 95.257812 76.058594 L 95.257812 78.105469 C 95.273438 78.378906 95.339844 78.644531 95.464844 78.890625 C 95.695312 79.332031 96.09375 79.550781 96.695312 79.550781 C 97.296875 79.550781 97.695312 79.332031 97.929688 78.890625 C 98.058594 78.644531 98.125 78.378906 98.140625 78.105469 L 98.140625 76.058594 C 98.125 75.785156 98.058594 75.515625 97.929688 75.277344 C 97.695312 74.828125 97.296875 74.613281 96.695312 74.613281 Z M 96.695312 80.753906 C 94.761719 80.753906 94.058594 79.167969 94.058594 78.105469 L 94.058594 76.058594 C 94.058594 74.992188 94.761719 73.414062 96.695312 73.414062 C 98.636719 73.414062 99.339844 74.992188 99.339844 76.058594 L 99.339844 78.105469 C 99.339844 79.167969 98.636719 80.753906 96.695312 80.753906 " fill-opacity="1" fill-rule="nonzero"/><path fill="#ffffff" d="M 81.210938 74.613281 C 80.609375 74.613281 80.210938 74.828125 79.976562 75.277344 C 79.855469 75.515625 79.78125 75.785156 79.769531 76.058594 L 79.769531 78.105469 C 79.78125 78.378906 79.855469 78.644531 79.976562 78.890625 C 80.210938 79.332031 80.609375 79.550781 81.210938 79.550781 C 81.8125 79.550781 82.210938 79.332031 82.445312 78.890625 C 82.566406 78.644531 82.640625 78.378906 82.648438 78.105469 L 82.648438 76.058594 C 82.640625 75.785156 82.566406 75.515625 82.445312 75.277344 C 82.210938 74.828125 81.8125 74.613281 81.210938 74.613281 Z M 81.210938 80.753906 C 79.273438 80.753906 78.566406 79.167969 78.566406 78.105469 L 78.566406 76.058594 C 78.566406 74.992188 79.273438 73.414062 81.210938 73.414062 C 83.148438 73.414062 83.851562 74.992188 83.851562 76.058594 L 83.851562 78.105469 C 83.851562 79.167969 83.148438 80.753906 81.210938 80.753906 " fill-opacity="1" fill-rule="nonzero"/><path fill="#ffffff" d="M 102.578125 39.214844 L 102.457031 39.214844 C 102.128906 39.214844 101.863281 38.949219 101.863281 38.617188 C 101.863281 38.28125 102.128906 38.015625 102.457031 38.015625 L 102.578125 38.015625 C 102.914062 38.015625 103.179688 38.28125 103.179688 38.617188 C 103.179688 38.949219 102.914062 39.214844 102.578125 39.214844 Z M 105.101562 39.214844 L 104.980469 39.214844 C 104.652344 39.214844 104.378906 38.949219 104.378906 38.617188 C 104.378906 38.28125 104.652344 38.015625 104.980469 38.015625 L 105.101562 38.015625 C 105.4375 38.015625 105.703125 38.28125 105.703125 38.617188 C 105.703125 38.949219 105.4375 39.214844 105.101562 39.214844 Z M 107.625 39.214844 L 107.503906 39.214844 C 107.167969 39.214844 106.902344 38.949219 106.902344 38.617188 C 106.902344 38.28125 107.167969 38.015625 107.503906 38.015625 L 107.625 38.015625 C 107.953125 38.015625 108.222656 38.28125 108.222656 38.617188 C 108.222656 38.949219 107.953125 39.214844 107.625 39.214844 Z M 110.148438 39.214844 L 110.027344 39.214844 C 109.695312 39.214844 109.425781 38.949219 109.425781 38.617188 C 109.425781 38.28125 109.695312 38.015625 110.027344 38.015625 L 110.148438 38.015625 C 110.476562 38.015625 110.742188 38.28125 110.742188 38.617188 C 110.742188 38.949219 110.476562 39.214844 110.148438 39.214844 Z M 112.664062 39.214844 L 112.550781 39.214844 C 112.214844 39.214844 111.945312 38.949219 111.945312 38.617188 C 111.945312 38.28125 112.214844 38.015625 112.550781 38.015625 L 112.664062 38.015625 C 113 38.015625 113.265625 38.28125 113.265625 38.617188 C 113.265625 38.949219 113 39.214844 112.664062 39.214844 Z M 115.1875 39.214844 L 115.066406 39.214844 C 114.738281 39.214844 114.46875 38.949219 114.46875 38.617188 C 114.46875 38.28125 114.738281 38.015625 115.066406 38.015625 L 115.1875 38.015625 C 115.515625 38.015625 115.789062 38.28125 115.789062 38.617188 C 115.789062 38.949219 115.515625 39.214844 115.1875 39.214844 " fill-opacity="1" fill-rule="nonzero"/><path fill="#ffffff" d="M 102.578125 48.851562 L 102.457031 48.851562 C 102.128906 48.851562 101.863281 48.578125 101.863281 48.246094 C 101.863281 47.917969 102.128906 47.644531 102.457031 47.644531 L 102.578125 47.644531 C 102.914062 47.644531 103.179688 47.917969 103.179688 48.246094 C 103.179688 48.578125 102.914062 48.851562 102.578125 48.851562 Z M 105.101562 48.851562 L 104.980469 48.851562 C 104.652344 48.851562 104.378906 48.578125 104.378906 48.246094 C 104.378906 47.917969 104.652344 47.644531 104.980469 47.644531 L 105.101562 47.644531 C 105.4375 47.644531 105.703125 47.917969 105.703125 48.246094 C 105.703125 48.578125 105.4375 48.851562 105.101562 48.851562 Z M 107.625 48.851562 L 107.503906 48.851562 C 107.167969 48.851562 106.902344 48.578125 106.902344 48.246094 C 106.902344 47.917969 107.167969 47.644531 107.503906 47.644531 L 107.625 47.644531 C 107.953125 47.644531 108.222656 47.917969 108.222656 48.246094 C 108.222656 48.578125 107.953125 48.851562 107.625 48.851562 Z M 110.148438 48.851562 L 110.027344 48.851562 C 109.695312 48.851562 109.425781 48.578125 109.425781 48.246094 C 109.425781 47.917969 109.695312 47.644531 110.027344 47.644531 L 110.148438 47.644531 C 110.476562 47.644531 110.742188 47.917969 110.742188 48.246094 C 110.742188 48.578125 110.476562 48.851562 110.148438 48.851562 Z M 112.664062 48.851562 L 112.550781 48.851562 C 112.214844 48.851562 111.945312 48.578125 111.945312 48.246094 C 111.945312 47.917969 112.214844 47.644531 112.550781 47.644531 L 112.664062 47.644531 C 113 47.644531 113.265625 47.917969 113.265625 48.246094 C 113.265625 48.578125 113 48.851562 112.664062 48.851562 Z M 115.1875 48.851562 L 115.066406 48.851562 C 114.738281 48.851562 114.46875 48.578125 114.46875 48.246094 C 114.46875 47.917969 114.738281 47.644531 115.066406 47.644531 L 115.1875 47.644531 C 115.515625 47.644531 115.789062 47.917969 115.789062 48.246094 C 115.789062 48.578125 115.515625 48.851562 115.1875 48.851562 " fill-opacity="1" fill-rule="nonzero"/><path fill="#ffffff" d="M 102.578125 58.480469 L 102.457031 58.480469 C 102.128906 58.480469 101.863281 58.214844 101.863281 57.878906 C 101.863281 57.546875 102.128906 57.273438 102.457031 57.273438 L 102.578125 57.273438 C 102.914062 57.273438 103.179688 57.546875 103.179688 57.878906 C 103.179688 58.214844 102.914062 58.480469 102.578125 58.480469 Z M 105.101562 58.480469 L 104.980469 58.480469 C 104.652344 58.480469 104.378906 58.214844 104.378906 57.878906 C 104.378906 57.546875 104.652344 57.273438 104.980469 57.273438 L 105.101562 57.273438 C 105.4375 57.273438 105.703125 57.546875 105.703125 57.878906 C 105.703125 58.214844 105.4375 58.480469 105.101562 58.480469 Z M 107.625 58.480469 L 107.503906 58.480469 C 107.167969 58.480469 106.902344 58.214844 106.902344 57.878906 C 106.902344 57.546875 107.167969 57.273438 107.503906 57.273438 L 107.625 57.273438 C 107.953125 57.273438 108.222656 57.546875 108.222656 57.878906 C 108.222656 58.214844 107.953125 58.480469 107.625 58.480469 Z M 110.148438 58.480469 L 110.027344 58.480469 C 109.695312 58.480469 109.425781 58.214844 109.425781 57.878906 C 109.425781 57.546875 109.695312 57.273438 110.027344 57.273438 L 110.148438 57.273438 C 110.476562 57.273438 110.742188 57.546875 110.742188 57.878906 C 110.742188 58.214844 110.476562 58.480469 110.148438 58.480469 Z M 112.664062 58.480469 L 112.550781 58.480469 C 112.214844 58.480469 111.945312 58.214844 111.945312 57.878906 C 111.945312 57.546875 112.214844 57.273438 112.550781 57.273438 L 112.664062 57.273438 C 113 57.273438 113.265625 57.546875 113.265625 57.878906 C 113.265625 58.214844 113 58.480469 112.664062 58.480469 Z M 115.1875 58.480469 L 115.066406 58.480469 C 114.738281 58.480469 114.46875 58.214844 114.46875 57.878906 C 114.46875 57.546875 114.738281 57.273438 115.066406 57.273438 L 115.1875 57.273438 C 115.515625 57.273438 115.789062 57.546875 115.789062 57.878906 C 115.789062 58.214844 115.515625 58.480469 115.1875 58.480469 " fill-opacity="1" fill-rule="nonzero"/><path fill="#ffffff" d="M 102.578125 77.742188 L 102.457031 77.742188 C 102.128906 77.742188 101.863281 77.472656 101.863281 77.144531 C 101.863281 76.808594 102.128906 76.539062 102.457031 76.539062 L 102.578125 76.539062 C 102.914062 76.539062 103.179688 76.808594 103.179688 77.144531 C 103.179688 77.472656 102.914062 77.742188 102.578125 77.742188 Z M 105.101562 77.742188 L 104.980469 77.742188 C 104.652344 77.742188 104.378906 77.472656 104.378906 77.144531 C 104.378906 76.808594 104.652344 76.539062 104.980469 76.539062 L 105.101562 76.539062 C 105.4375 76.539062 105.703125 76.808594 105.703125 77.144531 C 105.703125 77.472656 105.4375 77.742188 105.101562 77.742188 Z M 107.625 77.742188 L 107.503906 77.742188 C 107.167969 77.742188 106.902344 77.472656 106.902344 77.144531 C 106.902344 76.808594 107.167969 76.539062 107.503906 76.539062 L 107.625 76.539062 C 107.953125 76.539062 108.222656 76.808594 108.222656 77.144531 C 108.222656 77.472656 107.953125 77.742188 107.625 77.742188 Z M 110.148438 77.742188 L 110.027344 77.742188 C 109.695312 77.742188 109.425781 77.472656 109.425781 77.144531 C 109.425781 76.808594 109.695312 76.539062 110.027344 76.539062 L 110.148438 76.539062 C 110.476562 76.539062 110.742188 76.808594 110.742188 77.144531 C 110.742188 77.472656 110.476562 77.742188 110.148438 77.742188 Z M 112.664062 77.742188 L 112.550781 77.742188 C 112.214844 77.742188 111.945312 77.472656 111.945312 77.144531 C 111.945312 76.808594 112.214844 76.539062 112.550781 76.539062 L 112.664062 76.539062 C 113 76.539062 113.265625 76.808594 113.265625 77.144531 C 113.265625 77.472656 113 77.742188 112.664062 77.742188 Z M 115.1875 77.742188 L 115.066406 77.742188 C 114.738281 77.742188 114.46875 77.472656 114.46875 77.144531 C 114.46875 76.808594 114.738281 76.539062 115.066406 76.539062 L 115.1875 76.539062 C 115.515625 76.539062 115.789062 76.808594 115.789062 77.144531 C 115.789062 77.472656 115.515625 77.742188 115.1875 77.742188 " fill-opacity="1" fill-rule="nonzero"/><path fill="#ffffff" d="M 123.472656 65.703125 C 123.140625 65.703125 122.875 65.433594 122.875 65.105469 L 122.875 64.984375 C 122.875 64.648438 123.140625 64.378906 123.472656 64.378906 C 123.800781 64.378906 124.074219 64.648438 124.074219 64.984375 L 124.074219 65.105469 C 124.074219 65.261719 124.011719 65.414062 123.894531 65.53125 C 123.785156 65.640625 123.628906 65.703125 123.472656 65.703125 Z M 123.472656 68.234375 C 123.140625 68.234375 122.875 67.964844 122.875 67.628906 L 122.875 67.507812 C 122.875 67.175781 123.140625 66.910156 123.472656 66.910156 C 123.800781 66.910156 124.074219 67.175781 124.074219 67.507812 L 124.074219 67.628906 C 124.074219 67.792969 124.011719 67.945312 123.894531 68.054688 C 123.785156 68.167969 123.628906 68.234375 123.472656 68.234375 " fill-opacity="1" fill-rule="nonzero"/><path fill="#ffffff" d="M 96.695312 65.703125 C 96.367188 65.703125 96.09375 65.433594 96.09375 65.105469 L 96.09375 64.984375 C 96.09375 64.648438 96.367188 64.378906 96.695312 64.378906 C 97.03125 64.378906 97.296875 64.648438 97.296875 64.984375 L 97.296875 65.105469 C 97.296875 65.261719 97.234375 65.414062 97.121094 65.53125 C 97.011719 65.640625 96.859375 65.703125 96.695312 65.703125 Z M 96.695312 68.234375 C 96.367188 68.234375 96.09375 67.964844 96.09375 67.628906 L 96.09375 67.507812 C 96.09375 67.175781 96.367188 66.910156 96.695312 66.910156 C 97.03125 66.910156 97.296875 67.175781 97.296875 67.507812 L 97.296875 67.628906 C 97.296875 67.792969 97.234375 67.945312 97.121094 68.054688 C 97.011719 68.167969 96.859375 68.234375 96.695312 68.234375 " fill-opacity="1" fill-rule="nonzero"/><path fill="#ffffff" d="M 88.894531 65.703125 C 88.5625 65.703125 88.292969 65.433594 88.292969 65.105469 L 88.292969 64.984375 C 88.292969 64.648438 88.5625 64.378906 88.894531 64.378906 C 89.222656 64.378906 89.496094 64.648438 89.496094 64.984375 L 89.496094 65.105469 C 89.496094 65.261719 89.433594 65.414062 89.316406 65.53125 C 89.207031 65.640625 89.050781 65.703125 88.894531 65.703125 Z M 88.894531 68.234375 C 88.5625 68.234375 88.292969 67.964844 88.292969 67.628906 L 88.292969 67.507812 C 88.292969 67.175781 88.5625 66.910156 88.894531 66.910156 C 89.222656 66.910156 89.496094 67.175781 89.496094 67.507812 L 89.496094 67.628906 C 89.496094 67.792969 89.433594 67.945312 89.316406 68.054688 C 89.207031 68.167969 89.050781 68.234375 88.894531 68.234375 " fill-opacity="1" fill-rule="nonzero"/><path fill="#ffffff" d="M 81.332031 65.703125 C 80.996094 65.703125 80.730469 65.433594 80.730469 65.105469 L 80.730469 64.984375 C 80.730469 64.648438 80.996094 64.378906 81.332031 64.378906 C 81.660156 64.378906 81.925781 64.648438 81.925781 64.984375 L 81.925781 65.105469 C 81.925781 65.261719 81.871094 65.414062 81.753906 65.53125 C 81.640625 65.640625 81.488281 65.703125 81.332031 65.703125 Z M 81.332031 68.234375 C 80.996094 68.234375 80.730469 67.964844 80.730469 67.628906 L 80.730469 67.507812 C 80.730469 67.175781 80.996094 66.910156 81.332031 66.910156 C 81.660156 66.910156 81.925781 67.175781 81.925781 67.507812 L 81.925781 67.628906 C 81.925781 67.792969 81.871094 67.945312 81.753906 68.054688 C 81.640625 68.167969 81.488281 68.234375 81.332031 68.234375 " fill-opacity="1" fill-rule="nonzero"/><g clip-path="url(#4593576739)"><path fill="#d9d9d9" d="M 56.792969 97.039062 C 56.894531 97.027344 56.996094 97.011719 57.097656 97 C 57.101562 98.1875 57.109375 99.375 57.101562 100.5625 C 57.070312 100.984375 57.21875 101.390625 57.222656 101.808594 C 57.097656 102.386719 57.082031 102.976562 57.136719 103.5625 C 57.605469 103.582031 58.058594 103.699219 58.511719 103.804688 C 58.542969 104.042969 58.566406 104.28125 58.59375 104.519531 C 58.804688 104.621094 59.019531 104.71875 59.230469 104.824219 C 59.328125 106.617188 58.960938 124.53125 59.519531 126.246094 C 59.824219 127.082031 59.632812 127.992188 59.664062 128.859375 C 59.796875 128.859375 59.933594 128.859375 60.066406 128.859375 C 60.128906 127.851562 60.378906 128.898438 60.359375 124.890625 C 60.640625 124.863281 60.921875 124.839844 61.203125 124.8125 C 61.222656 124.621094 61.25 124.433594 61.277344 124.246094 C 61.558594 124.25 61.839844 124.25 62.121094 124.25 C 62.199219 124.605469 62.449219 124.847656 62.804688 124.925781 C 62.835938 125.800781 62.785156 126.675781 62.839844 127.550781 C 62.910156 127.546875 63.050781 127.546875 63.125 127.542969 C 63.121094 125.1875 63.125 122.832031 63.144531 120.476562 C 64.296875 120.429688 65.453125 120.4375 66.605469 120.492188 C 66.648438 122.507812 66.410156 122.4375 67.125 122.863281 C 67.289062 110.390625 66.710938 113.160156 67.96875 112.105469 C 68.050781 111.183594 67.90625 110.253906 68.015625 109.332031 C 68.179688 108.957031 68.429688 108.621094 68.578125 108.230469 C 68.691406 108.445312 68.800781 108.660156 68.914062 108.871094 C 69.542969 108.851562 70.167969 108.863281 70.796875 108.875 C 70.8125 109.054688 70.828125 109.230469 70.84375 109.410156 C 70.933594 109.40625 71.023438 109.40625 71.117188 109.40625 C 71.148438 109.21875 71.179688 109.03125 71.214844 108.84375 C 71.363281 108.84375 71.515625 108.839844 71.671875 108.839844 C 71.738281 110.007812 71.632812 115.597656 71.691406 117.917969 C 71.96875 117.921875 72.246094 117.921875 72.523438 117.914062 C 72.535156 119.824219 72.472656 121.734375 72.550781 123.640625 C 72.882812 123.644531 73.214844 123.640625 73.550781 123.632812 C 73.5625 123.976562 73.574219 124.324219 73.585938 124.667969 C 73.875 124.675781 74.164062 124.679688 74.453125 124.683594 C 74.085938 123.515625 74.4375 124.5625 74.253906 118.921875 C 74.40625 116.480469 74.160156 114.035156 74.3125 111.597656 C 75.902344 111.574219 77.488281 111.589844 79.078125 111.578125 C 79.199219 113.054688 79.03125 114.535156 79.089844 116.011719 C 79.535156 116.0625 79.953125 115.910156 80.382812 115.820312 C 82.277344 116.25 81.828125 115.96875 81.839844 118.089844 C 82.601562 118.066406 83.367188 118.074219 84.128906 118.125 C 84.136719 118.285156 84.144531 118.441406 84.152344 118.597656 C 85.128906 119.246094 84.613281 119.074219 85.632812 119.167969 C 85.648438 123.429688 85.511719 123.550781 85.878906 123.609375 C 85.957031 121.511719 85.859375 119.410156 85.90625 117.308594 C 86.660156 117.214844 87.335938 116.796875 88.089844 116.730469 C 88.945312 116.90625 89.824219 116.851562 90.691406 116.863281 C 90.730469 118.621094 90.667969 120.378906 90.726562 122.132812 C 91.320312 122.035156 90.753906 114.421875 91 112.25 C 91.085938 112.230469 93.230469 111.71875 93.488281 111.550781 C 93.601562 111.34375 93.679688 111.121094 93.777344 110.902344 C 93.890625 111.066406 94.003906 111.226562 94.125 111.386719 C 95.425781 111.269531 96.730469 111.367188 98.035156 111.378906 C 98.109375 114.257812 98.003906 117.144531 98.0625 120.023438 C 98.402344 120.035156 98.746094 120.042969 99.085938 120.0625 C 99.109375 120.261719 99.128906 120.464844 99.148438 120.667969 C 99.941406 120.6875 100.734375 120.691406 101.527344 120.667969 C 101.523438 119.957031 101.480469 119.246094 101.53125 118.535156 C 102.042969 118.546875 102.550781 118.554688 103.0625 118.523438 C 103.070312 117.976562 103.015625 117.421875 103.15625 116.886719 C 103.316406 116.277344 103.292969 115.628906 103.496094 115.027344 C 103.722656 114.609375 103.71875 115.039062 104.601562 112.84375 C 104.816406 112.34375 104.714844 111.78125 104.832031 111.257812 C 104.898438 110.960938 104.953125 110.660156 104.996094 110.359375 C 105.164062 110.578125 105.261719 110.835938 105.238281 111.113281 C 105.152344 112.769531 106.109375 114.078125 106.484375 114.867188 C 106.871094 116.148438 106.808594 115.808594 106.796875 122.738281 C 107.011719 122.738281 107.222656 122.738281 107.441406 122.738281 C 107.46875 120.65625 107.46875 118.570312 107.46875 116.484375 C 107.453125 116.058594 107.660156 115.660156 107.671875 115.234375 C 107.683594 114.824219 107.652344 114.402344 107.773438 114 C 107.964844 113.40625 107.875 112.777344 107.917969 112.164062 C 107.910156 111.90625 108.148438 111.746094 108.273438 111.546875 C 108.566406 111.160156 108.453125 110.609375 108.765625 110.238281 C 109.175781 109.753906 109.113281 109.074219 109.273438 108.492188 C 109.496094 107.78125 109.371094 107.03125 109.386719 106.296875 C 109.40625 106.300781 109.449219 106.300781 109.472656 106.304688 C 109.394531 109.984375 109.722656 108.957031 109.070312 110.023438 C 109.394531 110.085938 109.726562 110.132812 110.058594 110.164062 C 110.148438 110.539062 110.238281 110.914062 110.339844 111.289062 C 110.425781 111.605469 110.785156 111.808594 110.757812 112.164062 C 110.757812 112.519531 110.792969 112.878906 110.910156 113.222656 C 111.867188 113.003906 112.867188 113.039062 113.839844 113.113281 C 114.40625 113.992188 115.191406 114.707031 116.011719 115.347656 C 116.015625 115.394531 116.023438 122.6875 116.023438 122.734375 C 116.433594 122.746094 116.867188 122.664062 117.265625 122.816406 C 117.863281 123.046875 118.519531 122.886719 119.144531 122.945312 C 119.300781 122.738281 119.464844 122.539062 119.640625 122.347656 C 119.910156 122.558594 120.203125 122.777344 120.570312 122.75 C 120.601562 115.613281 120.1875 114.414062 122.066406 114.046875 C 122.0625 113.804688 122.0625 113.5625 122.0625 113.320312 C 122.246094 113.203125 122.425781 113.082031 122.628906 112.996094 C 122.902344 113.253906 122.699219 113.679688 122.832031 113.996094 C 122.914062 114.175781 123.023438 114.339844 123.105469 114.519531 C 123.238281 114.785156 123.257812 115.160156 123.617188 115.199219 C 123.734375 115.050781 123.777344 114.769531 124.015625 114.777344 C 125.679688 114.675781 124.636719 114.90625 126.574219 115.199219 C 126.574219 115.738281 126.574219 116.285156 126.578125 116.824219 C 127.003906 116.859375 127.429688 116.871094 127.859375 116.875 C 127.902344 118.398438 127.851562 119.917969 127.882812 121.441406 C 128.089844 121.523438 128.296875 121.609375 128.507812 121.699219 C 128.558594 122.410156 128.539062 123.128906 128.5625 123.84375 C 128.683594 123.84375 128.804688 123.84375 128.925781 123.84375 C 129.460938 121.523438 129.4375 121.902344 131.929688 121.929688 C 132.074219 121.945312 132.277344 121.921875 132.34375 122.09375 C 132.71875 123.011719 133.171875 123.925781 133.1875 124.941406 C 133.179688 125.304688 133.605469 125.507812 133.574219 125.878906 C 133.578125 128.136719 133.535156 130.398438 133.597656 132.660156 C 133.953125 132.671875 134.3125 132.671875 134.671875 132.660156 C 134.691406 131.675781 134.640625 130.6875 134.695312 129.703125 C 135.105469 129.683594 135.515625 129.679688 135.921875 129.671875 C 135.9375 129.335938 135.953125 129.003906 135.980469 128.667969 C 136.445312 128.671875 136.910156 128.671875 137.375 128.675781 C 137.417969 133.808594 137.238281 133.90625 137.640625 133.945312 C 137.722656 132.367188 137.65625 121.8125 137.660156 121.800781 C 137.925781 121.328125 138.53125 121.527344 138.96875 121.417969 C 140.015625 121.074219 141.066406 121.273438 141.386719 121.488281 C 141.628906 121.625 141.769531 121.878906 141.90625 122.109375 C 142.984375 122.039062 144.058594 122.160156 145.136719 122.140625 C 145.296875 122.691406 145.222656 125.621094 145.222656 125.703125 C 145.914062 125.667969 146.613281 125.703125 147.308594 125.675781 C 147.363281 125.332031 147.421875 124.992188 147.503906 124.652344 C 147.855469 125.074219 147.789062 125.707031 148.1875 126.097656 C 148.730469 126.808594 148.527344 125.667969 148.589844 132.246094 C 149.195312 132.3125 149.730469 131.960938 150.328125 131.972656 C 150.382812 130.332031 150.246094 124.28125 150.320312 121.679688 C 150.9375 121.640625 151.558594 121.671875 152.171875 121.75 C 152.378906 121.492188 152.578125 121.226562 152.765625 120.953125 C 153.144531 121.207031 153.589844 121.3125 154.046875 121.300781 C 154.078125 121.4375 154.113281 121.578125 154.148438 121.714844 C 154.613281 121.722656 155.078125 121.746094 155.546875 121.789062 C 155.597656 122.382812 155.59375 122.976562 155.570312 123.570312 C 156.316406 123.574219 156.964844 124.023438 157.707031 124.074219 C 157.847656 124.273438 158.039062 124.429688 158.261719 124.535156 C 158.371094 125.285156 158.3125 126.046875 158.3125 126.804688 C 159.234375 126.761719 160.152344 126.691406 161.074219 126.75 C 161.125 125.304688 161.039062 118.6875 161.097656 115.351562 C 161.71875 115.324219 162.34375 115.332031 162.96875 115.328125 C 162.960938 114.699219 163.039062 114.074219 163.023438 113.449219 C 163.703125 113.421875 164.382812 113.445312 165.066406 113.433594 C 165.320312 112.570312 165.042969 112.71875 166.105469 112.589844 C 166.125 110.890625 166.046875 109.179688 166.226562 107.484375 C 166.457031 107.976562 166.394531 110.886719 166.40625 112.554688 C 166.78125 112.601562 167.089844 112.816406 167.355469 113.074219 C 167.597656 113.3125 168.007812 113.34375 168.210938 113.59375 C 168.304688 114.277344 168.238281 123.542969 168.253906 133.550781 C 168.679688 133.5625 169.105469 133.5625 169.53125 133.554688 C 169.550781 132.5 169.488281 125.3125 169.585938 124.265625 C 169.941406 124.25 170.296875 124.230469 170.65625 124.199219 C 170.675781 123.582031 170.554688 122.929688 170.816406 122.34375 C 171.421875 122.335938 172.03125 122.332031 172.640625 122.359375 C 172.710938 122.953125 172.699219 123.554688 172.667969 124.15625 C 173.449219 124.664062 173.25 123.824219 173.261719 127.800781 C 173.90625 127.785156 174.554688 127.765625 175.199219 127.816406 C 175.277344 128.570312 175.203125 129.324219 175.222656 130.074219 C 175.5625 130.1875 175.921875 130.238281 176.265625 130.339844 C 176.265625 130.824219 176.234375 131.308594 176.265625 131.792969 C 176.703125 131.800781 177.140625 131.800781 177.574219 131.808594 C 177.566406 131.132812 177.503906 124.09375 177.621094 123.414062 C 178.296875 123.4375 178.980469 123.375 179.652344 123.46875 C 180.199219 123.617188 180.738281 123.804688 181.3125 123.820312 C 181.324219 124.023438 181.332031 124.222656 181.34375 124.425781 C 181.652344 124.417969 181.957031 124.410156 182.265625 124.402344 C 182.265625 124.074219 182.265625 123.746094 182.269531 123.417969 C 182.714844 123.347656 183.167969 123.351562 183.621094 123.394531 C 183.644531 123.542969 183.671875 123.691406 183.703125 123.839844 C 184.121094 123.84375 184.542969 123.84375 184.964844 123.84375 C 184.980469 123.628906 184.996094 123.410156 185.011719 123.195312 C 185.46875 123.195312 185.929688 123.179688 186.386719 123.175781 C 186.386719 123.175781 186.460938 130.265625 186.421875 133.761719 C 186.566406 133.757812 186.71875 133.757812 186.867188 133.753906 C 186.933594 132.363281 186.847656 118.757812 186.882812 118.316406 C 187.371094 118.28125 187.859375 118.289062 188.351562 118.304688 C 188.324219 117.230469 188.3125 110.726562 188.355469 109.875 C 189.199219 109.816406 190.042969 109.855469 190.886719 109.886719 C 190.90625 109.519531 190.890625 109.152344 190.894531 108.789062 C 190.878906 108.515625 191.125 108.3125 191.140625 108.046875 C 191.085938 106.855469 191.101562 105.660156 191.070312 104.46875 C 191.097656 104.140625 190.984375 103.734375 191.261719 103.488281 C 192.414062 102.308594 191.746094 103.003906 191.972656 97.867188 C 192.085938 97.78125 192.203125 97.695312 192.320312 97.609375 C 192.347656 99.300781 192.257812 100.992188 192.328125 102.683594 C 192.277344 103.222656 192.992188 103.414062 192.976562 103.933594 C 192.988281 105.273438 193 106.617188 192.917969 107.957031 C 192.875 108.320312 193.359375 108.441406 193.347656 108.789062 C 193.359375 109.386719 193.308594 109.980469 193.3125 110.582031 C 193.5 110.558594 193.683594 110.539062 193.875 110.519531 C 193.882812 110.125 193.847656 109.730469 193.914062 109.34375 C 194.070312 109.007812 194.476562 108.953125 194.78125 108.8125 C 195.253906 108.660156 195.542969 108.191406 196.9375 108.453125 C 197.992188 108.828125 197.046875 108.117188 197.382812 128.867188 C 198.5 128.859375 199.617188 128.84375 200.734375 128.898438 C 200.773438 130.296875 200.703125 131.699219 200.746094 133.097656 C 200.855469 133.113281 200.964844 133.132812 201.078125 133.148438 C 201.054688 132.4375 201.058594 131.71875 201.058594 131.007812 C 201.136719 131.007812 201.292969 131.011719 201.371094 131.011719 C 201.375 131.777344 201.347656 132.539062 201.375 133.300781 C 202.988281 133.382812 202.128906 133.308594 203.351562 133.019531 C 203.496094 130.710938 203.105469 121.34375 203.605469 121.105469 C 204.066406 121.039062 204.535156 121.070312 204.996094 121.039062 C 205.027344 120.917969 205.058594 120.796875 205.089844 120.675781 C 205.441406 120.648438 205.753906 120.488281 205.984375 120.222656 C 206.121094 120.363281 206.253906 120.5 206.390625 120.640625 C 208.382812 120.5 208.371094 120.796875 209.246094 120.441406 C 209.488281 120.539062 209.738281 120.617188 209.988281 120.691406 C 210.054688 120.816406 210.121094 120.945312 210.210938 121.0625 C 210.472656 121.140625 210.507812 120.8125 210.621094 120.652344 C 210.695312 120.648438 210.777344 120.640625 210.859375 120.636719 C 210.890625 120.761719 210.925781 120.886719 210.964844 121.011719 C 211.15625 121.035156 211.347656 121.058594 211.546875 121.082031 C 211.589844 121.878906 211.574219 128.304688 211.558594 129.28125 C 211.695312 129.28125 211.835938 129.277344 211.984375 129.277344 C 212.042969 128.734375 211.804688 128.050781 212.265625 127.632812 C 212.578125 127.277344 213.125 127.101562 213.234375 126.59375 C 213.28125 126.035156 213.332031 125.441406 213.121094 124.90625 C 213.230469 124.769531 213.351562 124.640625 213.441406 124.488281 C 213.503906 124.132812 213.417969 123.757812 213.535156 123.414062 C 213.789062 123.144531 214.164062 123.054688 214.472656 122.867188 C 214.675781 122.195312 214.347656 121.496094 214.527344 120.816406 C 214.640625 120.347656 214.289062 119.96875 214.140625 119.554688 C 214.242188 119.253906 214.378906 118.917969 214.65625 118.734375 C 215.355469 118.71875 215.15625 118.914062 215.160156 135.800781 L -0.949219 135.800781 L -0.949219 116.867188 C -0.789062 117.007812 -0.632812 117.167969 -0.429688 117.238281 C -0.265625 117.171875 -0.113281 117.074219 0.0390625 116.984375 C 0.148438 117.136719 0.253906 117.292969 0.371094 117.4375 C 0.707031 117.390625 0.910156 117.0625 1.164062 116.867188 C 1.539062 117.277344 2.019531 117.554688 2.503906 117.8125 C 2.636719 118.121094 2.566406 118.480469 2.609375 118.8125 C 2.765625 118.773438 2.941406 118.742188 3.007812 118.574219 C 3.371094 117.890625 3.8125 117.207031 3.808594 116.40625 C 3.847656 116.4375 3.933594 116.5 3.976562 116.53125 C 4.09375 117.296875 4.433594 117.996094 4.808594 118.664062 C 6.464844 121.671875 5.847656 120.277344 6 121.652344 C 6.136719 121.683594 6.273438 121.710938 6.40625 121.738281 C 6.472656 122.519531 6.441406 127.007812 6.429688 127.769531 C 6.609375 127.800781 6.789062 127.828125 6.96875 127.855469 C 7.046875 127.972656 7.074219 128.128906 7.199219 128.207031 C 7.589844 128.238281 7.980469 128.222656 8.371094 128.230469 C 8.378906 127.902344 8.367188 127.578125 8.394531 127.25 C 8.429688 126.898438 8.601562 126.566406 8.605469 126.207031 C 8.640625 125.539062 8.488281 124.832031 8.796875 124.203125 C 8.886719 123.90625 9.195312 123.796875 9.445312 123.671875 C 9.289062 121.578125 10.332031 120.613281 10.667969 120.683594 C 11.253906 120.757812 11.730469 121.195312 12.027344 121.6875 C 12.246094 122.085938 12.640625 122.332031 12.914062 122.6875 C 13.003906 123.089844 12.972656 123.503906 13.019531 123.910156 C 13.476562 123.851562 13.886719 123.574219 14.359375 123.609375 C 15.46875 123.597656 16.582031 123.636719 17.6875 123.566406 C 17.757812 122.773438 17.539062 121.890625 17.96875 121.175781 C 18.125 121.09375 18.296875 121.054688 18.464844 121.003906 C 18.527344 119.242188 18.730469 120.71875 18.746094 118.28125 C 18.878906 118.175781 19.011719 118.074219 19.140625 117.96875 C 19.105469 117.34375 19.507812 116.765625 19.300781 116.144531 L 19.570312 116.144531 C 19.367188 116.765625 19.761719 117.347656 19.726562 117.972656 C 19.855469 118.078125 19.984375 118.179688 20.117188 118.285156 C 20.117188 118.800781 20.035156 119.335938 20.21875 119.832031 C 20.328125 120.136719 20.332031 120.46875 20.429688 120.777344 C 20.574219 121.066406 20.757812 121.34375 20.847656 121.65625 C 21.066406 122.25 20.898438 122.894531 20.996094 123.503906 C 21.28125 124.011719 21.167969 123.808594 23.558594 123.804688 C 23.5625 120.921875 23.53125 118.039062 23.570312 115.160156 C 23.769531 115.140625 23.96875 115.121094 24.167969 115.101562 C 24.1875 114.914062 24.210938 114.730469 24.234375 114.542969 C 24.558594 114.457031 24.882812 114.375 25.214844 114.316406 C 25.257812 114.199219 25.296875 114.082031 25.335938 113.964844 C 25.527344 113.839844 25.808594 113.765625 25.855469 113.511719 C 26.191406 112.351562 26.515625 113.058594 27.242188 113.019531 C 27.925781 113 28.625 113.136719 29.289062 112.90625 C 29.734375 112.765625 29.875 113.335938 29.921875 113.660156 C 30.253906 113.683594 30.589844 113.695312 30.925781 113.695312 C 31.210938 114.050781 31.15625 114.507812 31.148438 114.929688 C 31.359375 114.929688 31.570312 114.929688 31.78125 114.929688 C 31.808594 114.796875 31.839844 114.664062 31.871094 114.53125 C 32.421875 114.5625 32.988281 114.476562 33.53125 114.570312 C 33.828125 114.777344 34.121094 115.003906 34.507812 114.988281 C 34.445312 117.660156 34.441406 128.464844 34.484375 129.722656 C 34.667969 129.746094 34.855469 129.769531 35.042969 129.796875 C 35.101562 129.890625 35.160156 129.984375 35.21875 130.078125 C 35.703125 130.21875 36.1875 130.441406 36.707031 130.339844 C 36.699219 126.570312 36.746094 122.796875 36.703125 119.027344 C 37.050781 118.832031 37.386719 118.617188 37.707031 118.375 C 38.050781 118.664062 38.457031 118.851562 38.839844 119.074219 C 38.921875 119.214844 38.875 124.8125 38.875 124.898438 C 39.453125 124.859375 40.03125 124.878906 40.613281 124.886719 C 40.625 125.242188 40.585938 125.605469 40.652344 125.957031 C 40.773438 126.144531 41.015625 126.273438 41.003906 126.515625 C 41.027344 126.953125 41.003906 127.394531 41.03125 127.832031 C 41.710938 127.859375 42.390625 127.875 43.070312 127.863281 C 43.054688 125.820312 43.082031 123.777344 43.054688 121.730469 C 43.460938 121.722656 43.871094 121.722656 44.28125 121.722656 C 44.308594 121.160156 44.246094 120.597656 44.273438 120.03125 C 44.429688 120.003906 44.585938 119.96875 44.742188 119.9375 C 44.601562 110.320312 44.882812 115.800781 44.988281 111.214844 C 45.792969 110.894531 46.742188 110.859375 47.527344 111.242188 C 47.628906 111.828125 47.546875 112.429688 47.582031 113.019531 C 47.597656 113.308594 47.769531 113.5625 47.792969 113.851562 C 47.828125 114.453125 47.78125 115.054688 47.804688 115.65625 C 47.816406 116.121094 48.042969 116.546875 48.050781 117.011719 C 48.089844 118.011719 48.039062 119.011719 48.066406 120.007812 C 48.222656 120.003906 48.382812 120 48.542969 119.992188 C 48.558594 119.523438 48.566406 119.050781 48.566406 118.582031 C 48.832031 118.566406 49.097656 118.554688 49.367188 118.539062 C 49.382812 118.289062 49.375 118.035156 49.433594 117.792969 C 49.953125 116.785156 49.769531 119.257812 49.796875 108.027344 C 50.109375 107.925781 50.414062 107.78125 50.734375 107.699219 C 50.964844 107.691406 51.1875 107.789062 51.417969 107.773438 C 52.039062 107.679688 52.660156 107.847656 53.285156 107.777344 C 53.308594 107.996094 53.339844 108.214844 53.375 108.429688 C 53.472656 108.289062 53.566406 108.140625 53.652344 107.992188 C 53.980469 107.984375 54.308594 107.984375 54.636719 107.980469 C 54.652344 106.863281 54.546875 105.742188 54.648438 104.621094 C 54.855469 104.539062 55.058594 104.457031 55.269531 104.378906 C 55.300781 104.1875 55.335938 103.996094 55.375 103.804688 C 55.820312 103.714844 56.261719 103.59375 56.703125 103.488281 C 56.8125 101.339844 56.691406 99.1875 56.789062 97.039062 Z M 56.792969 97.039062 " fill-opacity="1" fill-rule="nonzero"/></g></svg>